NotoSerifBengali-SemiCondensedSemiBold.ufo
<glyph name="exclam" format="2">
  <advance width="341.3850574712644"/>
  <unicode hex="0021"/>
  <outline>
    <contour>
      <point x="151.17816091954023" y="212.38390804597702" type="line"/>
      <point x="201.0655172413793" y="212.38390804597702" type="line"/>
      <point x="241.9850574712644" y="714.0" type="line"/>
      <point x="110.25862068965517" y="714.0" type="line"/>
    </contour>
    <contour>
      <point x="176.60919540229887" y="-7.620689655172414" type="curve" smooth="yes"/>
      <point x="211.5758620689655" y="-7.620689655172414"/>
      <point x="242.06091954022992" y="9.87471264367816"/>
      <point x="242.06091954022992" y="63.181609195402295" type="curve" smooth="yes"/>
      <point x="242.06091954022992" y="116.24827586206897"/>
      <point x="211.5758620689655" y="133.3505747126437"/>
      <point x="176.60919540229887" y="133.3505747126437" type="curve" smooth="yes"/>
      <point x="139.65517241379314" y="133.3505747126437"/>
      <point x="110.53678160919542" y="116.24827586206897"/>
      <point x="110.53678160919542" y="63.181609195402295" type="curve" smooth="yes"/>
      <point x="110.53678160919542" y="9.87471264367816"/>
      <point x="139.65517241379314" y="-7.620689655172414"/>
    </contour>
  </outline>
</glyph>
<glyph name="quotedbl" format="2">
  <advance width="421.69310344827585"/>
  <unicode hex="0022"/>
  <outline>
    <contour>
      <point x="281.29999999999995" y="465.96436781609196" type="line"/>
      <point x="332.3448275862069" y="465.96436781609196" type="line"/>
      <point x="364.0540229885058" y="714.0" type="line"/>
      <point x="244.40574712643675" y="714.0" type="line"/>
    </contour>
    <contour>
      <point x="91.30114942528735" y="465.96436781609196" type="line"/>
      <point x="142.75172413793103" y="465.96436781609196" type="line"/>
      <point x="177.04712643678158" y="714.0" type="line"/>
      <point x="57.245977011494254" y="714.0" type="line"/>
    </contour>
  </outline>
</glyph>
<glyph name="numbersign" format="2">
  <advance width="519.4252873563219"/>
  <unicode hex="0023"/>
  <outline>
    <contour>
      <point x="68.72413793103448" y="0.0" type="line"/>
      <point x="131.7149425287356" y="0.0" type="line"/>
      <point x="169.85402298850573" y="203.5551724137931" type="line"/>
      <point x="285.9126436781609" y="203.5551724137931" type="line"/>
      <point x="247.76091954022988" y="0.0" type="line"/>
      <point x="310.75172413793103" y="0.0" type="line"/>
      <point x="348.51034482758615" y="203.5551724137931" type="line"/>
      <point x="466.9494252873563" y="203.5551724137931" type="line"/>
      <point x="466.9494252873563" y="263.6471264367816" type="line"/>
      <point x="360.8402298850575" y="263.6471264367816" type="line"/>
      <point x="396.51034482758615" y="455.5931034482759" type="line"/>
      <point x="499.1896551724137" y="455.5931034482759" type="line"/>
      <point x="499.1896551724137" y="516.8241379310346" type="line"/>
      <point x="408.3850574712644" y="516.8241379310346" type="line"/>
      <point x="445.9919540229885" y="714.0" type="line"/>
      <point x="382.63448275862066" y="714.0" type="line"/>
      <point x="345.39425287356323" y="516.8241379310346" type="line"/>
      <point x="229.33563218390802" y="516.8241379310346" type="line"/>
      <point x="266.4747126436782" y="714.0" type="line"/>
      <point x="202.7241379310345" y="714.0" type="line"/>
      <point x="166.73793103448276" y="516.8241379310346" type="line"/>
      <point x="52.096551724137925" y="516.8241379310346" type="line"/>
      <point x="52.096551724137925" y="455.5931034482759" type="line"/>
      <point x="155.12988505747126" y="455.5931034482759" type="line"/>
      <point x="118.10459770114943" y="263.6471264367816" type="line"/>
      <point x="19.463218390804602" y="263.6471264367816" type="line"/>
      <point x="19.463218390804602" y="203.5551724137931" type="line"/>
      <point x="107.25632183908046" y="203.5551724137931" type="line"/>
    </contour>
    <contour>
      <point x="181.96896551724134" y="263.6471264367816" type="line"/>
      <point x="218.0942528735632" y="455.5931034482759" type="line"/>
      <point x="334.7735632183908" y="455.5931034482759" type="line"/>
      <point x="298.48275862068965" y="263.6471264367816" type="line"/>
    </contour>
  </outline>
</glyph>
<glyph name="percent" format="2">
  <advance width="836.4919540229886"/>
  <unicode hex="0025"/>
  <outline>
    <contour>
      <point x="220.22183908045977" y="0.0" type="line"/>
      <point x="285.86206896551727" y="0.0" type="line"/>
      <point x="612.6241379310345" y="714.0" type="line"/>
      <point x="547.5160919540231" y="714.0" type="line"/>
    </contour>
    <contour>
      <point x="195.82758620689654" y="280.0" type="curve" smooth="yes"/>
      <point x="303.5091954022989" y="280.0"/>
      <point x="355.6919540229885" y="369.0"/>
      <point x="355.6919540229885" y="503.0" type="curve"/>
      <point x="355.6919540229885" y="637.0"/>
      <point x="303.2689655172414" y="724.0"/>
      <point x="196.82758620689654" y="724.0" type="curve" smooth="yes"/>
      <point x="84.14597701149425" y="724.0"/>
      <point x="36.88850574712644" y="637.0"/>
      <point x="36.88850574712644" y="503.0" type="curve" smooth="yes"/>
      <point x="36.88850574712644" y="369.0"/>
      <point x="83.9057471264368" y="280.0"/>
    </contour>
    <contour>
      <point x="195.82758620689654" y="322.7" type="curve" smooth="yes"/>
      <point x="145.85172413793103" y="322.7"/>
      <point x="126.67241379310343" y="388.4712643678161"/>
      <point x="126.67241379310343" y="503.0" type="curve"/>
      <point x="126.67241379310343" y="615.2885057471265"/>
      <point x="145.2183908045977" y="680.3000000000001"/>
      <point x="196.58735632183908" y="680.3000000000001" type="curve" smooth="yes"/>
      <point x="247.58965517241379" y="680.3000000000001"/>
      <point x="264.51494252873556" y="615.7689655172413"/>
      <point x="264.51494252873556" y="503.0" type="curve" smooth="yes"/>
      <point x="264.51494252873556" y="388.7114942528736"/>
      <point x="247.58965517241379" y="322.7"/>
    </contour>
    <contour>
      <point x="639.8919540229886" y="-10.0" type="curve" smooth="yes"/>
      <point x="747.3459770114943" y="-10.0"/>
      <point x="799.7563218390803" y="79.0"/>
      <point x="799.7563218390803" y="213.0" type="curve" smooth="yes"/>
      <point x="799.7563218390803" y="347.0"/>
      <point x="747.1057471264368" y="434.0"/>
      <point x="640.8919540229886" y="434.0" type="curve" smooth="yes"/>
      <point x="528.1091954022988" y="434.0"/>
      <point x="480.9528735632184" y="347.0"/>
      <point x="480.9528735632184" y="213.0" type="curve" smooth="yes"/>
      <point x="480.9528735632184" y="79.0"/>
      <point x="528.1091954022988" y="-10.0"/>
    </contour>
    <contour>
      <point x="639.8919540229886" y="32.699999999999996" type="curve" smooth="yes"/>
      <point x="589.916091954023" y="32.699999999999996"/>
      <point x="570.7367816091955" y="98.47126436781609"/>
      <point x="570.7367816091955" y="213.0" type="curve" smooth="yes"/>
      <point x="570.7367816091955" y="325.2885057471264"/>
      <point x="589.2827586206897" y="390.3"/>
      <point x="640.5252873563219" y="390.3" type="curve" smooth="yes"/>
      <point x="691.6540229885057" y="390.3"/>
      <point x="707.9459770114943" y="325.7689655172414"/>
      <point x="707.9459770114943" y="213.0" type="curve" smooth="yes"/>
      <point x="707.9459770114943" y="98.71149425287356"/>
      <point x="691.6540229885057" y="32.699999999999996"/>
    </contour>
  </outline>
</glyph>
<glyph name="quotesingle" format="2">
  <advance width="234.68620689655174"/>
  <unicode hex="0027"/>
  <outline>
    <contour>
      <point x="91.30114942528735" y="465.96436781609196" type="line"/>
      <point x="142.75172413793103" y="465.96436781609196" type="line"/>
      <point x="177.04712643678158" y="714.0" type="line"/>
      <point x="57.245977011494254" y="714.0" type="line"/>
    </contour>
  </outline>
</glyph>
<glyph name="parenleft" format="2">
  <advance width="369.5264367816092"/>
  <unicode hex="0028"/>
  <outline>
    <contour>
      <point x="302.4068965517241" y="-131.55977011494252" type="curve"/>
      <point x="302.4068965517241" y="-79.66896551724139" type="line"/>
      <point x="180.6505747126437" y="2.4701149425287356"/>
      <point x="161.5977011494253" y="158.6206896551724"/>
      <point x="161.5977011494253" y="317.62068965517244" type="curve" smooth="yes"/>
      <point x="161.5977011494253" y="476.0"/>
      <point x="180.6505747126437" y="631.0241379310345"/>
      <point x="302.4068965517241" y="713.0494252873564" type="curve"/>
      <point x="302.4068965517241" y="763.4206896551724" type="line"/>
      <point x="114.84252873563217" y="686.1379310344828"/>
      <point x="40.619540229885054" y="549.1586206896552"/>
      <point x="40.619540229885054" y="317.62068965517244" type="curve" smooth="yes"/>
      <point x="40.619540229885054" y="84.46206896551723"/>
      <point x="114.84252873563217" y="-53.54367816091954"/>
    </contour>
  </outline>
</glyph>
<glyph name="parenright" format="2">
  <advance width="387.8931034482759"/>
  <unicode hex="0029"/>
  <outline>
    <contour>
      <point x="85.85287356321838" y="-131.55977011494252" type="line"/>
      <point x="273.4172413793104" y="-53.54367816091954"/>
      <point x="347.4126436781609" y="84.46206896551723"/>
      <point x="347.4126436781609" y="317.62068965517244" type="curve" smooth="yes"/>
      <point x="347.4126436781609" y="549.1586206896552"/>
      <point x="273.4172413793104" y="686.1379310344828"/>
      <point x="85.85287356321838" y="763.4206896551724" type="curve"/>
      <point x="85.85287356321838" y="713.0494252873564" type="line"/>
      <point x="206.98850574712642" y="631.0241379310345"/>
      <point x="226.8011494252874" y="476.0"/>
      <point x="226.8011494252874" y="317.62068965517244" type="curve" smooth="yes"/>
      <point x="226.8011494252874" y="158.6206896551724"/>
      <point x="206.98850574712642" y="2.4701149425287356"/>
      <point x="85.85287356321838" y="-79.66896551724139" type="curve"/>
    </contour>
  </outline>
</glyph>
<glyph name="asterisk" format="2">
  <advance width="457.5149425287356"/>
  <unicode hex="002A"/>
  <outline>
    <contour>
      <point x="183.5367816091954" y="372.8091954022989" type="line"/>
      <point x="273.2057471264368" y="372.8091954022989" type="line"/>
      <point x="244.34137931034482" y="535.0862068965517" type="line"/>
      <point x="383.53218390804597" y="437.09655172413795" type="line"/>
      <point x="420.2586206896552" y="520.2172413793103" type="line"/>
      <point x="272.14367816091954" y="566.4045977011494" type="line"/>
      <point x="420.2586206896552" y="612.8321839080459" type="line"/>
      <point x="383.53218390804597" y="695.7126436781609" type="line"/>
      <point x="244.34137931034482" y="597.6344827586206" type="line"/>
      <point x="273.58620689655174" y="760.0" type="line"/>
      <point x="183.5367816091954" y="760.0" type="line"/>
      <point x="210.23563218390805" y="596.8747126436781" type="line"/>
      <point x="71.81724137931035" y="697.9528735632184" type="line"/>
      <point x="35.4712643678161" y="613.8321839080459" type="line"/>
      <point x="183.58620689655172" y="566.4045977011494" type="line"/>
      <point x="35.4712643678161" y="519.2172413793103" type="line"/>
      <point x="71.81724137931035" y="435.09655172413795" type="line"/>
      <point x="209.76781609195402" y="535.3137931034482" type="line"/>
    </contour>
  </outline>
</glyph>
<glyph name="plus" format="2">
  <advance width="509.8666666666667"/>
  <unicode hex="002B"/>
  <outline>
    <contour>
      <point x="222.35632183908046" y="143.0" type="line"/>
      <point x="286.13103448275865" y="143.0" type="line"/>
      <point x="286.13103448275865" y="326.52988505747123" type="line"/>
      <point x="454.07126436781607" y="326.52988505747123" type="line"/>
      <point x="454.07126436781607" y="388.7103448275862" type="line"/>
      <point x="286.13103448275865" y="388.7103448275862" type="line"/>
      <point x="286.13103448275865" y="572.0" type="line"/>
      <point x="222.35632183908046" y="572.0" type="line"/>
      <point x="222.35632183908046" y="388.7103448275862" type="line"/>
      <point x="55.5551724137931" y="388.7103448275862" type="line"/>
      <point x="55.5551724137931" y="326.52988505747123" type="line"/>
      <point x="222.35632183908046" y="326.52988505747123" type="line"/>
    </contour>
  </outline>
</glyph>
<glyph name="comma" format="2">
  <advance width="293.0896551724138"/>
  <unicode hex="002C"/>
  <outline>
    <contour>
      <point x="73.83908045977012" y="-154.0" type="line"/>
      <point x="186.39655172413796" y="-120.11264367816092"/>
      <point x="229.0471264367816" y="-46.263218390804596"/>
      <point x="229.0471264367816" y="35.97931034482759" type="curve" smooth="yes"/>
      <point x="229.0471264367816" y="97.67816091954023"/>
      <point x="198.86666666666667" y="133.3505747126437"/>
      <point x="154.532183908046" y="133.3505747126437" type="curve" smooth="yes"/>
      <point x="119.05977011494251" y="133.3505747126437"/>
      <point x="91.16896551724138" y="111.24827586206897"/>
      <point x="91.16896551724138" y="72.39655172413794" type="curve" smooth="yes"/>
      <point x="91.16896551724138" y="7.289655172413793"/>
      <point x="156.98735632183906" y="14.013793103448277"/>
      <point x="156.98735632183906" y="-24.26551724137931" type="curve" smooth="yes"/>
      <point x="156.98735632183906" y="-61.0"/>
      <point x="130.09885057471263" y="-89.43908045977012"/>
      <point x="73.83908045977012" y="-109.93333333333334" type="curve"/>
    </contour>
  </outline>
</glyph>
<glyph name="hyphen" format="2">
  <advance width="288.3540229885058"/>
  <unicode hex="002D"/>
  <outline>
    <contour>
      <point x="23.154022988505748" y="229.9712643678161" type="line"/>
      <point x="264.95977011494256" y="229.9712643678161" type="line"/>
      <point x="264.95977011494256" y="315.0287356321839" type="line"/>
      <point x="23.154022988505748" y="315.0287356321839" type="line"/>
    </contour>
  </outline>
</glyph>
<glyph name="period" format="2">
  <advance width="286.88735632183904"/>
  <unicode hex="002E"/>
  <outline>
    <contour>
      <point x="162.02643678160922" y="-7.620689655172414" type="curve" smooth="yes"/>
      <point x="196.99310344827586" y="-7.620689655172414"/>
      <point x="227.07241379310346" y="9.87471264367816"/>
      <point x="227.07241379310346" y="63.181609195402295" type="curve" smooth="yes"/>
      <point x="227.07241379310346" y="116.24827586206897"/>
      <point x="196.99310344827586" y="133.3505747126437"/>
      <point x="162.02643678160922" y="133.3505747126437" type="curve" smooth="yes"/>
      <point x="125.07241379310344" y="133.3505747126437"/>
      <point x="95.98045977011495" y="116.24827586206897"/>
      <point x="95.98045977011495" y="63.181609195402295" type="curve" smooth="yes"/>
      <point x="95.98045977011495" y="9.87471264367816"/>
      <point x="125.07241379310344" y="-7.620689655172414"/>
    </contour>
  </outline>
</glyph>
<glyph name="slash" format="2">
  <advance width="267.5931034482759"/>
  <unicode hex="002F"/>
  <outline>
    <contour>
      <point x="0.0" y="-121.0" type="line"/>
      <point x="60.234482758620686" y="-120.86091954022989" type="line"/>
      <point x="267.5931034482759" y="760.0" type="line"/>
      <point x="209.34597701149426" y="760.0" type="line"/>
    </contour>
  </outline>
</glyph>
<glyph name="zero" format="2">
  <advance width="519.2862068965518"/>
  <unicode hex="0030"/>
  <outline>
    <contour>
      <point x="259.95977011494256" y="-10.0" type="curve" smooth="yes"/>
      <point x="414.5436781609195" y="-10.0"/>
      <point x="482.2712643678161" y="133.73793103448276"/>
      <point x="482.2712643678161" y="358.0" type="curve" smooth="yes"/>
      <point x="482.2712643678161" y="583.767816091954"/>
      <point x="415.416091954023" y="724.0"/>
      <point x="260.95977011494256" y="724.0" type="curve" smooth="yes"/>
      <point x="97.23678160919539" y="724.0"/>
      <point x="36.648275862068964" y="582.2505747126436"/>
      <point x="36.648275862068964" y="359.0" type="curve" smooth="yes"/>
      <point x="36.648275862068964" y="132.72643678160918"/>
      <point x="97.8816091954023" y="-10.0"/>
    </contour>
    <contour>
      <point x="259.95977011494256" y="47.16781609195402" type="curve" smooth="yes"/>
      <point x="179.91724137931035" y="47.16781609195402"/>
      <point x="156.61264367816094" y="161.83793103448275"/>
      <point x="156.61264367816094" y="358.0" type="curve" smooth="yes"/>
      <point x="156.61264367816094" y="554.1620689655173"/>
      <point x="179.91724137931035" y="666.832183908046"/>
      <point x="260.95977011494256" y="666.832183908046" type="curve" smooth="yes"/>
      <point x="339.77471264367813" y="666.832183908046"/>
      <point x="362.8126436781609" y="554.1620689655173"/>
      <point x="362.8126436781609" y="358.0" type="curve" smooth="yes"/>
      <point x="362.8126436781609" y="161.83793103448275"/>
      <point x="339.77471264367813" y="47.16781609195402"/>
    </contour>
  </outline>
</glyph>
<glyph name="one" format="2">
  <advance width="519.2862068965518"/>
  <unicode hex="0031"/>
  <outline>
    <contour>
      <point x="88.11149425287356" y="0.0" type="line"/>
      <point x="455.4011494252873" y="0.0" type="line"/>
      <point x="455.4011494252873" y="46.04022988505747" type="line"/>
      <point x="402.3218390804598" y="46.04022988505747" type="line" smooth="yes"/>
      <point x="360.6862068965517" y="46.04022988505747"/>
      <point x="335.4011494252873" y="60.76551724137931"/>
      <point x="335.4011494252873" y="115.10229885057471" type="curve" smooth="yes"/>
      <point x="335.4011494252873" y="718.0" type="line"/>
      <point x="254.59080459770115" y="718.0" type="line"/>
      <point x="189.63563218390806" y="666.8218390804598" type="line" smooth="yes"/>
      <point x="127.94712643678162" y="618.1885057471264"/>
      <point x="87.18275862068967" y="600.416091954023"/>
      <point x="49.88850574712644" y="590.416091954023" type="curve"/>
      <point x="49.88850574712644" y="553.1344827586207"/>
      <point x="71.51149425287356" y="529.296551724138"/>
      <point x="100.1471264367816" y="529.296551724138" type="curve" smooth="yes"/>
      <point x="137.30229885057472" y="529.296551724138"/>
      <point x="173.32988505747127" y="569.9310344827587"/>
      <point x="220.15747126436784" y="630.0977011494253" type="curve"/>
      <point x="220.15747126436784" y="115.10229885057471" type="line" smooth="yes"/>
      <point x="220.15747126436784" y="56.78965517241379"/>
      <point x="191.99655172413793" y="46.04022988505747"/>
      <point x="153.00919540229884" y="46.04022988505747" type="curve" smooth="yes"/>
      <point x="88.11149425287356" y="46.04022988505747" type="line"/>
    </contour>
  </outline>
</glyph>
<glyph name="two" format="2">
  <advance width="519.2862068965518"/>
  <unicode hex="0032"/>
  <outline>
    <contour>
      <point x="44.255172413793105" y="0.0" type="line"/>
      <point x="465.64827586206894" y="0.0" type="line"/>
      <point x="470.1425287356322" y="186.7551724137931" type="line"/>
      <point x="422.58045977011494" y="186.7551724137931" type="line"/>
      <point x="417.11149425287357" y="163.58850574712642" type="line" smooth="yes"/>
      <point x="406.87011494252874" y="120.47586206896551"/>
      <point x="385.96781609195403" y="91.0448275862069"/>
      <point x="339.1172413793103" y="91.0448275862069" type="curve" smooth="yes"/>
      <point x="125.77931034482759" y="91.0448275862069" type="line"/>
      <point x="263.7689655172414" y="246.04597701149424" type="line" smooth="yes"/>
      <point x="385.73678160919536" y="375.1436781609196"/>
      <point x="447.48160919540226" y="456.47816091954024"/>
      <point x="447.48160919540226" y="555.8379310344827" type="curve" smooth="yes"/>
      <point x="447.48160919540226" y="657.4586206896552"/>
      <point x="373.77931034482754" y="724.0"/>
      <point x="245.31149425287356" y="724.0" type="curve" smooth="yes"/>
      <point x="116.75517241379309" y="724.0"/>
      <point x="51.672413793103445" y="663.4057471264368"/>
      <point x="51.672413793103445" y="589.619540229885" type="curve" smooth="yes"/>
      <point x="51.672413793103445" y="531.0827586206897"/>
      <point x="95.6367816091954" y="513.5091954022989"/>
      <point x="149.90114942528734" y="513.5091954022989" type="curve"/>
      <point x="149.90114942528734" y="605.416091954023"/>
      <point x="170.2574712643678" y="669.9597701149424"/>
      <point x="245.31149425287356" y="669.9597701149424" type="curve" smooth="yes"/>
      <point x="300.6931034482759" y="669.9597701149424"/>
      <point x="329.8724137931035" y="625.4563218390805"/>
      <point x="329.8724137931035" y="547.9011494252873" type="curve" smooth="yes"/>
      <point x="329.8724137931035" y="452.9103448275862"/>
      <point x="297.89655172413796" y="382.1413793103448"/>
      <point x="192.4287356321839" y="258.08965517241376" type="curve" smooth="yes"/>
      <point x="44.255172413793105" y="82.26206896551723" type="line"/>
    </contour>
  </outline>
</glyph>
<glyph name="three" format="2">
  <advance width="519.2862068965518"/>
  <unicode hex="0033"/>
  <outline>
    <contour>
      <point x="230.72528735632184" y="-10.0" type="curve" smooth="yes"/>
      <point x="348.0540229885058" y="-10.0"/>
      <point x="472.54712643678164" y="43.0"/>
      <point x="472.54712643678164" y="202.5977011494253" type="curve" smooth="yes"/>
      <point x="472.54712643678164" y="326.32988505747124"/>
      <point x="378.62528735632185" y="368.9114942528736"/>
      <point x="305.16436781609195" y="380.1275862068965" type="curve"/>
      <point x="387.551724137931" y="404.69885057471265"/>
      <point x="449.380459770115" y="471.78620689655173"/>
      <point x="449.380459770115" y="561.7862068965517" type="curve" smooth="yes"/>
      <point x="449.380459770115" y="665.0126436781609"/>
      <point x="369.06896551724134" y="724.0"/>
      <point x="245.84022988505745" y="724.0" type="curve" smooth="yes"/>
      <point x="117.51149425287356" y="724.0"/>
      <point x="51.89655172413793" y="665.3827586206896"/>
      <point x="51.89655172413793" y="591.7114942528735" type="curve" smooth="yes"/>
      <point x="51.89655172413793" y="538.4160919540229"/>
      <point x="92.24252873563218" y="519.9942528735633"/>
      <point x="148.9896551724138" y="519.9942528735633" type="curve"/>
      <point x="148.9896551724138" y="598.9942528735633"/>
      <point x="167.59425287356322" y="669.9597701149424"/>
      <point x="242.09425287356322" y="669.9597701149424" type="curve" smooth="yes"/>
      <point x="302.8195402298851" y="669.9597701149424"/>
      <point x="330.6436781609196" y="624.5804597701149"/>
      <point x="330.6436781609196" y="548.7586206896551" type="curve" smooth="yes"/>
      <point x="330.6436781609196" y="456.1022988505747"/>
      <point x="281.8919540229885" y="397.0896551724138"/>
      <point x="200.88505747126436" y="397.0896551724138" type="curve"/>
      <point x="154.98045977011495" y="397.0896551724138" type="line"/>
      <point x="154.98045977011495" y="342.92183908045973" type="line"/>
      <point x="199.0494252873563" y="342.92183908045973" type="line" smooth="yes"/>
      <point x="297.90459770114944" y="342.92183908045973"/>
      <point x="353.1770114942529" y="287.416091954023"/>
      <point x="353.1770114942529" y="203.5977011494253" type="curve" smooth="yes"/>
      <point x="353.1770114942529" y="87.7103448275862"/>
      <point x="294.76666666666665" y="49.763218390804596"/>
      <point x="228.34367816091952" y="49.763218390804596" type="curve" smooth="yes"/>
      <point x="156.40229885057474" y="49.763218390804596"/>
      <point x="111.75172413793105" y="99.60804597701149"/>
      <point x="111.75172413793105" y="174.88965517241377" type="curve"/>
      <point x="71.49655172413793" y="174.88965517241377"/>
      <point x="40.43103448275862" y="150.26896551724136"/>
      <point x="40.43103448275862" y="105.83563218390803" type="curve" smooth="yes"/>
      <point x="40.43103448275862" y="43.49540229885057"/>
      <point x="96.29770114942528" y="-10.0"/>
    </contour>
  </outline>
</glyph>
<glyph name="four" format="2">
  <advance width="519.2862068965518"/>
  <unicode hex="0034"/>
  <outline>
    <contour>
      <point x="184.02528735632183" y="0.0" type="line"/>
      <point x="486.6390804597701" y="0.0" type="line"/>
      <point x="486.6390804597701" y="46.04022988505747" type="line"/>
      <point x="474.73908045977015" y="46.04022988505747" type="line" smooth="yes"/>
      <point x="432.67241379310343" y="46.04022988505747"/>
      <point x="398.1505747126437" y="55.04022988505747"/>
      <point x="398.1505747126437" y="118.04022988505747" type="curve" smooth="yes"/>
      <point x="398.1505747126437" y="192.1873563218391" type="line"/>
      <point x="503.56321839080465" y="192.1873563218391" type="line"/>
      <point x="503.56321839080465" y="252.0" type="line"/>
      <point x="398.1505747126437" y="252.0" type="line"/>
      <point x="398.1505747126437" y="714.0" type="line"/>
      <point x="288.0367816091954" y="714.0" type="line"/>
      <point x="14.291954022988506" y="240.8126436781609" type="line"/>
      <point x="14.291954022988506" y="192.1873563218391" type="line"/>
      <point x="286.04712643678164" y="192.1873563218391" type="line"/>
      <point x="286.04712643678164" y="118.04022988505747" type="line" smooth="yes"/>
      <point x="286.04712643678164" y="55.04022988505747"/>
      <point x="252.11954022988508" y="46.04022988505747"/>
      <point x="209.6862068965517" y="46.04022988505747" type="curve" smooth="yes"/>
      <point x="184.02528735632183" y="46.04022988505747" type="line"/>
    </contour>
    <contour>
      <point x="82.13103448275862" y="252.0" type="line"/>
      <point x="213.32068965517243" y="480.216091954023" type="line" smooth="yes"/>
      <point x="233.62183908045978" y="517.1068965517242"/>
      <point x="279.22528735632187" y="601.251724137931"/>
      <point x="292.54137931034484" y="633.5402298850574" type="curve"/>
      <point x="287.68045977011496" y="571.5402298850574"/>
      <point x="286.04712643678164" y="493.4252873563218"/>
      <point x="286.04712643678164" y="435.4252873563218" type="curve" smooth="yes"/>
      <point x="286.04712643678164" y="252.0" type="line"/>
    </contour>
  </outline>
</glyph>
<glyph name="five" format="2">
  <advance width="519.2862068965518"/>
  <unicode hex="0035"/>
  <outline>
    <contour>
      <point x="227.28620689655173" y="-10.0" type="curve" smooth="yes"/>
      <point x="354.1931034482759" y="-10.0"/>
      <point x="460.9287356321839" y="68.86551724137931"/>
      <point x="460.9287356321839" y="218.6206896551724" type="curve" smooth="yes"/>
      <point x="460.9287356321839" y="360.1022988505747"/>
      <point x="367.7045977011494" y="431.0896551724138"/>
      <point x="234.85632183908046" y="431.0896551724138" type="curve" smooth="yes"/>
      <point x="190.94022988505748" y="431.0896551724138"/>
      <point x="150.08850574712642" y="422.7103448275862"/>
      <point x="129.92298850574713" y="414.583908045977" type="curve"/>
      <point x="147.5689655172414" y="623.1827586206897" type="line"/>
      <point x="333.23333333333335" y="623.1827586206897" type="line" smooth="yes"/>
      <point x="367.8425287356322" y="623.1827586206897"/>
      <point x="373.5919540229885" y="609.9287356321839"/>
      <point x="379.5908045977012" y="580.6413793103447" type="curve" smooth="yes"/>
      <point x="385.4264367816092" y="551.5620689655173" type="line"/>
      <point x="432.14022988505747" y="551.5620689655173" type="line"/>
      <point x="427.64597701149427" y="714.0" type="line"/>
      <point x="99.49655172413793" y="714.0" type="line"/>
      <point x="68.87471264367815" y="363.064367816092" type="line"/>
      <point x="98.26206896551724" y="351.0126436781609" type="line"/>
      <point x="124.11264367816092" y="361.5310344827586"/>
      <point x="154.20114942528735" y="372.92183908045973"/>
      <point x="208.25632183908047" y="372.92183908045973" type="curve" smooth="yes"/>
      <point x="290.41609195402293" y="372.92183908045973"/>
      <point x="341.419540229885" y="321.7586206896552"/>
      <point x="341.419540229885" y="218.6206896551724" type="curve" smooth="yes"/>
      <point x="341.419540229885" y="91.57241379310344"/>
      <point x="286.9597701149425" y="51.15632183908046"/>
      <point x="217.7402298850575" y="51.15632183908046" type="curve" smooth="yes"/>
      <point x="142.12528735632185" y="51.15632183908046"/>
      <point x="110.36436781609194" y="105.19540229885057"/>
      <point x="110.36436781609194" y="163.06781609195406" type="curve"/>
      <point x="68.62528735632185" y="163.06781609195406"/>
      <point x="43.91379310344828" y="140.19540229885058"/>
      <point x="43.91379310344828" y="100.00344827586207" type="curve" smooth="yes"/>
      <point x="43.91379310344828" y="48.61954022988506"/>
      <point x="88.36206896551724" y="-10.0"/>
    </contour>
  </outline>
</glyph>
<glyph name="six" format="2">
  <advance width="519.2862068965518"/>
  <unicode hex="0036"/>
  <outline>
    <contour>
      <point x="272.2264367816092" y="-10.0" type="curve" smooth="yes"/>
      <point x="405.8724137931035" y="-10.0"/>
      <point x="479.23333333333335" y="88.0"/>
      <point x="479.23333333333335" y="229.6206896551724" type="curve" smooth="yes"/>
      <point x="479.23333333333335" y="358.1022988505747"/>
      <point x="405.8724137931035" y="435.1022988505747"/>
      <point x="293.7609195402299" y="435.1022988505747" type="curve" smooth="yes"/>
      <point x="231.1862068965517" y="435.1022988505747"/>
      <point x="191.01724137931032" y="411.9402298850575"/>
      <point x="163.3448275862069" y="388.63793103448273" type="curve"/>
      <point x="169.56091954022986" y="572.6827586206897"/>
      <point x="213.8080459770115" y="671.9597701149424"/>
      <point x="296.06666666666666" y="671.9597701149424" type="curve" smooth="yes"/>
      <point x="351.25977011494246" y="671.9597701149424"/>
      <point x="371.9402298850575" y="616.4080459770115"/>
      <point x="371.9402298850575" y="550.6655172413793" type="curve"/>
      <point x="433.48390804597705" y="550.6655172413793"/>
      <point x="460.87931034482756" y="576.9862068965517"/>
      <point x="460.87931034482756" y="616.9103448275862" type="curve" smooth="yes"/>
      <point x="460.87931034482756" y="672.3793103448276"/>
      <point x="410.9919540229885" y="724.0"/>
      <point x="299.75287356321843" y="724.0" type="curve" smooth="yes"/>
      <point x="129.60689655172416" y="724.0"/>
      <point x="49.31954022988506" y="561.96091954023"/>
      <point x="49.31954022988506" y="344.84597701149426" type="curve" smooth="yes"/>
      <point x="49.31954022988506" y="97.0"/>
      <point x="141.6689655172414" y="-10.0"/>
    </contour>
    <contour>
      <point x="274.4045977011494" y="47.801149425287356" type="curve" smooth="yes"/>
      <point x="206.83333333333331" y="47.801149425287356"/>
      <point x="164.57241379310344" y="132.9609195402299"/>
      <point x="162.57241379310344" y="328.3402298850575" type="curve"/>
      <point x="183.99080459770113" y="352.467816091954"/>
      <point x="222.88505747126436" y="380.73333333333335"/>
      <point x="267.60459770114943" y="380.73333333333335" type="curve" smooth="yes"/>
      <point x="329.59540229885056" y="380.73333333333335"/>
      <point x="364.9402298850575" y="331.8977011494253"/>
      <point x="364.9402298850575" y="219.6206896551724" type="curve" smooth="yes"/>
      <point x="364.9402298850575" y="100.68620689655172"/>
      <point x="331.95057471264374" y="47.801149425287356"/>
    </contour>
  </outline>
</glyph>
<glyph name="seven" format="2">
  <advance width="519.2862068965518"/>
  <unicode hex="0037"/>
  <outline>
    <contour>
      <point x="162.05402298850578" y="0.0" type="line"/>
      <point x="238.3494252873563" y="0.0" type="line"/>
      <point x="479.26206896551724" y="677.3747126436782" type="line"/>
      <point x="479.26206896551724" y="714.0" type="line"/>
      <point x="52.95172413793104" y="714.0" type="line"/>
      <point x="47.95172413793104" y="522.1827586206897" type="line"/>
      <point x="96.77931034482759" y="522.1827586206897" type="line"/>
      <point x="101.62758620689655" y="571.3103448275862" type="line" smooth="yes"/>
      <point x="104.62758620689655" y="605.6885057471264"/>
      <point x="121.28850574712644" y="623.1827586206897"/>
      <point x="154.94942528735632" y="623.1827586206897" type="curve" smooth="yes"/>
      <point x="396.783908045977" y="623.1827586206897" type="line"/>
    </contour>
  </outline>
</glyph>
<glyph name="eight" format="2">
  <advance width="519.2862068965518"/>
  <unicode hex="0038"/>
  <outline>
    <contour>
      <point x="254.19885057471265" y="-10.0" type="curve" smooth="yes"/>
      <point x="396.6563218390805" y="-10.0"/>
      <point x="483.8666666666667" y="63.27816091954023"/>
      <point x="483.8666666666667" y="186.75057471264367" type="curve" smooth="yes"/>
      <point x="483.8666666666667" y="278.09540229885056"/>
      <point x="429.7264367816092" y="334.06091954022986"/>
      <point x="331.57241379310346" y="383.6850574712644" type="curve"/>
      <point x="407.4149425287356" y="423.0045977011494"/>
      <point x="456.25517241379316" y="466.5954022988506"/>
      <point x="456.25517241379316" y="553.6413793103449" type="curve" smooth="yes"/>
      <point x="456.25517241379316" y="652.251724137931"/>
      <point x="388.7057471264368" y="724.0"/>
      <point x="264.6816091954023" y="724.0" type="curve" smooth="yes"/>
      <point x="115.85402298850573" y="724.0"/>
      <point x="56.95287356321839" y="639.4517241379309"/>
      <point x="56.95287356321839" y="544.6310344827585" type="curve" smooth="yes"/>
      <point x="56.95287356321839" y="460.14252873563214"/>
      <point x="104.09310344827587" y="405.8103448275863"/>
      <point x="175.6954022988506" y="362.7574712643678" type="curve"/>
      <point x="95.31954022988506" y="323.0195402298851"/>
      <point x="35.69770114942529" y="273.8827586206897"/>
      <point x="35.69770114942529" y="177.8137931034483" type="curve" smooth="yes"/>
      <point x="35.69770114942529" y="73.60919540229885"/>
      <point x="106.52643678160919" y="-10.0"/>
    </contour>
    <contour>
      <point x="258.32643678160923" y="41.279310344827586" type="curve" smooth="yes"/>
      <point x="185.435632183908" y="41.279310344827586"/>
      <point x="143.1287356321839" y="93.54827586206896"/>
      <point x="143.1287356321839" y="177.0632183908046" type="curve" smooth="yes"/>
      <point x="143.1287356321839" y="249.51839080459771"/>
      <point x="175.42413793103447" y="300.52758620689656"/>
      <point x="226.26206896551727" y="333.2597701149425" type="curve"/>
      <point x="332.6632183908046" y="280.451724137931"/>
      <point x="375.4114942528735" y="236.31724137931033"/>
      <point x="375.4114942528735" y="168.82528735632184" type="curve" smooth="yes"/>
      <point x="375.4114942528735" y="92.14367816091954"/>
      <point x="328.8770114942528" y="41.279310344827586"/>
    </contour>
    <contour>
      <point x="280.30114942528735" y="410.6632183908046" type="curve"/>
      <point x="206.4229885057471" y="447.7114942528736"/>
      <point x="166.09310344827585" y="484.8988505747127"/>
      <point x="166.09310344827585" y="557.5413793103448" type="curve" smooth="yes"/>
      <point x="166.09310344827585" y="624.451724137931"/>
      <point x="199.33563218390802" y="672.087356321839"/>
      <point x="259.92068965517245" y="672.087356321839" type="curve" smooth="yes"/>
      <point x="327.4183908045977" y="672.087356321839"/>
      <point x="355.88965517241377" y="614.3000000000001"/>
      <point x="355.88965517241377" y="553.9471264367816" type="curve" smooth="yes"/>
      <point x="355.88965517241377" y="484.9873563218391"/>
      <point x="336.2298850574713" y="443.48390804597705"/>
    </contour>
  </outline>
</glyph>
<glyph name="nine" format="2">
  <advance width="519.2862068965518"/>
  <unicode hex="0039"/>
  <outline>
    <contour>
      <point x="210.90459770114944" y="-10.379310344827585" type="curve"/>
      <point x="396.1494252873563" y="-10.379310344827585"/>
      <point x="470.3333333333333" y="167.15747126436784"/>
      <point x="470.3333333333333" y="388.0" type="curve" smooth="yes"/>
      <point x="470.3333333333333" y="625.0103448275862"/>
      <point x="374.89540229885057" y="724.0"/>
      <point x="244.9333333333333" y="724.0" type="curve" smooth="yes"/>
      <point x="116.08620689655173" y="724.0"/>
      <point x="40.05287356321839" y="623.9747126436782"/>
      <point x="40.05287356321839" y="481.21379310344827" type="curve" smooth="yes"/>
      <point x="40.05287356321839" y="346.8586206896552"/>
      <point x="115.41379310344827" y="276.7448275862069"/>
      <point x="222.30919540229888" y="276.7448275862069" type="curve" smooth="yes"/>
      <point x="286.2505747126437" y="276.7448275862069"/>
      <point x="330.20344827586206" y="308.23793103448276"/>
      <point x="356.44712643678156" y="342.87356321839076" type="curve"/>
      <point x="350.1804597701149" y="145.19195402298848"/>
      <point x="306.8218390804597" y="47.41954022988506"/>
      <point x="214.89080459770116" y="47.41954022988506" type="curve" smooth="yes"/>
      <point x="153.07701149425287" y="47.41954022988506"/>
      <point x="122.81954022988505" y="88.8264367816092"/>
      <point x="105.43793103448276" y="137.5770114942529" type="curve"/>
      <point x="81.09425287356322" y="131.4505747126437"/>
      <point x="67.2448275862069" y="110.87011494252873"/>
      <point x="67.2448275862069" y="84.00804597701149" type="curve" smooth="yes"/>
      <point x="67.2448275862069" y="36.86551724137931"/>
      <point x="102.96896551724139" y="-10.379310344827585"/>
    </contour>
    <contour>
      <point x="252.21264367816093" y="338.40919540229885" type="curve" smooth="yes"/>
      <point x="187.20919540229886" y="339.0540229885057"/>
      <point x="154.72528735632187" y="386.63448275862066"/>
      <point x="154.72528735632187" y="488.0" type="curve" smooth="yes"/>
      <point x="154.72528735632187" y="603.416091954023"/>
      <point x="188.44942528735632" y="665.5781609195403"/>
      <point x="248.6551724137931" y="665.5781609195403" type="curve" smooth="yes"/>
      <point x="313.8862068965517" y="665.5781609195403"/>
      <point x="354.81379310344823" y="590.5793103448276"/>
      <point x="357.5862068965517" y="408.967816091954" type="curve"/>
      <point x="339.4712643678161" y="371.9379310344828"/>
      <point x="305.21379310344827" y="339.0540229885057"/>
    </contour>
  </outline>
</glyph>
<glyph name="colon" format="2">
  <advance width="286.52068965517236"/>
  <unicode hex="003A"/>
  <outline>
    <contour>
      <point x="161.65977011494255" y="398.99425287356325" type="curve" smooth="yes"/>
      <point x="196.6264367816092" y="398.99425287356325"/>
      <point x="226.7057471264368" y="415.9574712643678"/>
      <point x="226.7057471264368" y="468.7965517241379" type="curve" smooth="yes"/>
      <point x="226.7057471264368" y="522.4965517241379"/>
      <point x="196.6264367816092" y="538.8264367816091"/>
      <point x="161.65977011494255" y="538.8264367816091" type="curve" smooth="yes"/>
      <point x="124.93333333333334" y="538.8264367816091"/>
      <point x="95.98045977011495" y="522.4965517241379"/>
      <point x="95.98045977011495" y="468.7965517241379" type="curve" smooth="yes"/>
      <point x="95.98045977011495" y="415.9574712643678"/>
      <point x="124.93333333333334" y="398.99425287356325"/>
    </contour>
    <contour>
      <point x="161.65977011494255" y="-7.620689655172414" type="curve" smooth="yes"/>
      <point x="196.6264367816092" y="-7.620689655172414"/>
      <point x="226.7057471264368" y="9.87471264367816"/>
      <point x="226.7057471264368" y="63.181609195402295" type="curve" smooth="yes"/>
      <point x="226.7057471264368" y="116.24827586206897"/>
      <point x="196.6264367816092" y="133.3505747126437"/>
      <point x="161.65977011494255" y="133.3505747126437" type="curve" smooth="yes"/>
      <point x="124.93333333333334" y="133.3505747126437"/>
      <point x="95.98045977011495" y="116.24827586206897"/>
      <point x="95.98045977011495" y="63.181609195402295" type="curve" smooth="yes"/>
      <point x="95.98045977011495" y="9.87471264367816"/>
      <point x="124.93333333333334" y="-7.620689655172414"/>
    </contour>
  </outline>
</glyph>
<glyph name="semicolon" format="2">
  <advance width="298.8632183908046"/>
  <unicode hex="003B"/>
  <outline>
    <contour>
      <point x="73.83908045977012" y="-154.0" type="line"/>
      <point x="186.7632183908046" y="-120.11264367816092"/>
      <point x="229.41379310344828" y="-46.263218390804596"/>
      <point x="229.41379310344828" y="35.97931034482759" type="curve" smooth="yes"/>
      <point x="229.41379310344828" y="97.67816091954023"/>
      <point x="198.84022988505748" y="133.3505747126437"/>
      <point x="153.89885057471264" y="133.3505747126437" type="curve" smooth="yes"/>
      <point x="119.42643678160918" y="133.3505747126437"/>
      <point x="91.53563218390804" y="111.24827586206897"/>
      <point x="91.53563218390804" y="72.39655172413794" type="curve" smooth="yes"/>
      <point x="91.53563218390804" y="7.289655172413793"/>
      <point x="157.49310344827586" y="14.013793103448277"/>
      <point x="157.49310344827586" y="-24.26551724137931" type="curve"/>
      <point x="157.49310344827586" y="-61.98735632183908"/>
      <point x="130.19885057471265" y="-89.43908045977012"/>
      <point x="73.83908045977012" y="-109.93333333333334" type="curve"/>
    </contour>
    <contour>
      <point x="161.93793103448277" y="398.99425287356325" type="curve" smooth="yes"/>
      <point x="196.87816091954025" y="398.99425287356325"/>
      <point x="227.61724137931031" y="415.9574712643678"/>
      <point x="227.61724137931031" y="468.7965517241379" type="curve" smooth="yes"/>
      <point x="227.61724137931031" y="522.4965517241379"/>
      <point x="196.87816091954025" y="538.8264367816091"/>
      <point x="161.93793103448277" y="538.8264367816091" type="curve" smooth="yes"/>
      <point x="124.8183908045977" y="538.8264367816091"/>
      <point x="96.49885057471265" y="522.4965517241379"/>
      <point x="96.49885057471265" y="468.7965517241379" type="curve" smooth="yes"/>
      <point x="96.49885057471265" y="415.9574712643678"/>
      <point x="124.8183908045977" y="398.99425287356325"/>
    </contour>
  </outline>
</glyph>
<glyph name="less" format="2">
  <advance width="509.8666666666667"/>
  <unicode hex="003C"/>
  <outline>
    <contour>
      <point x="454.07126436781607" y="108.2896551724138" type="line"/>
      <point x="454.07126436781607" y="178.20344827586206" type="line"/>
      <point x="146.2103448275862" y="357.0" type="line"/>
      <point x="454.07126436781607" y="537.935632183908" type="line"/>
      <point x="454.07126436781607" y="607.7103448275863" type="line"/>
      <point x="55.795402298850576" y="376.2413793103448" type="line"/>
      <point x="55.795402298850576" y="338.7586206896552" type="line"/>
    </contour>
  </outline>
</glyph>
<glyph name="equal" format="2">
  <advance width="509.8666666666667"/>
  <unicode hex="003D"/>
  <outline>
    <contour>
      <point x="54.947126436781616" y="422.1528735632184" type="line"/>
      <point x="455.3126436781609" y="422.1528735632184" type="line"/>
      <point x="455.3126436781609" y="484.0793103448276" type="line"/>
      <point x="54.947126436781616" y="484.0793103448276" type="line"/>
    </contour>
    <contour>
      <point x="54.947126436781616" y="229.68045977011494" type="line"/>
      <point x="455.3126436781609" y="229.68045977011494" type="line"/>
      <point x="455.3126436781609" y="291.8471264367816" type="line"/>
      <point x="54.947126436781616" y="291.8471264367816" type="line"/>
    </contour>
  </outline>
</glyph>
<glyph name="question" format="2">
  <advance width="480.12528735632185"/>
  <unicode hex="003F"/>
  <outline>
    <contour>
      <point x="186.70114942528735" y="215.14712643678163" type="line"/>
      <point x="249.33563218390807" y="215.14712643678163" type="line"/>
      <point x="259.7057471264368" y="319.26551724137937" type="line"/>
      <point x="380.71954022988507" y="372.15402298850574"/>
      <point x="440.9770114942529" y="433.8724137931035"/>
      <point x="440.9770114942529" y="542.3770114942529" type="curve" smooth="yes"/>
      <point x="440.9770114942529" y="657.251724137931"/>
      <point x="353.4344827586207" y="724.0"/>
      <point x="223.0367816091954" y="724.0" type="curve" smooth="yes"/>
      <point x="92.5367816091954" y="724.0"/>
      <point x="31.897701149425284" y="669.5770114942529"/>
      <point x="31.897701149425284" y="605.751724137931" type="curve" smooth="yes"/>
      <point x="31.897701149425284" y="555.3655172413793"/>
      <point x="72.67816091954023" y="536.1241379310345"/>
      <point x="138.8609195402299" y="536.1241379310345" type="curve"/>
      <point x="138.8609195402299" y="617.1988505747125"/>
      <point x="163.52068965517242" y="668.9942528735633"/>
      <point x="226.39195402298853" y="668.9942528735633" type="curve" smooth="yes"/>
      <point x="283.85747126436786" y="668.9942528735633"/>
      <point x="311.6804597701149" y="622.6586206896552"/>
      <point x="311.6804597701149" y="554.4827586206897" type="curve" smooth="yes"/>
      <point x="311.6804597701149" y="471.6471264367816"/>
      <point x="282.57931034482755" y="398.8137931034483"/>
      <point x="176.47011494252874" y="350.1022988505747" type="curve"/>
    </contour>
    <contour>
      <point x="216.26436781609195" y="-7.620689655172414" type="curve" smooth="yes"/>
      <point x="254.18275862068967" y="-7.620689655172414"/>
      <point x="286.3149425287356" y="10.508045977011495"/>
      <point x="286.3149425287356" y="66.41379310344827" type="curve" smooth="yes"/>
      <point x="286.3149425287356" y="122.55977011494254"/>
      <point x="254.18275862068967" y="140.44827586206895"/>
      <point x="216.26436781609195" y="140.44827586206895" type="curve" smooth="yes"/>
      <point x="178.01724137931038" y="140.44827586206895"/>
      <point x="147.47931034482758" y="122.55977011494254"/>
      <point x="147.47931034482758" y="66.41379310344827" type="curve" smooth="yes"/>
      <point x="147.47931034482758" y="10.508045977011495"/>
      <point x="178.01724137931038" y="-7.620689655172414"/>
    </contour>
  </outline>
</glyph>
<glyph name="bracketleft" format="2">
  <advance width="362.7011494252874"/>
  <unicode hex="005B"/>
  <outline>
    <contour>
      <point x="71.68045977011494" y="-128.0" type="line"/>
      <point x="302.4402298850575" y="-128.0" type="line"/>
      <point x="302.4402298850575" y="-82.44022988505748" type="line"/>
      <point x="261.15862068965515" y="-82.44022988505748" type="line" smooth="yes"/>
      <point x="219.5977011494253" y="-82.44022988505748"/>
      <point x="186.29080459770117" y="-73.44022988505748"/>
      <point x="186.29080459770117" y="-10.2" type="curve" smooth="yes"/>
      <point x="186.29080459770117" y="641.9597701149424" type="line" smooth="yes"/>
      <point x="186.29080459770117" y="705.4402298850574"/>
      <point x="219.5977011494253" y="714.4402298850574"/>
      <point x="261.15862068965515" y="714.4402298850574" type="curve" smooth="yes"/>
      <point x="302.4402298850575" y="714.4402298850574" type="line"/>
      <point x="302.4402298850575" y="760.0" type="line"/>
      <point x="71.68045977011494" y="760.0" type="line"/>
    </contour>
  </outline>
</glyph>
<glyph name="backslash" format="2">
  <advance width="267.5931034482759"/>
  <unicode hex="005C"/>
  <outline>
    <contour>
      <point x="207.72528735632184" y="-121.0" type="line"/>
      <point x="267.5931034482759" y="-121.0" type="line"/>
      <point x="59.234482758620686" y="760.0" type="line"/>
      <point x="0.0" y="760.0" type="line"/>
    </contour>
  </outline>
</glyph>
<glyph name="bracketright" format="2">
  <advance width="387.3793103448276"/>
  <unicode hex="005D"/>
  <outline>
    <contour>
      <point x="85.69885057471265" y="-128.0" type="line"/>
      <point x="315.45862068965516" y="-128.0" type="line"/>
      <point x="315.45862068965516" y="760.0" type="line"/>
      <point x="85.69885057471265" y="760.0" type="line"/>
      <point x="85.69885057471265" y="714.4402298850574" type="line"/>
      <point x="126.3735632183908" y="714.4402298850574" type="line" smooth="yes"/>
      <point x="168.5413793103448" y="714.4402298850574"/>
      <point x="201.48160919540229" y="705.4402298850574"/>
      <point x="201.48160919540229" y="641.9597701149424" type="curve" smooth="yes"/>
      <point x="201.48160919540229" y="-10.2" type="line" smooth="yes"/>
      <point x="201.48160919540229" y="-73.44022988505748"/>
      <point x="168.5413793103448" y="-82.44022988505748"/>
      <point x="126.3735632183908" y="-82.44022988505748" type="curve" smooth="yes"/>
      <point x="85.69885057471265" y="-82.44022988505748" type="line"/>
    </contour>
  </outline>
</glyph>
<glyph name="asciicircum" format="2">
  <advance width="509.5"/>
  <unicode hex="005E"/>
  <outline>
    <contour>
      <point x="40.07241379310345" y="265.13793103448273" type="line"/>
      <point x="106.19310344827586" y="265.13793103448273" type="line"/>
      <point x="253.43333333333334" y="617.8436781609195" type="line"/>
      <point x="402.3068965517241" y="265.13793103448273" type="line"/>
      <point x="468.16091954022994" y="265.13793103448273" type="line"/>
      <point x="271.56206896551726" y="714.0" type="line"/>
      <point x="236.3045977011494" y="714.0" type="line"/>
    </contour>
  </outline>
</glyph>
<glyph name="underscore" format="2">
  <advance width="426.16436781609195"/>
  <unicode hex="005F"/>
  <outline>
    <contour>
      <point x="-4.860919540229886" y="-140.88620689655173" type="line"/>
      <point x="430.7977011494253" y="-140.88620689655173" type="line"/>
      <point x="430.7977011494253" y="-83.0" type="line"/>
      <point x="-4.860919540229886" y="-83.0" type="line"/>
    </contour>
  </outline>
</glyph>
<glyph name="braceleft" format="2">
  <advance width="417.35862068965514"/>
  <unicode hex="007B"/>
  <outline>
    <contour>
      <point x="279.96436781609196" y="-126.75862068965517" type="curve" smooth="yes"/>
      <point x="353.5942528735632" y="-126.75862068965517" type="line"/>
      <point x="353.5942528735632" y="-80.81954022988506" type="line"/>
      <point x="321.24827586206897" y="-80.81954022988506" type="line" smooth="yes"/>
      <point x="267.80114942528735" y="-80.81954022988506"/>
      <point x="250.33218390804598" y="-44.44022988505747"/>
      <point x="250.33218390804598" y="21.710344827586205" type="curve" smooth="yes"/>
      <point x="250.33218390804598" y="193.86206896551724" type="line" smooth="yes"/>
      <point x="250.33218390804598" y="258.37931034482756"/>
      <point x="218.2919540229885" y="301.66896551724136"/>
      <point x="148.94367816091955" y="316.37931034482756" type="curve"/>
      <point x="148.94367816091955" y="320.0896551724138" type="line"/>
      <point x="218.26666666666668" y="334.04022988505744"/>
      <point x="250.33218390804598" y="376.86206896551727"/>
      <point x="250.33218390804598" y="440.37931034482756" type="curve" smooth="yes"/>
      <point x="250.33218390804598" y="611.619540229885" type="line" smooth="yes"/>
      <point x="250.33218390804598" y="678.9091954022988"/>
      <point x="267.80114942528735" y="714.0609195402299"/>
      <point x="321.8816091954023" y="714.0609195402299" type="curve" smooth="yes"/>
      <point x="353.5942528735632" y="714.0609195402299" type="line"/>
      <point x="353.5942528735632" y="760.0" type="line"/>
      <point x="279.96436781609196" y="760.0" type="line" smooth="yes"/>
      <point x="184.73908045977012" y="760.0"/>
      <point x="134.35402298850576" y="707.3793103448276"/>
      <point x="134.35402298850576" y="616.3919540229884" type="curve" smooth="yes"/>
      <point x="134.35402298850576" y="442.37931034482756" type="line" smooth="yes"/>
      <point x="134.35402298850576" y="363.4563218390805"/>
      <point x="86.91954022988506" y="343.5597701149425"/>
      <point x="25.686206896551724" y="341.5597701149425" type="curve"/>
      <point x="25.686206896551724" y="293.66896551724136" type="line"/>
      <point x="86.91954022988506" y="290.66896551724136"/>
      <point x="134.35402298850576" y="271.37931034482756"/>
      <point x="134.35402298850576" y="190.86206896551724" type="curve" smooth="yes"/>
      <point x="134.35402298850576" y="18.470114942528735" type="line" smooth="yes"/>
      <point x="134.35402298850576" y="-70.89770114942529"/>
      <point x="184.73908045977012" y="-126.75862068965517"/>
    </contour>
  </outline>
</glyph>
<glyph name="bar" format="2">
  <advance width="519.0459770114943"/>
  <unicode hex="007C"/>
  <outline>
    <contour>
      <point x="228.716091954023" y="-240.0" type="line"/>
      <point x="289.57011494252873" y="-240.0" type="line"/>
      <point x="289.57011494252873" y="760.0" type="line"/>
      <point x="228.716091954023" y="760.0" type="line"/>
    </contour>
  </outline>
</glyph>
<glyph name="braceright" format="2">
  <advance width="437.71264367816093"/>
  <unicode hex="007D"/>
  <outline>
    <contour>
      <point x="84.34597701149426" y="-126.75862068965517" type="line"/>
      <point x="158.35517241379313" y="-126.75862068965517" type="line" smooth="yes"/>
      <point x="253.58045977011497" y="-126.75862068965517"/>
      <point x="302.96551724137936" y="-70.89770114942529"/>
      <point x="302.96551724137936" y="18.470114942528735" type="curve" smooth="yes"/>
      <point x="302.96551724137936" y="190.86206896551724" type="line" smooth="yes"/>
      <point x="302.96551724137936" y="271.37931034482756"/>
      <point x="351.932183908046" y="290.66896551724136"/>
      <point x="412.4942528735632" y="293.66896551724136" type="curve"/>
      <point x="412.4942528735632" y="341.5597701149425" type="line"/>
      <point x="351.932183908046" y="343.5597701149425"/>
      <point x="302.96551724137936" y="363.4563218390805"/>
      <point x="302.96551724137936" y="442.37931034482756" type="curve" smooth="yes"/>
      <point x="302.96551724137936" y="616.3919540229884" type="line" smooth="yes"/>
      <point x="302.96551724137936" y="707.3793103448276"/>
      <point x="253.58045977011497" y="760.0"/>
      <point x="158.35517241379313" y="760.0" type="curve" smooth="yes"/>
      <point x="84.34597701149426" y="760.0" type="line"/>
      <point x="84.34597701149426" y="714.0609195402299" type="line"/>
      <point x="116.83103448275864" y="714.0609195402299" type="line" smooth="yes"/>
      <point x="171.05057471264365" y="714.0609195402299"/>
      <point x="187.6206896551724" y="678.9091954022988"/>
      <point x="187.6206896551724" y="611.619540229885" type="curve" smooth="yes"/>
      <point x="187.6206896551724" y="440.37931034482756" type="line" smooth="yes"/>
      <point x="187.6206896551724" y="376.86206896551727"/>
      <point x="220.4459770114943" y="334.04022988505744"/>
      <point x="290.135632183908" y="320.0896551724138" type="curve"/>
      <point x="290.135632183908" y="316.37931034482756" type="line"/>
      <point x="219.05402298850578" y="301.66896551724136"/>
      <point x="187.6206896551724" y="258.37931034482756"/>
      <point x="187.6206896551724" y="193.86206896551724" type="curve" smooth="yes"/>
      <point x="187.6206896551724" y="21.710344827586205" type="line" smooth="yes"/>
      <point x="187.6206896551724" y="-44.44022988505747"/>
      <point x="171.05057471264365" y="-80.81954022988506"/>
      <point x="117.07126436781608" y="-80.81954022988506" type="curve" smooth="yes"/>
      <point x="84.34597701149426" y="-80.81954022988506" type="line"/>
    </contour>
  </outline>
</glyph>
<glyph name="asciitilde" format="2">
  <advance width="509.8666666666667"/>
  <unicode hex="007E"/>
  <outline>
    <contour>
      <point x="41.1367816091954" y="266.66896551724136" type="curve"/>
      <point x="102.69885057471264" y="266.66896551724136" type="line"/>
      <point x="108.24252873563219" y="348.03678160919543"/>
      <point x="124.62413793103448" y="383.9471264367816"/>
      <point x="159.67701149425287" y="383.9471264367816" type="curve" smooth="yes"/>
      <point x="186.64252873563217" y="383.9471264367816"/>
      <point x="205.16206896551725" y="363.46436781609196"/>
      <point x="237.51839080459766" y="331.18850574712644" type="curve" smooth="yes"/>
      <point x="280.7712643678161" y="285.9908045977011"/>
      <point x="310.41954022988506" y="266.66896551724136"/>
      <point x="351.95977011494256" y="266.66896551724136" type="curve" smooth="yes"/>
      <point x="440.96896551724143" y="266.66896551724136"/>
      <point x="463.17126436781615" y="361.1091954022989"/>
      <point x="468.7413793103448" y="446.47011494252877" type="curve"/>
      <point x="406.4068965517241" y="446.47011494252877" type="line"/>
      <point x="400.3563218390804" y="368.2816091954023"/>
      <point x="386.2413793103448" y="329.1919540229885"/>
      <point x="351.72068965517246" y="329.1919540229885" type="curve" smooth="yes"/>
      <point x="326.93448275862073" y="329.1919540229885"/>
      <point x="307.1965517241379" y="349.8632183908046"/>
      <point x="276.7896551724138" y="379.8494252873563" type="curve" smooth="yes"/>
      <point x="230.13793103448276" y="424.67471264367816"/>
      <point x="202.44252873563218" y="446.47011494252877"/>
      <point x="159.3632183908046" y="446.47011494252877" type="curve" smooth="yes"/>
      <point x="69.40459770114943" y="446.47011494252877"/>
      <point x="46.14827586206897" y="355.24367816091956"/>
    </contour>
  </outline>
</glyph>
<glyph name="multiply" format="2">
  <advance width="509.62643678160924"/>
  <unicode hex="00D7"/>
  <outline>
    <contour>
      <point x="107.13218390804597" y="153.68505747126434" type="line"/>
      <point x="255.07816091954024" y="312.8091954022989" type="line"/>
      <point x="402.56896551724134" y="154.14022988505747" type="line"/>
      <point x="447.39310344827584" y="196.25862068965517" type="line"/>
      <point x="297.33563218390805" y="358.22758620689655" type="line"/>
      <point x="447.39310344827584" y="519.664367816092" type="line"/>
      <point x="402.3413793103448" y="561.9482758620688" type="line"/>
      <point x="255.07816091954024" y="403.93793103448274" type="line"/>
      <point x="107.49885057471265" y="561.9091954022988" type="line"/>
      <point x="61.91494252873563" y="520.2586206896552" type="line"/>
      <point x="212.95977011494253" y="358.8609195402299" type="line"/>
      <point x="61.91494252873563" y="196.29770114942528" type="line"/>
    </contour>
  </outline>
</glyph>
<glyph name="divide" format="2">
  <advance width="509.8666666666667"/>
  <unicode hex="00F7"/>
  <outline>
    <contour>
      <point x="55.795402298850576" y="326.52988505747123" type="line"/>
      <point x="454.07126436781607" y="326.52988505747123" type="line"/>
      <point x="454.07126436781607" y="388.7103448275862" type="line"/>
      <point x="55.795402298850576" y="388.7103448275862" type="line"/>
    </contour>
    <contour>
      <point x="255.43333333333334" y="112.1632183908046" type="curve" smooth="yes"/>
      <point x="283.20804597701147" y="112.1632183908046"/>
      <point x="305.18390804597703" y="127.01149425287356"/>
      <point x="305.18390804597703" y="168.8735632183908" type="curve" smooth="yes"/>
      <point x="305.18390804597703" y="211.73563218390805"/>
      <point x="283.20804597701147" y="225.583908045977"/>
      <point x="255.43333333333334" y="225.583908045977" type="curve" smooth="yes"/>
      <point x="226.43103448275863" y="225.583908045977"/>
      <point x="205.316091954023" y="211.73563218390805"/>
      <point x="205.316091954023" y="168.8735632183908" type="curve" smooth="yes"/>
      <point x="205.316091954023" y="127.01149425287356"/>
      <point x="226.43103448275863" y="112.1632183908046"/>
    </contour>
    <contour>
      <point x="255.43333333333334" y="490.0494252873563" type="curve" smooth="yes"/>
      <point x="283.20804597701147" y="490.0494252873563"/>
      <point x="305.18390804597703" y="504.264367816092"/>
      <point x="305.18390804597703" y="546.1264367816092" type="curve" smooth="yes"/>
      <point x="305.18390804597703" y="588.9885057471264"/>
      <point x="283.20804597701147" y="602.8367816091954"/>
      <point x="255.43333333333334" y="602.8367816091954" type="curve" smooth="yes"/>
      <point x="226.43103448275863" y="602.8367816091954"/>
      <point x="205.316091954023" y="588.9885057471264"/>
      <point x="205.316091954023" y="546.1264367816092" type="curve" smooth="yes"/>
      <point x="205.316091954023" y="504.264367816092"/>
      <point x="226.43103448275863" y="490.0494252873563"/>
    </contour>
  </outline>
</glyph>
<glyph name="udatta-deva" format="2">
  <unicode hex="0951"/>
  <anchor x="-299.0" y="-265.51724137931035" name="_vedic"/>
  <outline>
    <contour>
      <point x="-337.35057471264366" y="706.0" type="line"/>
      <point x="-261.05632183908045" y="706.0" type="line"/>
      <point x="-261.05632183908045" y="914.1034482758621" type="line"/>
      <point x="-337.35057471264366" y="914.1034482758621" type="line"/>
    </contour>
  </outline>
</glyph>
<glyph name="anudatta-deva" format="2">
  <unicode hex="0952"/>
  <anchor x="-299.0" y="402.42528735632186" name="_vedic"/>
  <outline>
    <contour>
      <point x="-508.8287356321839" y="-150.20689655172413" type="line"/>
      <point x="-88.56436781609194" y="-150.20689655172413" type="line"/>
      <point x="-88.56436781609194" y="-85.79310344827586" type="line"/>
      <point x="-508.8287356321839" y="-85.79310344827586" type="line"/>
    </contour>
  </outline>
</glyph>
<glyph name="danda-deva" format="2">
  <advance width="424.4643678160919"/>
  <unicode hex="0964"/>
  <outline>
    <contour>
      <point x="346.8091954022988" y="-30.448275862068968" type="line"/>
      <point x="352.91264367816086" y="-28.20689655172414" type="line"/>
      <point x="352.91264367816086" y="586.8620689655172" type="line"/>
      <point x="279.567816091954" y="623.8620689655172" type="line"/>
      <point x="276.567816091954" y="623.8620689655172" type="line"/>
      <point x="276.567816091954" y="3.1379310344827585" type="line"/>
    </contour>
  </outline>
</glyph>
<glyph name="dbldanda-deva" format="2">
  <advance width="587.6655172413793"/>
  <unicode hex="0965"/>
  <outline>
    <contour>
      <point x="510.6310344827586" y="-30.448275862068968" type="line"/>
      <point x="516.1137931034483" y="-28.20689655172414" type="line"/>
      <point x="516.1137931034483" y="586.8620689655172" type="line"/>
      <point x="443.38965517241377" y="623.8620689655172" type="line"/>
      <point x="440.38965517241377" y="623.8620689655172" type="line"/>
      <point x="440.38965517241377" y="3.1379310344827585" type="line"/>
    </contour>
    <contour>
      <point x="346.8091954022988" y="-30.448275862068968" type="line"/>
      <point x="352.91264367816086" y="-28.20689655172414" type="line"/>
      <point x="352.91264367816086" y="586.8620689655172" type="line"/>
      <point x="279.567816091954" y="623.8620689655172" type="line"/>
      <point x="276.567816091954" y="623.8620689655172" type="line"/>
      <point x="276.567816091954" y="3.1379310344827585" type="line"/>
    </contour>
  </outline>
</glyph>
<glyph name="anji-beng" format="2">
  <advance width="532.7103448275861"/>
  <unicode hex="0980"/>
  <anchor x="286.77816091954026" y="578.0689655172414" name="top"/>
  <outline>
    <contour>
      <point x="438.4448275862069" y="-21.26896551724138" type="curve" smooth="yes"/>
      <point x="486.4528735632184" y="-21.26896551724138"/>
      <point x="511.50689655172414" y="8.594252873563219"/>
      <point x="511.50689655172414" y="52.04252873563219" type="curve" smooth="yes"/>
      <point x="511.50689655172414" y="95.77011494252874"/>
      <point x="482.2747126436782" y="125.11379310344829"/>
      <point x="443.67586206896556" y="125.11379310344829" type="curve" smooth="yes"/>
      <point x="403.4275862068966" y="125.11379310344829"/>
      <point x="388.932183908046" y="97.0448275862069"/>
      <point x="386.67931034482757" y="68.03103448275863" type="curve"/>
      <point x="420.97931034482764" y="64.92758620689655" type="line"/>
      <point x="420.97931034482764" y="474.6896551724138" type="line" smooth="yes"/>
      <point x="420.97931034482764" y="559.8747126436782"/>
      <point x="364.29655172413794" y="627.5862068965517"/>
      <point x="263.3827586206897" y="627.5862068965517" type="curve" smooth="yes"/>
      <point x="143.6126436781609" y="627.5862068965517"/>
      <point x="50.3448275862069" y="538.0758620689655"/>
      <point x="50.3448275862069" y="412.9632183908046" type="curve" smooth="yes"/>
      <point x="50.3448275862069" y="289.0471264367816"/>
      <point x="130.05977011494252" y="221.54367816091954"/>
      <point x="217.07011494252876" y="221.54367816091954" type="curve" smooth="yes"/>
      <point x="278.6505747126436" y="221.54367816091954"/>
      <point x="312.4413793103448" y="257.7758620689656"/>
      <point x="312.4413793103448" y="311.50344827586207" type="curve" smooth="yes"/>
      <point x="312.4413793103448" y="365.2413793103449"/>
      <point x="280.64022988505747" y="396.3862068965517"/>
      <point x="234.32643678160917" y="396.3862068965517" type="curve" smooth="yes"/>
      <point x="191.92758620689656" y="396.3862068965517"/>
      <point x="161.77126436781612" y="366.47011494252877"/>
      <point x="161.77126436781612" y="320.60574712643677" type="curve" smooth="yes"/>
      <point x="161.77126436781612" y="305.65402298850574"/>
      <point x="164.53103448275863" y="289.0195402298851"/>
      <point x="168.7850574712644" y="279.89080459770116" type="curve"/>
      <point x="213.90689655172415" y="302.0195402298851" type="line"/>
      <point x="203.39885057471267" y="298.64022988505747"/>
      <point x="192.27011494252875" y="297.64022988505747"/>
      <point x="181.76206896551727" y="297.64022988505747" type="curve" smooth="yes"/>
      <point x="149.03563218390806" y="297.64022988505747"/>
      <point x="128.93103448275863" y="329.651724137931"/>
      <point x="128.93103448275863" y="383.7701149425287" type="curve" smooth="yes"/>
      <point x="128.93103448275863" y="476.35977011494253"/>
      <point x="226.88390804597702" y="545.8505747126436"/>
      <point x="291.16091954022994" y="545.8505747126436" type="curve" smooth="yes"/>
      <point x="331.46896551724143" y="545.8505747126436"/>
      <point x="345.96206896551723" y="525.0540229885057"/>
      <point x="345.96206896551723" y="483.5080459770115" type="curve" smooth="yes"/>
      <point x="345.96206896551723" y="94.80804597701149" type="line" smooth="yes"/>
      <point x="345.96206896551723" y="27.839080459770113"/>
      <point x="380.43448275862073" y="-21.26896551724138"/>
    </contour>
  </outline>
</glyph>
<glyph name="anusvara-beng" format="2">
  <advance width="357.11609195402303"/>
  <unicode hex="0982"/>
  <anchor x="-202.7206896551724" y="0.0" name="vedic"/>
  <outline>
    <contour>
      <point x="173.2080459770115" y="346.37931034482756" type="curve" smooth="yes"/>
      <point x="250.87701149425286" y="346.37931034482756"/>
      <point x="306.9103448275862" y="404.47011494252877"/>
      <point x="306.9103448275862" y="487.0689655172414" type="curve" smooth="yes"/>
      <point x="306.9103448275862" y="562.0344827586207"/>
      <point x="258.95402298850576" y="622.3793103448276"/>
      <point x="182.26091954022988" y="622.3793103448276" type="curve" smooth="yes"/>
      <point x="105.50344827586207" y="622.3793103448276"/>
      <point x="50.63563218390805" y="563.0344827586207"/>
      <point x="50.63563218390805" y="482.0689655172414" type="curve" smooth="yes"/>
      <point x="50.63563218390805" y="408.851724137931"/>
      <point x="97.03218390804598" y="346.37931034482756"/>
    </contour>
    <contour>
      <point x="148.54597701149424" y="409.6551724137931" type="curve" smooth="yes"/>
      <point x="130.48160919540229" y="409.6551724137931"/>
      <point x="115.316091954023" y="423.17241379310343"/>
      <point x="115.316091954023" y="447.27241379310345" type="curve" smooth="yes"/>
      <point x="115.316091954023" y="497.5988505747126"/>
      <point x="167.24827586206897" y="555.9655172413793"/>
      <point x="211.71954022988507" y="555.9655172413793" type="curve" smooth="yes"/>
      <point x="232.5448275862069" y="555.9655172413793"/>
      <point x="243.69770114942528" y="540.7022988505747"/>
      <point x="243.69770114942528" y="522.3103448275862" type="curve" smooth="yes"/>
      <point x="243.69770114942528" y="475.4011494252874"/>
      <point x="192.74022988505746" y="409.6551724137931"/>
    </contour>
    <contour>
      <point x="302.967816091954" y="-56.0" type="curve"/>
      <point x="343.28045977011493" y="-39.13793103448276" type="line"/>
      <point x="285.79080459770114" y="98.54137931034482"/>
      <point x="204.2367816091954" y="234.3896551724138"/>
      <point x="111.45287356321839" y="306.71379310344827" type="curve"/>
      <point x="49.128735632183904" y="200.10344827586206" type="line"/>
      <point x="140.54367816091954" y="144.79310344827587"/>
      <point x="209.51379310344828" y="89.09195402298852"/>
    </contour>
  </outline>
</glyph>
<glyph name="visarga-beng" format="2">
  <advance width="363.0494252873563"/>
  <unicode hex="0983"/>
  <anchor x="-202.7206896551724" y="0.0" name="vedic"/>
  <outline>
    <contour>
      <point x="175.9597701149425" y="345.5931034482758" type="curve" smooth="yes"/>
      <point x="255.5942528735632" y="345.5931034482758"/>
      <point x="312.80689655172415" y="404.0770114942529"/>
      <point x="312.80689655172415" y="487.0689655172414" type="curve" smooth="yes"/>
      <point x="312.80689655172415" y="562.8206896551724"/>
      <point x="264.06436781609193" y="623.1655172413793"/>
      <point x="185.0126436781609" y="623.1655172413793" type="curve" smooth="yes"/>
      <point x="106.68275862068965" y="623.1655172413793"/>
      <point x="50.63563218390805" y="563.8206896551724"/>
      <point x="50.63563218390805" y="482.0689655172414" type="curve" smooth="yes"/>
      <point x="50.63563218390805" y="408.45862068965516"/>
      <point x="98.21149425287356" y="345.5931034482758"/>
    </contour>
    <contour>
      <point x="151.69080459770112" y="408.86896551724135" type="curve" smooth="yes"/>
      <point x="133.62643678160921" y="408.86896551724135"/>
      <point x="118.06781609195401" y="422.3862068965517"/>
      <point x="118.06781609195401" y="446.0931034482759" type="curve" smooth="yes"/>
      <point x="118.06781609195401" y="496.8126436781609"/>
      <point x="169.60689655172416" y="556.7517241379311"/>
      <point x="214.4712643678161" y="556.7517241379311" type="curve" smooth="yes"/>
      <point x="235.68965517241378" y="556.7517241379311"/>
      <point x="246.8425287356322" y="541.4885057471264"/>
      <point x="246.8425287356322" y="523.096551724138" type="curve" smooth="yes"/>
      <point x="246.8425287356322" y="476.1873563218391"/>
      <point x="197.06436781609196" y="408.86896551724135"/>
    </contour>
    <contour>
      <point x="176.35287356321837" y="-8.077011494252874" type="curve" smooth="yes"/>
      <point x="255.20114942528735" y="-8.077011494252874"/>
      <point x="311.6275862068965" y="49.78620689655172"/>
      <point x="311.6275862068965" y="132.37241379310345" type="curve" smooth="yes"/>
      <point x="311.6275862068965" y="207.57816091954024"/>
      <point x="263.2781609195402" y="267.0620689655172"/>
      <point x="185.0126436781609" y="267.0620689655172" type="curve" smooth="yes"/>
      <point x="107.46896551724137" y="267.0620689655172"/>
      <point x="51.421839080459776" y="208.3505747126437"/>
      <point x="51.421839080459776" y="127.1448275862069" type="curve" smooth="yes"/>
      <point x="51.421839080459776" y="54.16781609195402"/>
      <point x="98.60459770114943" y="-8.077011494252874"/>
    </contour>
    <contour>
      <point x="152.08390804597698" y="54.17241379310345" type="curve" smooth="yes"/>
      <point x="133.62643678160921" y="54.17241379310345"/>
      <point x="118.46091954022988" y="67.46206896551723"/>
      <point x="118.46091954022988" y="91.39655172413792" type="curve" smooth="yes"/>
      <point x="118.46091954022988" y="142.35632183908046"/>
      <point x="169.60689655172416" y="201.66206896551722"/>
      <point x="214.4712643678161" y="201.66206896551722" type="curve" smooth="yes"/>
      <point x="235.29655172413797" y="201.66206896551722"/>
      <point x="246.44942528735635" y="186.39885057471264"/>
      <point x="246.44942528735635" y="168.64022988505747" type="curve" smooth="yes"/>
      <point x="246.44942528735635" y="121.73103448275863"/>
      <point x="197.06436781609196" y="54.17241379310345"/>
    </contour>
  </outline>
</glyph>
<glyph name="a-beng" format="2">
  <advance width="732.6632183908046"/>
  <unicode hex="0985"/>
  <anchor x="661.1218390804597" y="0.0" name="bottom"/>
  <anchor x="661.3494252873562" y="80.55172413793103" name="bottom.rakaar"/>
  <anchor x="661.1218390804597" y="11.379310344827585" name="bottom.rvocalic"/>
  <anchor x="642.8666666666667" y="10.96551724137931" name="bottom.virama"/>
  <anchor x="661.1218390804597" y="557.5862068965517" name="top"/>
  <anchor x="661.1218390804597" y="557.5862068965517" name="topright"/>
  <anchor x="366.14827586206894" y="0.0" name="vedic"/>
  <outline>
    <contour>
      <point x="653.1597701149426" y="-19.82758620689655" type="line"/>
      <point x="660.3885057471265" y="-18.20689655172414" type="line"/>
      <point x="660.3885057471265" y="557.5862068965517" type="line"/>
      <point x="763.9206896551725" y="557.5862068965517" type="line"/>
      <point x="726.6999999999999" y="622.0" type="line"/>
      <point x="-31.25747126436782" y="622.0" type="line"/>
      <point x="5.190804597701149" y="557.5862068965517" type="line"/>
      <point x="585.764367816092" y="557.5862068965517" type="line"/>
      <point x="585.764367816092" y="79.40114942528734" type="line"/>
      <point x="598.8540229885058" y="89.14367816091954" type="line"/>
      <point x="565.251724137931" y="166.27471264367816"/>
      <point x="521.8068965517242" y="213.18045977011494"/>
      <point x="476.54712643678164" y="244.47701149425288" type="curve"/>
      <point x="448.6597701149425" y="170.55747126436782" type="line"/>
      <point x="508.8137931034483" y="136.92758620689654"/>
      <point x="556.8264367816091" y="88.7551724137931"/>
      <point x="595.7781609195403" y="18.391954022988504" type="curve"/>
    </contour>
    <contour>
      <point x="322.7011494252873" y="66.11609195402299" type="curve" smooth="yes"/>
      <point x="439.30229885057474" y="66.11609195402299"/>
      <point x="511.2298850574712" y="153.17356321839083"/>
      <point x="511.2298850574712" y="286.86206896551727" type="curve" smooth="yes"/>
      <point x="511.2298850574712" y="404.5632183908046"/>
      <point x="442.2206896551724" y="503.7931034482759"/>
      <point x="311.6965517241379" y="503.7931034482759" type="curve" smooth="yes"/>
      <point x="235.47011494252874" y="503.7931034482759"/>
      <point x="184.06091954022986" y="462.2057471264368"/>
      <point x="184.06091954022986" y="390.2413793103448" type="curve" smooth="yes"/>
      <point x="184.06091954022986" y="327.13793103448273"/>
      <point x="226.54597701149424" y="285.3103448275862"/>
      <point x="285.8965517241379" y="285.3103448275862" type="curve" smooth="yes"/>
      <point x="346.92988505747127" y="285.3103448275862"/>
      <point x="379.2632183908046" y="330.932183908046"/>
      <point x="379.2632183908046" y="391.8965517241379" type="curve" smooth="yes"/>
      <point x="379.2632183908046" y="471.2206896551724"/>
      <point x="328.4298850574713" y="535.9310344827586"/>
      <point x="289.8045977011494" y="568.3103448275862" type="curve"/>
      <point x="150.4126436781609" y="566.9310344827586" type="line"/>
      <point x="268.1551724137931" y="535.9310344827586"/>
      <point x="308.2390804597701" y="473.6551724137931"/>
      <point x="318.22758620689655" y="389.55172413793105" type="curve"/>
      <point x="332.8735632183908" y="397.9310344827586"/>
      <point x="347.9781609195402" y="404.0344827586207"/>
      <point x="368.20919540229886" y="404.0344827586207" type="curve" smooth="yes"/>
      <point x="406.01264367816094" y="404.0344827586207"/>
      <point x="447.5747126436782" y="374.52988505747123"/>
      <point x="449.5620689655172" y="301.9655172413793" type="curve" smooth="yes"/>
      <point x="451.5494252873563" y="221.68965517241378"/>
      <point x="397.17471264367816" y="182.81954022988506"/>
      <point x="317.0781609195402" y="182.81954022988506" type="curve" smooth="yes"/>
      <point x="206.49885057471266" y="182.81954022988506"/>
      <point x="120.88045977011494" y="257.183908045977"/>
      <point x="61.15862068965517" y="485.95402298850576" type="curve"/>
      <point x="11.645977011494253" y="473.483908045977" type="line"/>
      <point x="76.84712643678161" y="177.69540229885058"/>
      <point x="180.6425287356322" y="66.11609195402299"/>
    </contour>
  </outline>
</glyph>
<glyph name="aa-beng" format="2">
  <advance width="945.0747126436781"/>
  <unicode hex="0986"/>
  <anchor x="660.6666666666666" y="0.0" name="bottom"/>
  <anchor x="660.43908045977" y="80.55172413793103" name="bottom.rakaar"/>
  <anchor x="660.43908045977" y="11.379310344827585" name="bottom.rvocalic"/>
  <anchor x="642.183908045977" y="10.96551724137931" name="bottom.virama"/>
  <anchor x="874.0655172413793" y="557.5862068965517" name="top"/>
  <anchor x="874.0655172413793" y="535.1724137931035" name="topright"/>
  <anchor x="472.3034482758621" y="0.0" name="vedic"/>
  <outline>
    <contour>
      <point x="653.1597701149426" y="-19.82758620689655" type="line"/>
      <point x="660.3885057471265" y="-18.20689655172414" type="line"/>
      <point x="660.3885057471265" y="557.5862068965517" type="line"/>
      <point x="724.8919540229886" y="557.5862068965517" type="line"/>
      <point x="687.8367816091953" y="622.0" type="line"/>
      <point x="-31.25747126436782" y="622.0" type="line"/>
      <point x="5.190804597701149" y="557.5862068965517" type="line"/>
      <point x="585.764367816092" y="557.5862068965517" type="line"/>
      <point x="585.764367816092" y="79.40114942528734" type="line"/>
      <point x="598.8540229885058" y="89.14367816091954" type="line"/>
      <point x="565.251724137931" y="166.27471264367816"/>
      <point x="521.8068965517242" y="213.18045977011494"/>
      <point x="476.54712643678164" y="244.47701149425288" type="curve"/>
      <point x="448.6597701149425" y="170.55747126436782" type="line"/>
      <point x="508.8137931034483" y="136.92758620689654"/>
      <point x="556.8264367816091" y="88.7551724137931"/>
      <point x="595.7781609195403" y="18.391954022988504" type="curve"/>
    </contour>
    <contour>
      <point x="322.7011494252873" y="66.11609195402299" type="curve" smooth="yes"/>
      <point x="439.30229885057474" y="66.11609195402299"/>
      <point x="511.2298850574712" y="153.17356321839083"/>
      <point x="511.2298850574712" y="286.86206896551727" type="curve" smooth="yes"/>
      <point x="511.2298850574712" y="404.5632183908046"/>
      <point x="442.2206896551724" y="503.7931034482759"/>
      <point x="311.6965517241379" y="503.7931034482759" type="curve" smooth="yes"/>
      <point x="235.47011494252874" y="503.7931034482759"/>
      <point x="184.06091954022986" y="462.2057471264368"/>
      <point x="184.06091954022986" y="390.2413793103448" type="curve" smooth="yes"/>
      <point x="184.06091954022986" y="327.13793103448273"/>
      <point x="226.54597701149424" y="285.3103448275862"/>
      <point x="285.8965517241379" y="285.3103448275862" type="curve" smooth="yes"/>
      <point x="346.92988505747127" y="285.3103448275862"/>
      <point x="379.2632183908046" y="330.932183908046"/>
      <point x="379.2632183908046" y="391.8965517241379" type="curve" smooth="yes"/>
      <point x="379.2632183908046" y="471.2206896551724"/>
      <point x="328.4298850574713" y="535.9310344827586"/>
      <point x="289.8045977011494" y="568.3103448275862" type="curve"/>
      <point x="150.4126436781609" y="566.9310344827586" type="line"/>
      <point x="268.1551724137931" y="535.9310344827586"/>
      <point x="308.2390804597701" y="473.6551724137931"/>
      <point x="318.22758620689655" y="389.55172413793105" type="curve"/>
      <point x="332.8735632183908" y="397.9310344827586"/>
      <point x="347.9781609195402" y="404.0344827586207"/>
      <point x="368.20919540229886" y="404.0344827586207" type="curve" smooth="yes"/>
      <point x="406.01264367816094" y="404.0344827586207"/>
      <point x="449.5620689655172" y="374.52988505747123"/>
      <point x="449.5620689655172" y="301.9655172413793" type="curve" smooth="yes"/>
      <point x="449.5620689655172" y="221.44942528735635"/>
      <point x="396.93448275862073" y="182.81954022988506"/>
      <point x="317.0781609195402" y="182.81954022988506" type="curve" smooth="yes"/>
      <point x="206.49885057471266" y="182.81954022988506"/>
      <point x="120.88045977011494" y="257.183908045977"/>
      <point x="61.15862068965517" y="485.95402298850576" type="curve"/>
      <point x="11.645977011494253" y="473.483908045977" type="line"/>
      <point x="76.84712643678161" y="177.69540229885058"/>
      <point x="180.6425287356322" y="66.11609195402299"/>
    </contour>
    <contour>
      <point x="866.7229885057471" y="-31.20689655172414" type="line"/>
      <point x="872.9655172413793" y="-29.586206896551722" type="line"/>
      <point x="872.9655172413793" y="557.5862068965517" type="line"/>
      <point x="976.3321839080461" y="557.5862068965517" type="line"/>
      <point x="938.6436781609195" y="622.0" type="line"/>
      <point x="867.7482758620689" y="622.0" type="line"/>
      <point x="861.1264367816092" y="672.448275862069" type="line"/>
      <point x="804.2655172413793" y="707.3103448275862" type="line"/>
      <point x="798.6310344827585" y="705.0689655172414" type="line"/>
      <point x="798.6310344827585" y="625.9126436781609" type="line" smooth="yes"/>
      <point x="798.6310344827585" y="602.7011494252873"/>
      <point x="801.8712643678161" y="551.8850574712643"/>
      <point x="806.403448275862" y="509.63908045977007" type="curve"/>
      <point x="813.6977011494253" y="511.9057471264368" type="line"/>
      <point x="801.5436781609196" y="589.2448275862068"/>
      <point x="768.6597701149425" y="622.0"/>
      <point x="727.9632183908046" y="622.0" type="curve" smooth="yes"/>
      <point x="676.9287356321839" y="622.0" type="line"/>
      <point x="714.1367816091954" y="557.5862068965517" type="line"/>
      <point x="737.6988505747125" y="557.5862068965517" type="line" smooth="yes"/>
      <point x="770.7586206896552" y="557.5862068965517"/>
      <point x="790.1885057471264" y="517.0620689655173"/>
      <point x="797.9482758620688" y="468.7310344827586" type="curve"/>
      <point x="797.9482758620688" y="1.7586206896551724" type="line"/>
    </contour>
  </outline>
</glyph>
<glyph name="i-beng" format="2">
  <advance width="456.6540229885058"/>
  <unicode hex="0987"/>
  <anchor x="274.6908045977012" y="66.27471264367816" name="bottom"/>
  <anchor x="391.6264367816092" y="-74.40229885057472" name="bottom.rakaar"/>
  <anchor x="341.8287356321839" y="63.93103448275862" name="bottom.rvocalic"/>
  <anchor x="260.8183908045977" y="68.27586206896552" name="bottom.virama"/>
  <anchor x="294.6333333333333" y="612.6551724137931" name="top"/>
  <anchor x="241.09885057471263" y="615.9321839080459" name="topright"/>
  <anchor x="228.14367816091956" y="0.0" name="vedic"/>
  <outline>
    <contour>
      <point x="347.51839080459774" y="603.3103448275862" type="curve"/>
      <point x="399.287356321839" y="603.3103448275862" type="line"/>
      <point x="394.71839080459773" y="740.516091954023"/>
      <point x="346.59655172413795" y="811.8827586206895"/>
      <point x="254.8264367816092" y="811.8827586206895" type="curve" smooth="yes"/>
      <point x="209.48850574712642" y="811.8827586206895"/>
      <point x="175.39540229885057" y="801.7816091954022"/>
      <point x="124.28735632183908" y="801.7816091954022" type="curve" smooth="yes"/>
      <point x="60.9103448275862" y="801.7816091954022"/>
      <point x="30.82183908045977" y="820.2264367816091"/>
      <point x="30.82183908045977" y="885.8045977011494" type="curve" smooth="yes"/>
      <point x="30.82183908045977" y="897.8298850574713"/>
      <point x="31.82183908045977" y="911.8551724137931"/>
      <point x="33.18850574712644" y="921.7160919540229" type="curve"/>
      <point x="-12.652873563218392" y="926.5643678160919" type="line"/>
      <point x="-16.260919540229885" y="905.3482758620689"/>
      <point x="-18.27471264367816" y="881.3586206896551"/>
      <point x="-18.27471264367816" y="858.3137931034482" type="curve" smooth="yes"/>
      <point x="-18.27471264367816" y="759.8942528735632"/>
      <point x="28.518390804597704" y="699.9287356321839"/>
      <point x="125.00919540229886" y="699.9287356321839" type="curve" smooth="yes"/>
      <point x="188.38735632183906" y="699.9287356321839"/>
      <point x="229.35862068965517" y="711.1954022988506"/>
      <point x="268.1850574712644" y="711.1954022988506" type="curve" smooth="yes"/>
      <point x="315.9229885057472" y="711.1954022988506"/>
      <point x="345.3551724137931" y="683.6425287356321"/>
    </contour>
    <component base="ha-beng"/>
  </outline>
</glyph>
<glyph name="ii-beng" format="2">
  <advance width="617.46091954023"/>
  <unicode hex="0988"/>
  <anchor x="544.9885057471264" y="-18.20689655172414" name="bottom"/>
  <anchor x="547.2298850574713" y="55.724137931034484" name="bottom.rakaar"/>
  <anchor x="530.3057471264368" y="-9.689655172413794" name="bottom.rvocalic"/>
  <anchor x="530.1022988505747" y="-23.586206896551726" name="bottom.virama"/>
  <anchor x="377.4218390804598" y="612.6551724137931" name="top"/>
  <anchor x="331.0241379310345" y="615.7931034482758" name="topright"/>
  <anchor x="308.61034482758623" y="0.0" name="vedic"/>
  <outline>
    <contour>
      <point x="504.07011494252873" y="-47.57241379310344" type="curve"/>
      <point x="549.1379310344828" y="-29.393103448275863" type="line"/>
      <point x="527.8080459770114" y="34.91034482758621"/>
      <point x="518.3896551724138" y="87.98275862068965"/>
      <point x="518.3896551724138" y="148.8310344827586" type="curve" smooth="yes"/>
      <point x="518.3896551724138" y="235.26436781609192"/>
      <point x="541.5954022988506" y="324.09655172413795"/>
      <point x="585.335632183908" y="401.2413793103448" type="curve"/>
      <point x="480.9402298850574" y="488.9632183908046" type="line"/>
      <point x="394.05632183908045" y="422.0264367816092"/>
      <point x="349.8149425287356" y="350.24712643678157"/>
      <point x="306.7206896551724" y="273.6620689655173" type="curve"/>
      <point x="346.1574712643678" y="268.01264367816094" type="line"/>
      <point x="350.1586206896552" y="284.8770114942528"/>
      <point x="351.38620689655176" y="305.9931034482758"/>
      <point x="351.38620689655176" y="322.667816091954" type="curve" smooth="yes"/>
      <point x="351.38620689655176" y="416.7494252873563"/>
      <point x="304.9011494252874" y="501.7931034482759"/>
      <point x="171.1080459770115" y="501.7931034482759" type="curve" smooth="yes"/>
      <point x="90.70574712643678" y="501.7931034482759"/>
      <point x="46.59770114942528" y="464.44827586206895"/>
      <point x="46.59770114942528" y="403.62068965517244" type="curve" smooth="yes"/>
      <point x="46.59770114942528" y="346.0689655172414"/>
      <point x="84.27586206896551" y="312.2068965517241"/>
      <point x="136.6367816091954" y="312.2068965517241" type="curve" smooth="yes"/>
      <point x="190.65632183908045" y="312.2068965517241"/>
      <point x="224.97816091954022" y="350.5770114942529"/>
      <point x="224.75057471264367" y="415.2528735632184" type="curve" smooth="yes"/>
      <point x="224.29540229885058" y="471.90804597701145"/>
      <point x="186.9080459770115" y="538.4137931034483"/>
      <point x="154.85402298850573" y="564.5862068965517" type="curve"/>
      <point x="35.916091954022995" y="564.5862068965517" type="line"/>
      <point x="82.54367816091954" y="548.448275862069"/>
      <point x="133.5310344827586" y="513.9448275862069"/>
      <point x="160.94367816091955" y="463.0344827586207" type="curve"/>
      <point x="127.24827586206897" y="390.37931034482756" type="line"/>
      <point x="152.55172413793102" y="409.37931034482756"/>
      <point x="180.39080459770113" y="421.73793103448276"/>
      <point x="211.55747126436782" y="421.73793103448276" type="curve" smooth="yes"/>
      <point x="269.6252873563218" y="421.73793103448276"/>
      <point x="293.0206896551724" y="383.7632183908046"/>
      <point x="293.0206896551724" y="332.2448275862069" type="curve" smooth="yes"/>
      <point x="293.0206896551724" y="297.1551724137931"/>
      <point x="283.083908045977" y="260.0091954022989"/>
      <point x="263.96781609195403" y="229.31379310344826" type="curve" smooth="yes"/>
      <point x="241.07931034482758" y="192.07356321839083"/>
      <point x="214.44367816091955" y="175.50344827586207"/>
      <point x="179.09195402298852" y="175.50344827586207" type="curve" smooth="yes"/>
      <point x="146.2919540229885" y="175.50344827586207"/>
      <point x="118.3919540229885" y="197.76781609195402"/>
      <point x="92.88275862068966" y="248.48850574712642" type="curve"/>
      <point x="48.811494252873565" y="227.49655172413793" type="line"/>
      <point x="90.22068965517241" y="122.64827586206897"/>
      <point x="142.35402298850573" y="67.5448275862069"/>
      <point x="210.8758620689655" y="67.5448275862069" type="curve" smooth="yes"/>
      <point x="276.3540229885058" y="67.5448275862069"/>
      <point x="319.1965517241379" y="122.29425287356321"/>
      <point x="368.4114942528736" y="198.1862068965517" type="curve" smooth="yes"/>
      <point x="412.7298850574712" y="266.1183908045977"/>
      <point x="451.2114942528736" y="329.2609195402299"/>
      <point x="517.3931034482758" y="393.1804597701149" type="curve"/>
      <point x="490.54942528735626" y="403.28275862068966" type="line"/>
      <point x="462.1919540229885" y="333.6275862068966"/>
      <point x="446.7057471264368" y="265.7896551724138"/>
      <point x="446.7057471264368" y="193.30459770114942" type="curve" smooth="yes"/>
      <point x="446.7057471264368" y="105.06206896551724"/>
      <point x="471.2057471264368" y="24.919540229885058"/>
    </contour>
    <contour>
      <point x="5.190804597701149" y="557.5862068965517" type="line"/>
      <point x="648.7183908045977" y="557.5862068965517" type="line"/>
      <point x="612.2574712643677" y="622.0" type="line"/>
      <point x="-31.25747126436782" y="622.0" type="line"/>
    </contour>
    <contour>
      <point x="479.4816091954023" y="603.3103448275862" type="curve"/>
      <point x="531.8068965517242" y="603.3103448275862" type="line"/>
      <point x="520.5919540229885" y="738.3793103448276"/>
      <point x="475.5563218390805" y="815.655172413793"/>
      <point x="361.048275862069" y="815.655172413793" type="curve" smooth="yes"/>
      <point x="304.17931034482757" y="815.655172413793"/>
      <point x="266.8390804597701" y="803.9448275862069"/>
      <point x="201.25287356321837" y="803.9448275862069" type="curve" smooth="yes"/>
      <point x="123.78850574712644" y="803.9448275862069"/>
      <point x="90.74827586206897" y="821.9724137931034"/>
      <point x="90.74827586206897" y="890.8758620689655" type="curve" smooth="yes"/>
      <point x="90.74827586206897" y="899.6252873563218"/>
      <point x="90.97586206896551" y="911.1080459770114"/>
      <point x="92.73563218390804" y="921.8551724137931" type="curve"/>
      <point x="47.64022988505747" y="926.703448275862" type="line"/>
      <point x="43.39885057471265" y="905.9931034482759"/>
      <point x="41.41149425287357" y="884.7735632183908"/>
      <point x="41.41149425287357" y="863.8965517241379" type="curve" smooth="yes"/>
      <point x="41.41149425287357" y="762.035632183908"/>
      <point x="96.30344827586207" y="700.296551724138"/>
      <point x="209.35517241379313" y="700.296551724138" type="curve" smooth="yes"/>
      <point x="280.60344827586204" y="700.296551724138"/>
      <point x="334.7022988505747" y="713.6275862068966"/>
      <point x="385.50804597701153" y="713.6275862068966" type="curve" smooth="yes"/>
      <point x="446.5655172413793" y="713.6275862068966"/>
      <point x="471.26666666666665" y="683.2758620689655"/>
    </contour>
  </outline>
</glyph>
<glyph name="u-beng" format="2">
  <advance width="575.4770114942529"/>
  <unicode hex="0989"/>
  <anchor x="443.3494252873563" y="12.73103448275862" name="bottom"/>
  <anchor x="495.3321839080459" y="-8.001149425287357" name="bottom.rakaar"/>
  <anchor x="426.51264367816094" y="38.73218390804598" name="bottom.rvocalic"/>
  <anchor x="369.6574712643678" y="5.283908045977012" name="bottom.virama"/>
  <anchor x="353.21494252873566" y="609.7793103448276" name="top"/>
  <anchor x="294.2448275862069" y="616.1597701149425" name="topright"/>
  <anchor x="287.66896551724136" y="0.0" name="vedic"/>
  <anchor x="309.7471264367816" y="-90.55172413793103" name="nukta"/>
  <outline>
    <contour>
      <point x="456.2781609195402" y="603.3103448275862" type="curve"/>
      <point x="508.37586206896555" y="603.3103448275862" type="line"/>
      <point x="497.08160919540234" y="739.7563218390804"/>
      <point x="449.55632183908045" y="812.3885057471264"/>
      <point x="342.37356321839076" y="812.3885057471264" type="curve" smooth="yes"/>
      <point x="290.3137931034483" y="812.3885057471264"/>
      <point x="255.14942528735634" y="803.1609195402298"/>
      <point x="200.78965517241377" y="803.1609195402298" type="curve" smooth="yes"/>
      <point x="121.21839080459769" y="803.1609195402298"/>
      <point x="89.05057471264368" y="822.7298850574713"/>
      <point x="89.05057471264368" y="886.551724137931" type="curve" smooth="yes"/>
      <point x="89.05057471264368" y="896.2862068965517"/>
      <point x="89.8103448275862" y="909.1977011494254"/>
      <point x="91.17701149425287" y="921.3229885057472" type="curve"/>
      <point x="45.07011494252874" y="926.5643678160919" type="line"/>
      <point x="40.82873563218391" y="904.8160919540229"/>
      <point x="39.208045977011494" y="883.3689655172415"/>
      <point x="39.208045977011494" y="861.5954022988506" type="curve" smooth="yes"/>
      <point x="39.208045977011494" y="761.5034482758621"/>
      <point x="93.96091954022988" y="700.4091954022989"/>
      <point x="207.08045977011494" y="700.4091954022989" type="curve" smooth="yes"/>
      <point x="271.83448275862065" y="700.4091954022989"/>
      <point x="319.4080459770115" y="711.0298850574713"/>
      <point x="360.2735632183908" y="711.0298850574713" type="curve" smooth="yes"/>
      <point x="420.6275862068966" y="711.0298850574713"/>
      <point x="447.1379310344828" y="683.1103448275862"/>
    </contour>
    <component base="dda-beng"/>
  </outline>
</glyph>
<glyph name="uu-beng" format="2">
  <advance width="652.4367816091955"/>
  <unicode hex="098A"/>
  <anchor x="514.1931034482759" y="8.551724137931032" name="bottom"/>
  <anchor x="566.1758620689654" y="-11.586206896551724" name="bottom.rakaar"/>
  <anchor x="497.12873563218386" y="34.41379310344827" name="bottom.rvocalic"/>
  <anchor x="439.76781609195405" y="1.5862068965517242" name="bottom.virama"/>
  <anchor x="401.6" y="611.4137931034483" name="top"/>
  <anchor x="377.45862068965516" y="615.7931034482758" name="topright"/>
  <anchor x="326.10459770114943" y="0.0" name="vedic"/>
  <outline>
    <contour>
      <point x="404.2080459770115" y="20.49655172413793" type="curve" smooth="yes"/>
      <point x="553.5149425287357" y="20.49655172413793"/>
      <point x="624.1057471264368" y="118.73218390804598"/>
      <point x="624.1057471264368" y="251.15862068965515" type="curve" smooth="yes"/>
      <point x="624.1057471264368" y="353.8333333333333"/>
      <point x="585.822988505747" y="426.61149425287357"/>
      <point x="531.0586206896552" y="476.71494252873566" type="curve"/>
      <point x="488.80689655172415" y="405.96551724137936"/>
      <point x="437.2827586206896" y="356.48850574712645"/>
      <point x="394.5873563218391" y="356.48850574712645" type="curve" smooth="yes"/>
      <point x="377.5344827586207" y="356.48850574712645"/>
      <point x="364.55747126436785" y="364.85402298850573"/>
      <point x="364.55747126436785" y="385.7298850574713" type="curve" smooth="yes"/>
      <point x="364.55747126436785" y="557.5862068965517" type="line"/>
      <point x="683.6942528735632" y="557.5862068965517" type="line"/>
      <point x="645.4862068965518" y="622.0" type="line"/>
      <point x="-31.25747126436782" y="622.0" type="line"/>
      <point x="6.583908045977012" y="557.5862068965517" type="line"/>
      <point x="289.93333333333334" y="557.5862068965517" type="line"/>
      <point x="289.93333333333334" y="378.5793103448276" type="line" smooth="yes"/>
      <point x="289.93333333333334" y="337.77586206896547"/>
      <point x="302.10229885057475" y="308.72298850574714"/>
      <point x="325.31954022988504" y="285.7586206896552" type="curve" smooth="yes"/>
      <point x="347.2977011494253" y="264.1862068965517"/>
      <point x="375.848275862069" y="251.32298850574713"/>
      <point x="410.24597701149423" y="251.32298850574713" type="curve" smooth="yes"/>
      <point x="468.59195402298855" y="251.32298850574713"/>
      <point x="534.6908045977011" y="298.9701149425287"/>
      <point x="576.4839080459769" y="369.6942528735632" type="curve"/>
      <point x="529.2597701149425" y="366.6379310344828" type="line"/>
      <point x="551.7804597701149" y="346.05172413793105"/>
      <point x="565.5045977011495" y="318.44367816091955"/>
      <point x="565.5045977011495" y="273.82298850574716" type="curve" smooth="yes"/>
      <point x="565.5045977011495" y="190.45517241379312"/>
      <point x="510.12758620689664" y="134.77011494252875"/>
      <point x="420.8885057471264" y="133.65632183908045" type="curve" smooth="yes"/>
      <point x="271.42528735632186" y="131.6689655172414"/>
      <point x="224.60919540229884" y="283.70344827586206"/>
      <point x="169.84367816091952" y="496.80689655172415" type="curve"/>
      <point x="122.14022988505747" y="483.3379310344828" type="line"/>
      <point x="156.07816091954027" y="307.3931034482759"/>
      <point x="192.57586206896553" y="195.1528735632184"/>
      <point x="256.264367816092" y="121.32413793103449" type="curve"/>
      <point x="290.6873563218391" y="124.2896551724138" type="line"/>
      <point x="192.2206896551724" y="156.53103448275863"/>
      <point x="123.23908045977012" y="275.8965517241379"/>
      <point x="61.61264367816093" y="493.0827586206897" type="curve"/>
      <point x="13.909195402298852" y="479.84137931034485" type="line"/>
      <point x="78.83908045977012" y="170.6344827586207"/>
      <point x="205.99310344827586" y="20.49655172413793"/>
    </contour>
    <contour>
      <point x="531.7770114942529" y="603.3103448275862" type="curve"/>
      <point x="583.9632183908046" y="603.3103448275862" type="line"/>
      <point x="571.9620689655172" y="738.3793103448276"/>
      <point x="517.0793103448276" y="817.6275862068965"/>
      <point x="400.34022988505745" y="817.6275862068965" type="curve" smooth="yes"/>
      <point x="330.12528735632185" y="817.6275862068965"/>
      <point x="286.9597701149425" y="799.7540229885058"/>
      <point x="198.5045977011494" y="799.7540229885058" type="curve" smooth="yes"/>
      <point x="120.18735632183909" y="799.7540229885058"/>
      <point x="91.66666666666667" y="823.1229885057472"/>
      <point x="91.66666666666667" y="886.551724137931" type="curve" smooth="yes"/>
      <point x="91.66666666666667" y="896.6793103448276"/>
      <point x="92.42643678160918" y="909.5908045977012"/>
      <point x="93.79310344827586" y="921.7160919540229" type="curve"/>
      <point x="47.44597701149425" y="926.5643678160919" type="line"/>
      <point x="43.837931034482764" y="905.2091954022989"/>
      <point x="41.59655172413794" y="883.7620689655172"/>
      <point x="41.59655172413794" y="861.5954022988506" type="curve" smooth="yes"/>
      <point x="41.59655172413794" y="759.2758620689655"/>
      <point x="92.30919540229885" y="697.7885057471264"/>
      <point x="209.69885057471268" y="697.7885057471264" type="curve" smooth="yes"/>
      <point x="299.1126436781609" y="697.7885057471264"/>
      <point x="349.20919540229886" y="717.2827586206896"/>
      <point x="418.735632183908" y="717.2827586206896" type="curve" smooth="yes"/>
      <point x="487.92183908045973" y="717.2827586206896"/>
      <point x="522.2701149425287" y="683.2758620689655"/>
    </contour>
  </outline>
</glyph>
<glyph name="rVocalic-beng" format="2">
  <advance width="712.5747126436781"/>
  <unicode hex="098B"/>
  <anchor x="482.92873563218393" y="0.0" name="bottom"/>
  <anchor x="482.92873563218393" y="80.55172413793103" name="bottom.rakaar"/>
  <anchor x="413.41839080459766" y="118.38735632183908" name="bottom.rvocalic"/>
  <anchor x="464.3068965517241" y="10.96551724137931" name="bottom.virama"/>
  <anchor x="482.92873563218393" y="557.5862068965517" name="top"/>
  <anchor x="485.56206896551726" y="557.5862068965517" name="topright"/>
  <anchor x="356.1735632183908" y="0.0" name="vedic"/>
  <outline>
    <contour>
      <point x="475.30689655172415" y="-22.972413793103453" type="line"/>
      <point x="482.92873563218393" y="-20.958620689655174" type="line"/>
      <point x="482.92873563218393" y="640.8965517241379" type="line"/>
      <point x="413.5459770114942" y="683.5862068965517" type="line"/>
      <point x="407.9114942528735" y="681.9655172413793" type="line"/>
      <point x="407.9114942528735" y="449.1172413793103" type="line"/>
      <point x="415.9390804597701" y="488.3091954022989" type="line"/>
      <point x="296.12068965517244" y="447.59195402298855"/>
      <point x="179.88735632183906" y="391.75402298850577"/>
      <point x="77.20689655172416" y="324.42068965517245" type="curve"/>
      <point x="131.27011494252875" y="195.51724137931035" type="line"/>
      <point x="253.0781609195402" y="180.53793103448274"/>
      <point x="354.69310344827585" y="126.76091954022988"/>
      <point x="417.9252873563218" y="15.640229885057472" type="curve"/>
    </contour>
    <contour>
      <point x="407.9114942528735" y="76.64942528735632" type="line"/>
      <point x="421.00114942528734" y="85.99885057471265" type="line"/>
      <point x="360.8459770114943" y="220.39310344827587"/>
      <point x="255.08505747126438" y="262.46206896551723"/>
      <point x="166.63563218390806" y="284.2758620689655" type="curve"/>
      <point x="179.24942528735633" y="249.5977011494253" type="line"/>
      <point x="245.0758620689655" y="300.2183908045977"/>
      <point x="341.91494252873565" y="346.0"/>
      <point x="422.00344827586207" y="371.8344827586207" type="curve"/>
      <point x="407.9114942528735" y="398.4689655172414" type="line"/>
    </contour>
    <contour>
      <point x="131.61724137931034" y="427.85977011494253" type="curve" smooth="yes"/>
      <point x="198.10919540229884" y="427.85977011494253"/>
      <point x="281.6712643678161" y="462.2149425287356"/>
      <point x="330.06666666666666" y="540.0425287356321" type="curve"/>
      <point x="295.21724137931034" y="539.1724137931035" type="line"/>
      <point x="321.016091954023" y="515.2620689655173"/>
      <point x="338.0563218390804" y="489.8574712643678"/>
      <point x="363.8402298850575" y="442.7586206896552" type="curve"/>
      <point x="406.42988505747127" y="453.62068965517244" type="line"/>
      <point x="377.22873563218394" y="530.8954022988506"/>
      <point x="338.98275862068965" y="592.080459770115"/>
      <point x="290.3183908045977" y="629.4597701149426" type="curve"/>
      <point x="243.0620689655172" y="551.3137931034482"/>
      <point x="180.65287356321838" y="518.2804597701149"/>
      <point x="132.62873563218392" y="518.2804597701149" type="curve" smooth="yes"/>
      <point x="120.94252873563217" y="518.2804597701149"/>
      <point x="107.18275862068965" y="521.4459770114943"/>
      <point x="99.50919540229886" y="524.7379310344827" type="curve"/>
      <point x="136.79540229885058" y="482.4574712643678" type="line"/>
      <point x="154.7977011494253" y="499.0781609195402"/>
      <point x="161.05172413793105" y="514.4586206896553"/>
      <point x="161.05172413793105" y="541.5609195402299" type="curve" smooth="yes"/>
      <point x="161.05172413793105" y="577.1816091954023"/>
      <point x="137.8977011494253" y="606.5264367816092"/>
      <point x="93.01839080459771" y="606.5264367816092" type="curve" smooth="yes"/>
      <point x="47.331034482758625" y="606.5264367816092"/>
      <point x="19.44137931034483" y="576.7896551724139"/>
      <point x="19.44137931034483" y="528.4459770114944" type="curve" smooth="yes"/>
      <point x="19.44137931034483" y="460.83678160919544"/>
      <point x="71.59310344827585" y="427.85977011494253"/>
    </contour>
    <contour>
      <point x="633.9448275862069" y="68.11379310344827" type="line"/>
      <point x="640.3" y="69.73448275862069" type="line"/>
      <point x="640.3" y="557.5862068965517" type="line"/>
      <point x="743.832183908046" y="557.5862068965517" type="line"/>
      <point x="705.9781609195403" y="622.0" type="line"/>
      <point x="635.0827586206897" y="622.0" type="line"/>
      <point x="628.8540229885058" y="672.448275862069" type="line"/>
      <point x="571.9931034482759" y="707.3103448275862" type="line"/>
      <point x="566.1310344827587" y="705.0689655172414" type="line"/>
      <point x="566.1310344827587" y="169.53563218390804" type="line"/>
      <point x="579.2206896551724" y="179.05057471264368" type="line"/>
      <point x="546.7183908045978" y="256.6080459770115"/>
      <point x="505.1620689655172" y="302.2310344827587"/>
      <point x="454.25632183908044" y="337.77356321839085" type="curve"/>
      <point x="445.9505747126437" y="247.84137931034482" type="line"/>
      <point x="501.25287356321843" y="216.4873563218391"/>
      <point x="541.2540229885058" y="171.9241379310345"/>
      <point x="576.1448275862069" y="106.72643678160918" type="curve"/>
    </contour>
  </outline>
</glyph>
<glyph name="lVocalic-beng" format="2">
  <advance width="498.667816091954"/>
  <unicode hex="098C"/>
  <anchor x="374.39310344827584" y="557.5862068965517" name="top"/>
  <anchor x="248.95402298850578" y="0.0" name="vedic"/>
  <outline>
    <contour>
      <point x="284.55057471264365" y="1.2413793103448256" type="line"/>
      <point x="377.34597701149426" y="18.89655172413793"/>
      <point x="479.1229885057472" y="112.50804597701149"/>
      <point x="479.1229885057472" y="275.70344827586206" type="curve" smooth="yes"/>
      <point x="479.1229885057472" y="420.0022988505747"/>
      <point x="410.88505747126436" y="472.88965517241377"/>
      <point x="267.7517241379311" y="506.5448275862069" type="curve" smooth="yes"/>
      <point x="184.51724137931035" y="526.6816091954023"/>
      <point x="127.60000000000001" y="542.4793103448276"/>
      <point x="127.60000000000001" y="617.7471264367815" type="curve" smooth="yes"/>
      <point x="127.60000000000001" y="646.4816091954024"/>
      <point x="134.01724137931035" y="671.3793103448276"/>
      <point x="144.63793103448276" y="698.6206896551724" type="curve"/>
      <point x="98.94942528735632" y="713.8620689655172" type="line"/>
      <point x="82.1793103448276" y="680.1597701149426"/>
      <point x="65.05747126436782" y="630.4919540229885"/>
      <point x="65.05747126436782" y="580.6494252873563" type="curve" smooth="yes"/>
      <point x="65.05747126436782" y="465.6183908045977"/>
      <point x="131.34367816091955" y="427.13563218390806"/>
      <point x="251.25517241379313" y="400.7586206896552" type="curve" smooth="yes"/>
      <point x="355.5459770114942" y="377.4954022988506"/>
      <point x="418.70804597701147" y="360.2080459770115"/>
      <point x="418.70804597701147" y="250.09080459770115" type="curve" smooth="yes"/>
      <point x="418.70804597701147" y="176.9873563218391"/>
      <point x="381.25977011494257" y="113.92068965517241"/>
      <point x="328.62068965517244" y="103.89885057471264" type="curve"/>
      <point x="367.5275862068965" y="79.79310344827586" type="line"/>
      <point x="368.29999999999995" y="205.82758620689654"/>
      <point x="314.4804597701149" y="321.2068965517241"/>
      <point x="193.8977011494253" y="321.2068965517241" type="curve" smooth="yes"/>
      <point x="92.61379310344827" y="321.2068965517241"/>
      <point x="43.50919540229885" y="247.1103448275862"/>
      <point x="43.50919540229885" y="162.75172413793103" type="curve" smooth="yes"/>
      <point x="43.50919540229885" y="66.59540229885057"/>
      <point x="92.6287356321839" y="17.379310344827587"/>
      <point x="155.76436781609195" y="17.379310344827587" type="curve" smooth="yes"/>
      <point x="206.47931034482758" y="17.379310344827587"/>
      <point x="229.1022988505747" y="53.8"/>
      <point x="229.1022988505747" y="95.06896551724138" type="curve" smooth="yes"/>
      <point x="229.1022988505747" y="138.26206896551724"/>
      <point x="200.21264367816093" y="166.75862068965517"/>
      <point x="160.5609195402299" y="166.75862068965517" type="curve" smooth="yes"/>
      <point x="125.72068965517242" y="166.75862068965517"/>
      <point x="95.11954022988505" y="141.27586206896552"/>
      <point x="95.10689655172413" y="108.93103448275862" type="curve"/>
      <point x="142.97701149425288" y="106.84022988505748" type="line"/>
      <point x="122.84827586206896" y="114.58620689655173"/>
      <point x="107.69540229885058" y="133.57241379310344"/>
      <point x="107.69540229885058" y="167.10344827586206" type="curve" smooth="yes"/>
      <point x="107.69540229885058" y="204.34367816091952"/>
      <point x="133.9896551724138" y="234.24137931034483"/>
      <point x="177.53793103448274" y="234.24137931034483" type="curve" smooth="yes"/>
      <point x="254.7" y="234.24137931034483"/>
      <point x="281.31034482758616" y="138.90919540229885"/>
      <point x="281.31034482758616" y="53.758620689655174" type="curve" smooth="yes"/>
      <point x="281.31034482758616" y="37.227586206896554"/>
      <point x="280.4494252873563" y="21.468965517241376"/>
      <point x="278.05632183908045" y="5.862068965517242" type="curve"/>
    </contour>
  </outline>
</glyph>
<glyph name="e-beng" format="2">
  <advance width="614.3735632183908"/>
  <unicode hex="098F"/>
  <anchor x="550.6735632183908" y="0.0" name="bottom"/>
  <anchor x="550.6735632183908" y="-1.9655172413793105" name="bottom.rvocalic"/>
  <anchor x="532.4183908045977" y="7.241379310344827" name="bottom.virama"/>
  <anchor x="463.6793103448276" y="557.5862068965517" name="top"/>
  <anchor x="466.6793103448276" y="557.5862068965517" name="topright"/>
  <anchor x="306.75632183908044" y="0.0" name="vedic"/>
  <outline>
    <contour>
      <point x="542.2678160919542" y="-22.93103448275862" type="line"/>
      <point x="549.8896551724139" y="-21.310344827586206" type="line"/>
      <point x="549.8896551724139" y="496.48390804597705" type="line" smooth="yes"/>
      <point x="549.8896551724139" y="578.3241379310346"/>
      <point x="505.17356321839077" y="632.6206896551724"/>
      <point x="422.65287356321835" y="632.6206896551724" type="curve" smooth="yes"/>
      <point x="301.0827586206896" y="632.6206896551724"/>
      <point x="191.6379310344828" y="506.9310344827586"/>
      <point x="191.6379310344828" y="386.7586206896552" type="curve" smooth="yes"/>
      <point x="191.6379310344828" y="307.0344827586207"/>
      <point x="239.8816091954023" y="263.9310344827586"/>
      <point x="301.7252873563218" y="262.55172413793105" type="curve" smooth="yes"/>
      <point x="365.90919540229885" y="261.17241379310343"/>
      <point x="399.24367816091956" y="301.78275862068966"/>
      <point x="399.24367816091956" y="352.86206896551727" type="curve" smooth="yes"/>
      <point x="399.24367816091956" y="398.44827586206895"/>
      <point x="371.99885057471266" y="434.2068965517241"/>
      <point x="324.79195402298853" y="434.2068965517241" type="curve" smooth="yes"/>
      <point x="304.9413793103448" y="434.2068965517241"/>
      <point x="282.6609195402299" y="424.9655172413793"/>
      <point x="270.9126436781609" y="404.2068965517241" type="curve"/>
      <point x="311.8183908045977" y="400.7241379310345" type="line"/>
      <point x="311.7931034482759" y="471.3885057471265"/>
      <point x="375.0448275862069" y="562.5977011494253"/>
      <point x="430.40229885057477" y="562.5977011494253" type="curve" smooth="yes"/>
      <point x="465.0229885057471" y="562.5977011494253"/>
      <point x="474.8724137931034" y="536.4252873563219"/>
      <point x="474.8724137931034" y="499.7701149425288" type="curve" smooth="yes"/>
      <point x="474.8724137931034" y="216.0344827586207" type="line" smooth="yes"/>
      <point x="474.8724137931034" y="174.7103448275862"/>
      <point x="478.1011494252874" y="124.23218390804598"/>
      <point x="483.7229885057472" y="88.2183908045977" type="curve"/>
      <point x="446.12068965517244" y="162.02528735632185"/>
      <point x="405.27126436781606" y="180.73333333333335"/>
      <point x="348.7045977011494" y="180.73333333333335" type="curve" smooth="yes"/>
      <point x="300.85287356321834" y="180.73333333333335"/>
      <point x="269.8827586206897" y="172.50459770114944"/>
      <point x="209.79310344827587" y="172.50459770114944" type="curve" smooth="yes"/>
      <point x="143.34482758620692" y="172.50459770114944"/>
      <point x="93.4" y="207.18045977011496"/>
      <point x="93.4" y="292.5609195402299" type="curve" smooth="yes"/>
      <point x="93.4" y="324.1609195402298"/>
      <point x="97.14597701149425" y="352.24827586206897"/>
      <point x="103.62758620689655" y="378.83333333333337" type="curve"/>
      <point x="54.45862068965517" y="387.82183908045977" type="line"/>
      <point x="44.3551724137931" y="350.48850574712645"/>
      <point x="37.734482758620686" y="305.34482758620686"/>
      <point x="37.734482758620686" y="261.1919540229885" type="curve" smooth="yes"/>
      <point x="37.734482758620686" y="108.7183908045977"/>
      <point x="122.95862068965518" y="57.91379310344827"/>
      <point x="215.94482758620688" y="57.91379310344827" type="curve" smooth="yes"/>
      <point x="283.15402298850574" y="57.91379310344827"/>
      <point x="326.17816091954023" y="73.63908045977011"/>
      <point x="385.8425287356322" y="73.63908045977011" type="curve" smooth="yes"/>
      <point x="430.10919540229884" y="73.63908045977011"/>
      <point x="459.2413793103448" y="59.90574712643678"/>
      <point x="491.13218390804593" y="11.767816091954023" type="curve"/>
    </contour>
  </outline>
</glyph>
<glyph name="ai-beng" format="2">
  <advance width="715.3126436781611"/>
  <unicode hex="0990"/>
  <anchor x="490.155172413793" y="601.8620689655172" name="top"/>
  <anchor x="449.92068965517245" y="600.1379310344828" name="topright"/>
  <anchor x="357.3459770114943" y="0.0" name="vedic"/>
  <anchor x="550.6735632183908" y="0.0" name="bottom"/>
  <anchor x="550.6735632183908" y="-1.9655172413793105" name="bottom.rvocalic"/>
  <anchor x="532.4183908045977" y="7.241379310344827" name="bottom.virama"/>
  <outline>
    <contour>
      <point x="537.4977011494254" y="315.8965517241379" type="line"/>
      <point x="599.0528735632184" y="374.75172413793103"/>
      <point x="654.0183908045976" y="451.5149425287356"/>
      <point x="654.0183908045976" y="565.7436781609196" type="curve" smooth="yes"/>
      <point x="654.0183908045976" y="741.8666666666667"/>
      <point x="521.4" y="765.7712643678161"/>
      <point x="399.0827586206897" y="784.9356321839081" type="curve" smooth="yes"/>
      <point x="291.5988505747126" y="801.8114942528736"/>
      <point x="216.16091954022986" y="816.6873563218392"/>
      <point x="216.16091954022986" y="902.8494252873563" type="curve" smooth="yes"/>
      <point x="216.16091954022986" y="931.3425287356321"/>
      <point x="222.9206896551724" y="961.7103448275863"/>
      <point x="234.1885057471264" y="987.1172413793104" type="curve"/>
      <point x="186.02643678160922" y="1003.7655172413794" type="line"/>
      <point x="167.01034482758624" y="962.8252873563218"/>
      <point x="156.11034482758618" y="919.9379310344829"/>
      <point x="156.11034482758618" y="876.3885057471264" type="curve" smooth="yes"/>
      <point x="156.11034482758618" y="736.3758620689655"/>
      <point x="270.8448275862069" y="711.3402298850575"/>
      <point x="390.17356321839077" y="694.3540229885058" type="curve" smooth="yes"/>
      <point x="509.2758620689655" y="678.0367816091954"/>
      <point x="600.4137931034483" y="662.9678160919541"/>
      <point x="600.4137931034483" y="554.351724137931" type="curve" smooth="yes"/>
      <point x="600.4137931034483" y="485.6712643678161"/>
      <point x="570.0091954022988" y="438.41839080459766"/>
      <point x="514.6080459770114" y="394.0620689655172" type="curve"/>
    </contour>
    <component base="e-beng"/>
  </outline>
</glyph>
<glyph name="o-beng" format="2">
  <advance width="654.0333333333333"/>
  <unicode hex="0993"/>
  <anchor x="498.6551724137931" y="17.95862068965517" name="bottom"/>
  <anchor x="549.3965517241379" y="-0.3793103448275862" name="bottom.rakaar"/>
  <anchor x="482.9712643678161" y="42.35172413793103" name="bottom.rvocalic"/>
  <anchor x="427.2183908045977" y="10.931034482758621" name="bottom.virama"/>
  <anchor x="427.5954022988506" y="542.7517241379311" name="top"/>
  <anchor x="430.22873563218394" y="542.7517241379311" name="topright"/>
  <anchor x="326.78275862068966" y="0.0" name="vedic"/>
  <outline>
    <contour>
      <point x="403.53793103448277" y="40.103448275862064" type="curve" smooth="yes"/>
      <point x="538.4" y="40.103448275862064"/>
      <point x="613.7563218390804" y="122.26781609195403"/>
      <point x="613.7563218390804" y="231.13563218390803" type="curve" smooth="yes"/>
      <point x="613.7563218390804" y="343.5977011494253"/>
      <point x="518.4965517241379" y="421.85517241379307"/>
      <point x="447.08620689655174" y="421.85517241379307" type="curve" smooth="yes"/>
      <point x="403.851724137931" y="421.85517241379307"/>
      <point x="372.59540229885056" y="393.6206896551724"/>
      <point x="372.59540229885056" y="345.12413793103445" type="curve" smooth="yes"/>
      <point x="372.59540229885056" y="297.9310344827586"/>
      <point x="401.7011494252874" y="266.4344827586207"/>
      <point x="450.07471264367814" y="266.4344827586207" type="curve" smooth="yes"/>
      <point x="526.8183908045977" y="266.4344827586207"/>
      <point x="590.4988505747126" y="375.21494252873566"/>
      <point x="590.4988505747126" y="475.0551724137931" type="curve" smooth="yes"/>
      <point x="590.4988505747126" y="566.7793103448276"/>
      <point x="530.1103448275862" y="630.3793103448276"/>
      <point x="422.0816091954023" y="630.3793103448276" type="curve" smooth="yes"/>
      <point x="286.01264367816094" y="630.3793103448276"/>
      <point x="172.31954022988506" y="530.7379310344828"/>
      <point x="172.31954022988506" y="419.21379310344827" type="curve" smooth="yes"/>
      <point x="172.31954022988506" y="350.02183908045976"/>
      <point x="213.3241379310345" y="314.2977011494253"/>
      <point x="263.3574712643678" y="314.2977011494253" type="curve" smooth="yes"/>
      <point x="313.7597701149425" y="314.2977011494253"/>
      <point x="344.7885057471264" y="345.264367816092"/>
      <point x="344.7885057471264" y="397.29195402298853" type="curve" smooth="yes"/>
      <point x="344.7885057471264" y="439.05862068965513"/>
      <point x="320.1655172413793" y="467.1183908045977"/>
      <point x="284.3367816091954" y="467.1183908045977" type="curve" smooth="yes"/>
      <point x="262.2045977011494" y="467.1183908045977"/>
      <point x="241.7850574712644" y="457.1528735632184"/>
      <point x="232.39310344827587" y="441.151724137931" type="curve"/>
      <point x="290.23793103448276" y="420.8551724137931" type="line"/>
      <point x="297.132183908046" y="503.04137931034484"/>
      <point x="370.5436781609195" y="565.1425287356323"/>
      <point x="447.03908045977016" y="565.1425287356323" type="curve" smooth="yes"/>
      <point x="493.83908045977006" y="565.1425287356323"/>
      <point x="515.1413793103449" y="540.5379310344828"/>
      <point x="515.1413793103449" y="502.71034482758625" type="curve" smooth="yes"/>
      <point x="515.1413793103449" y="458.1689655172414"/>
      <point x="488.164367816092" y="419.3816091954023"/>
      <point x="445.38735632183915" y="396.0827586206896" type="curve"/>
      <point x="462.66896551724136" y="343.4551724137931" type="line"/>
      <point x="499.04137931034484" y="344.4689655172414"/>
      <point x="549.3011494252873" y="317.583908045977"/>
      <point x="549.3011494252873" y="258.5735632183908" type="curve" smooth="yes"/>
      <point x="549.3011494252873" y="193.81264367816092"/>
      <point x="496.78505747126445" y="150.29655172413794"/>
      <point x="404.06781609195406" y="150.29655172413794" type="curve" smooth="yes"/>
      <point x="260.3620689655172" y="150.29655172413794"/>
      <point x="145.28390804597703" y="243.07816091954024"/>
      <point x="65.77586206896552" y="542.9" type="curve"/>
      <point x="16.22528735632184" y="529.9103448275862" type="line"/>
      <point x="86.99310344827586" y="188.00919540229887"/>
      <point x="228.5471264367816" y="40.103448275862064"/>
    </contour>
  </outline>
</glyph>
<glyph name="au-beng" format="2">
  <advance width="731.296551724138"/>
  <unicode hex="0994"/>
  <anchor x="546.6206896551724" y="19.137931034482758" name="bottom"/>
  <anchor x="601.448275862069" y="-1.0" name="bottom.rakaar"/>
  <anchor x="526.9655172413793" y="44.37931034482759" name="bottom.rvocalic"/>
  <anchor x="465.1034482758621" y="11.551724137931034" name="bottom.virama"/>
  <anchor x="570.9655172413793" y="601.8620689655172" name="top"/>
  <anchor x="511.86206896551727" y="600.1379310344828" name="topright"/>
  <anchor x="365.648275862069" y="0.0" name="vedic"/>
  <outline>
    <contour>
      <point x="553.4816091954024" y="320.2206896551724" type="line"/>
      <point x="615.2643678160919" y="379.0758620689655"/>
      <point x="670.0022988505748" y="453.8735632183908"/>
      <point x="670.0022988505748" y="566.7701149425287" type="curve" smooth="yes"/>
      <point x="670.0022988505748" y="741.0793103448276"/>
      <point x="536.4103448275862" y="766.0114942528735"/>
      <point x="414.9011494252874" y="784.9356321839081" type="curve" smooth="yes"/>
      <point x="317.2448275862069" y="800.2390804597701"/>
      <point x="232.37241379310345" y="813.5425287356321"/>
      <point x="232.37241379310345" y="902.8494252873563" type="curve" smooth="yes"/>
      <point x="232.37241379310345" y="931.3425287356321"/>
      <point x="239.132183908046" y="961.7103448275863"/>
      <point x="250.17241379310343" y="987.1172413793104" type="curve"/>
      <point x="202.0103448275862" y="1003.7655172413794" type="line"/>
      <point x="183.22183908045977" y="962.8252873563218"/>
      <point x="172.3218390804598" y="919.9379310344829"/>
      <point x="172.3218390804598" y="876.3885057471264" type="curve" smooth="yes"/>
      <point x="172.3218390804598" y="736.3758620689655"/>
      <point x="287.05632183908045" y="711.3402298850575"/>
      <point x="406.14482758620693" y="694.3540229885058" type="curve" smooth="yes"/>
      <point x="516.4459770114942" y="678.5827586206897"/>
      <point x="616.6252873563219" y="665.7195402298851"/>
      <point x="616.6252873563219" y="553.5655172413793" type="curve" smooth="yes"/>
      <point x="616.6252873563219" y="480.51724137931035"/>
      <point x="585.5873563218391" y="435.31724137931036"/>
      <point x="530.5793103448275" y="390.56781609195406" type="curve"/>
    </contour>
    <component base="o-beng"/>
  </outline>
</glyph>
<glyph name="ka-beng" format="2">
  <advance width="673.9655172413793"/>
  <unicode hex="0995"/>
  <anchor x="414.9735632183908" y="32.48275862068966" name="bottom"/>
  <anchor x="419.2689655172414" y="47.53103448275862" name="bottom.rakaar"/>
  <anchor x="420.78620689655173" y="10.595402298850574" name="bottom.rvocalic"/>
  <anchor x="407.5505747126437" y="-3.724137931034484" name="bottom.virama"/>
  <anchor x="194.82758620689657" y="54.163218390804595" name="nukta"/>
  <anchor x="404.767816091954" y="578.0689655172414" name="top"/>
  <anchor x="406.78045977011493" y="570.6206896551724" name="topright"/>
  <anchor x="336.48275862068965" y="0.0" name="vedic"/>
  <outline>
    <contour>
      <point x="413.16436781609195" y="-19.82758620689655" type="line"/>
      <point x="420.78620689655173" y="-18.20689655172414" type="line"/>
      <point x="420.78620689655173" y="427.0816091954023" type="line"/>
      <point x="405.05057471264365" y="402.5747126436782" type="line"/>
      <point x="410.3045977011495" y="404.43563218390807"/>
      <point x="416.65977011494255" y="405.43563218390807"/>
      <point x="421.77471264367813" y="405.43563218390807" type="curve" smooth="yes"/>
      <point x="528.4298850574712" y="405.43563218390807"/>
      <point x="598.4919540229885" y="341.3505747126436"/>
      <point x="598.4919540229885" y="272.4275862068966" type="curve" smooth="yes"/>
      <point x="598.4919540229885" y="257.0609195402299"/>
      <point x="595.4793103448276" y="247.44022988505748"/>
      <point x="587.1241379310345" y="234.95862068965516" type="curve"/>
      <point x="606.4264367816091" y="233.98620689655172" type="line"/>
      <point x="599.9080459770115" y="277.0896551724138"/>
      <point x="575.664367816092" y="298.06666666666666"/>
      <point x="537.7977011494253" y="298.06666666666666" type="curve" smooth="yes"/>
      <point x="494.88160919540235" y="298.06666666666666"/>
      <point x="467.49655172413793" y="266.57241379310346"/>
      <point x="467.49655172413793" y="222.75862068965517" type="curve" smooth="yes"/>
      <point x="467.49655172413793" y="179.2965517241379"/>
      <point x="493.5011494252874" y="140.44827586206898"/>
      <point x="547.3045977011494" y="140.44827586206898" type="curve" smooth="yes"/>
      <point x="610.5275862068966" y="140.44827586206898"/>
      <point x="647.6620689655172" y="194.6632183908046"/>
      <point x="647.6620689655172" y="278.10344827586204" type="curve" smooth="yes"/>
      <point x="647.6620689655172" y="401.03448275862064"/>
      <point x="554.0321839080459" y="506.51609195402295"/>
      <point x="407.03793103448277" y="517.7448275862068" type="curve"/>
      <point x="420.78620689655173" y="494.41379310344826" type="line"/>
      <point x="420.78620689655173" y="557.5862068965517" type="line"/>
      <point x="704.9954022988505" y="557.5862068965517" type="line"/>
      <point x="668.167816091954" y="622.0" type="line"/>
      <point x="-31.25747126436782" y="622.0" type="line"/>
      <point x="5.963218390804597" y="557.5862068965517" type="line"/>
      <point x="345.7689655172413" y="557.5862068965517" type="line"/>
      <point x="345.7689655172413" y="480.7586206896552" type="line"/>
      <point x="354.25172413793103" y="519.4919540229885" type="line"/>
      <point x="230.66781609195402" y="477.78850574712646"/>
      <point x="118.9310344827586" y="421.47126436781605"/>
      <point x="13.947126436781609" y="348.11724137931037" type="curve"/>
      <point x="67.94827586206895" y="215.30344827586208" type="line"/>
      <point x="192.90114942528737" y="194.7770114942529"/>
      <point x="290.7505747126437" y="131.08505747126438"/>
      <point x="356.1758620689655" y="18.78505747126437" type="curve"/>
    </contour>
    <contour>
      <point x="345.7689655172413" y="81.36666666666667" type="line"/>
      <point x="358.63103448275865" y="92.6816091954023" type="line"/>
      <point x="304.20689655172407" y="214.49655172413793"/>
      <point x="206.65977011494252" y="276.9850574712644"/>
      <point x="120.5689655172414" y="301.70344827586206" type="curve"/>
      <point x="128.34137931034485" y="280.4862068965518" type="line"/>
      <point x="195.76321839080458" y="332.0241379310345"/>
      <point x="284.35057471264366" y="374.5057471264368"/>
      <point x="359.8609195402299" y="402.40000000000003" type="curve"/>
      <point x="345.7689655172413" y="433.37931034482756" type="line"/>
    </contour>
  </outline>
</glyph>
<glyph name="kha-beng" format="2">
  <advance width="584.4022988505748"/>
  <unicode hex="0996"/>
  <anchor x="505.5551724137932" y="32.48275862068966" name="bottom"/>
  <anchor x="511.90000000000003" y="80.55172413793103" name="bottom.rakaar"/>
  <anchor x="511.90000000000003" y="10.924137931034481" name="bottom.rvocalic"/>
  <anchor x="493.18965517241384" y="8.46206896551724" name="bottom.virama"/>
  <anchor x="493.13563218390806" y="568.0689655172414" name="top"/>
  <anchor x="473.8701149425287" y="559.448275862069" name="topright"/>
  <anchor x="274.21149425287354" y="0.0" name="vedic"/>
  <outline>
    <contour>
      <point x="504.64482758620693" y="-19.82758620689655" type="line"/>
      <point x="511.90000000000003" y="-18.20689655172414" type="line"/>
      <point x="511.90000000000003" y="557.5862068965517" type="line"/>
      <point x="615.6597701149425" y="557.5862068965517" type="line"/>
      <point x="577.8057471264368" y="622.0" type="line"/>
      <point x="506.91034482758613" y="622.0" type="line"/>
      <point x="500.28850574712646" y="672.448275862069" type="line"/>
      <point x="442.97241379310344" y="707.3103448275862" type="line"/>
      <point x="437.11034482758623" y="705.0689655172414" type="line"/>
      <point x="437.11034482758623" y="80.2735632183908" type="line"/>
      <point x="449.3275862068965" y="92.08965517241379" type="line"/>
      <point x="400.1931034482759" y="200.74022988505746"/>
      <point x="321.31609195402297" y="262.10114942528736"/>
      <point x="232.27471264367816" y="294.09999999999997" type="curve"/>
      <point x="241.32643678160917" y="264.1666666666667" type="line"/>
      <point x="338.31149425287356" y="286.2689655172414"/>
      <point x="387.55517241379306" y="339.9413793103448"/>
      <point x="387.55517241379306" y="437.3367816091954" type="curve" smooth="yes"/>
      <point x="387.55517241379306" y="532.0137931034483"/>
      <point x="327.74482758620695" y="591.9655172413793"/>
      <point x="279.13103448275865" y="628.8390804597701" type="curve"/>
      <point x="232.6057471264368" y="549.5137931034483"/>
      <point x="180.98045977011495" y="502.67586206896556"/>
      <point x="131.9954022988506" y="502.67586206896556" type="curve" smooth="yes"/>
      <point x="120.85517241379311" y="502.67586206896556"/>
      <point x="108.44942528735632" y="504.82758620689657"/>
      <point x="102.19540229885057" y="508.82758620689657" type="curve"/>
      <point x="136.79540229885058" y="474.7586206896552" type="line"/>
      <point x="154.7977011494253" y="491.37931034482756"/>
      <point x="161.05172413793105" y="506.75977011494257"/>
      <point x="161.05172413793105" y="533.8620689655172" type="curve" smooth="yes"/>
      <point x="161.05172413793105" y="569.4827586206897"/>
      <point x="137.8977011494253" y="598.8275862068965"/>
      <point x="93.01839080459771" y="598.8275862068965" type="curve" smooth="yes"/>
      <point x="47.331034482758625" y="598.8275862068965"/>
      <point x="19.44137931034483" y="568.8632183908046"/>
      <point x="19.44137931034483" y="520.7471264367816" type="curve" smooth="yes"/>
      <point x="19.44137931034483" y="447.0195402298851"/>
      <point x="72.44482758620691" y="411.6873563218391"/>
      <point x="130.82183908045977" y="411.6873563218391" type="curve" smooth="yes"/>
      <point x="200.40919540229888" y="411.6873563218391"/>
      <point x="271.04022988505744" y="453.3183908045977"/>
      <point x="319.9942528735632" y="538.283908045977" type="curve"/>
      <point x="279.77356321839085" y="539.4436781609195" type="line"/>
      <point x="300.43448275862073" y="519.3540229885057"/>
      <point x="314.82873563218396" y="495.7206896551724"/>
      <point x="314.82873563218396" y="461.7747126436782" type="curve" smooth="yes"/>
      <point x="314.82873563218396" y="377.4448275862069"/>
      <point x="220.72183908045974" y="344.06206896551726"/>
      <point x="109.35057471264368" y="342.9114942528736" type="curve"/>
      <point x="153.67356321839083" y="215.6689655172414" type="line"/>
      <point x="283.24022988505743" y="200.01379310344828"/>
      <point x="382.6149425287356" y="132.23333333333332"/>
      <point x="447.0114942528736" y="20.048275862068966" type="curve"/>
    </contour>
  </outline>
</glyph>
<glyph name="ga-beng" format="2">
  <advance width="579.367816091954"/>
  <unicode hex="0997"/>
  <anchor x="493.2528735632184" y="58.54252873563218" name="bottom"/>
  <anchor x="507.0931034482759" y="-10.448275862068966" name="bottom.rakaar"/>
  <anchor x="507.0931034482759" y="-2.6206896551724137" name="bottom.rvocalic"/>
  <anchor x="478.4183908045977" y="7.241379310344827" name="bottom.virama"/>
  <anchor x="488.783908045977" y="568.0689655172414" name="top"/>
  <anchor x="469.5183908045977" y="559.448275862069" name="topright"/>
  <anchor x="289.3804597701149" y="0.0" name="vedic"/>
  <outline>
    <contour>
      <point x="500.85057471264366" y="-31.20689655172414" type="line"/>
      <point x="507.0931034482759" y="-29.586206896551722" type="line"/>
      <point x="507.0931034482759" y="557.5862068965517" type="line"/>
      <point x="610.6252873563218" y="557.5862068965517" type="line"/>
      <point x="572.771264367816" y="622.0" type="line"/>
      <point x="501.8758620689655" y="622.0" type="line"/>
      <point x="495.6471264367816" y="672.448275862069" type="line"/>
      <point x="438.78620689655173" y="707.3103448275862" type="line"/>
      <point x="432.92413793103447" y="705.0689655172414" type="line"/>
      <point x="432.92413793103447" y="582.8218390804598" type="line" smooth="yes"/>
      <point x="432.92413793103447" y="529.7678160919539"/>
      <point x="436.2528735632184" y="473.77816091954026"/>
      <point x="440.93793103448274" y="429.53793103448277" type="curve"/>
      <point x="451.77471264367813" y="428.7931034482759" type="line"/>
      <point x="391.18735632183916" y="571.5310344827585"/>
      <point x="313.6712643678161" y="632.1034482758621"/>
      <point x="225.9045977011494" y="632.1034482758621" type="curve" smooth="yes"/>
      <point x="141.8137931034483" y="632.1034482758621"/>
      <point x="60.46436781609195" y="574.9218390804599"/>
      <point x="2.9977011494252874" y="443.06781609195406" type="curve"/>
      <point x="91.99080459770116" y="365.42988505747127" type="line"/>
      <point x="124.3022988505747" y="396.3528735632184"/>
      <point x="162.40919540229885" y="417.12873563218386"/>
      <point x="199.32528735632184" y="417.12873563218386" type="curve" smooth="yes"/>
      <point x="233.40114942528734" y="417.12873563218386"/>
      <point x="251.07356321839083" y="398.13103448275865"/>
      <point x="251.07356321839083" y="368.07931034482755" type="curve" smooth="yes"/>
      <point x="251.07356321839083" y="323.2218390804598"/>
      <point x="201.3126436781609" y="287.24827586206897"/>
      <point x="115.69425287356322" y="256.66896551724136" type="curve"/>
      <point x="182.27471264367816" y="147.44827586206893" type="line"/>
      <point x="295.0632183908046" y="206.81494252873563"/>
      <point x="334.9551724137931" y="274.29195402298853"/>
      <point x="334.9551724137931" y="351.8137931034483" type="curve" smooth="yes"/>
      <point x="334.9551724137931" y="423.7919540229885"/>
      <point x="290.97701149425285" y="479.7689655172413"/>
      <point x="215.5367816091954" y="479.7689655172413" type="curve" smooth="yes"/>
      <point x="170.54367816091954" y="479.7689655172413"/>
      <point x="137.37586206896552" y="464.6413793103448"/>
      <point x="115.01724137931035" y="447.81954022988504" type="curve"/>
      <point x="132.85402298850573" y="431.62068965517244" type="line"/>
      <point x="158.58045977011494" y="502.7"/>
      <point x="205.6379310344828" y="539.8494252873563"/>
      <point x="253.12643678160921" y="539.8494252873563" type="curve" smooth="yes"/>
      <point x="316.4850574712644" y="539.8494252873563"/>
      <point x="378.64252873563214" y="494.2310344827586"/>
      <point x="444.45862068965516" y="341.71379310344827" type="curve"/>
      <point x="432.4689655172414" y="408.49655172413793" type="line"/>
      <point x="432.4689655172414" y="1.7586206896551724" type="line"/>
    </contour>
  </outline>
</glyph>
<glyph name="gha-beng" format="2">
  <advance width="509.05747126436773"/>
  <unicode hex="0998"/>
  <anchor x="431.1356321839081" y="32.48275862068966" name="bottom"/>
  <anchor x="435.4310344827586" y="80.55172413793103" name="bottom.rakaar"/>
  <anchor x="436.94827586206895" y="9.912643678160919" name="bottom.rvocalic"/>
  <anchor x="419.38850574712643" y="8.46206896551724" name="bottom.virama"/>
  <anchor x="420.92988505747127" y="578.0689655172414" name="top"/>
  <anchor x="422.9425287356322" y="570.6206896551724" name="topright"/>
  <anchor x="254.4149425287356" y="0.0" name="vedic"/>
  <outline>
    <contour>
      <point x="429.3264367816092" y="-19.82758620689655" type="line"/>
      <point x="436.94827586206895" y="-18.20689655172414" type="line"/>
      <point x="436.94827586206895" y="557.5862068965517" type="line"/>
      <point x="540.0873563218391" y="557.5862068965517" type="line"/>
      <point x="502.8666666666667" y="622.0" type="line"/>
      <point x="-31.25747126436782" y="622.0" type="line"/>
      <point x="5.963218390804597" y="557.5862068965517" type="line"/>
      <point x="361.9310344827586" y="557.5862068965517" type="line"/>
      <point x="361.9310344827586" y="79.40114942528734" type="line"/>
      <point x="375.02068965517236" y="89.14367816091954" type="line"/>
      <point x="321.30804597701155" y="208.68735632183908"/>
      <point x="232.02528735632183" y="263.95287356321836"/>
      <point x="120.61379310344827" y="298.183908045977" type="curve"/>
      <point x="134.5804597701149" y="266.7931034482759" type="line"/>
      <point x="190.1609195402299" y="308.8034482758621"/>
      <point x="259.78160919540227" y="343.46436781609196"/>
      <point x="328.148275862069" y="375.71954022988507" type="curve"/>
      <point x="280.20459770114945" y="468.13793103448273" type="line"/>
      <point x="254.0264367816092" y="449.0379310344827"/>
      <point x="227.69540229885055" y="439.5310344827586"/>
      <point x="200.99425287356323" y="439.5310344827586" type="curve" smooth="yes"/>
      <point x="164.81494252873563" y="439.5310344827586"/>
      <point x="142.13103448275862" y="461.6563218390805"/>
      <point x="142.13103448275862" y="494.36436781609194" type="curve" smooth="yes"/>
      <point x="142.13103448275862" y="535.1448275862069"/>
      <point x="170.26666666666665" y="557.5862068965517"/>
      <point x="212.0816091954023" y="568.2068965517242" type="curve"/>
      <point x="112.23908045977012" y="609.3655172413793" type="line"/>
      <point x="74.18620689655172" y="598.2344827586206"/>
      <point x="29.54942528735632" y="566.4885057471264"/>
      <point x="29.54942528735632" y="507.2931034482758" type="curve" smooth="yes"/>
      <point x="29.54942528735632" y="434.4137931034483"/>
      <point x="94.14022988505747" y="398.95862068965516"/>
      <point x="162.867816091954" y="391.69425287356324" type="curve"/>
      <point x="160.10689655172413" y="410.58620689655174" type="line"/>
      <point x="119.55747126436783" y="390.2068965517242"/>
      <point x="73.67011494252874" y="366.05057471264365"/>
      <point x="32.52528735632184" y="338.0620689655172" type="curve"/>
      <point x="85.68275862068965" y="210.21149425287356" type="line"/>
      <point x="205.57816091954024" y="192.283908045977"/>
      <point x="309.34597701149426" y="129.90574712643678"/>
      <point x="372.3379310344828" y="18.391954022988504" type="curve"/>
    </contour>
  </outline>
</glyph>
<glyph name="nga-beng" format="2">
  <advance width="570.6367816091954"/>
  <unicode hex="0999"/>
  <anchor x="388.8436781609195" y="11.193103448275862" name="bottom"/>
  <anchor x="495.8471264367816" y="-12.779310344827586" name="bottom.rakaar"/>
  <anchor x="408.7068965517241" y="-2.510344827586206" name="bottom.rvocalic"/>
  <anchor x="369.66666666666674" y="0.0" name="bottom.virama"/>
  <anchor x="337.1022988505747" y="577.8413793103448" name="top"/>
  <anchor x="324.47241379310344" y="570.6206896551724" name="topright"/>
  <anchor x="284.8183908045977" y="0.0" name="vedic"/>
  <outline>
    <contour>
      <point x="341.38160919540235" y="16.365517241379308" type="curve" smooth="yes"/>
      <point x="478.08620689655174" y="16.365517241379308"/>
      <point x="544.8241379310344" y="115.82183908045977"/>
      <point x="544.8241379310344" y="250.1183908045977" type="curve" smooth="yes"/>
      <point x="544.8241379310344" y="333.8310344827586"/>
      <point x="509.4505747126437" y="402.1620689655172"/>
      <point x="468.1080459770115" y="448.1965517241379" type="curve"/>
      <point x="420.8195402298851" y="373.9402298850575"/>
      <point x="356.2931034482759" y="319.3103448275863"/>
      <point x="305.55632183908045" y="319.3103448275863" type="curve" smooth="yes"/>
      <point x="288.52988505747123" y="319.3103448275863"/>
      <point x="277.75632183908044" y="329.17126436781615"/>
      <point x="277.75632183908044" y="349.03333333333336" type="curve" smooth="yes"/>
      <point x="277.75632183908044" y="464.9758620689655" type="line" smooth="yes"/>
      <point x="277.75632183908044" y="533.6413793103449"/>
      <point x="296.8965517241379" y="569.6758620689656"/>
      <point x="335.4689655172414" y="569.6758620689656" type="curve" smooth="yes"/>
      <point x="362.8137931034483" y="569.6758620689656"/>
      <point x="379.5471264367816" y="552.9793103448276"/>
      <point x="379.5471264367816" y="527.0206896551724" type="curve" smooth="yes"/>
      <point x="379.5471264367816" y="499.24827586206897"/>
      <point x="364.735632183908" y="472.50344827586207"/>
      <point x="313.22413793103453" y="472.50344827586207" type="curve" smooth="yes"/>
      <point x="220.26666666666668" y="472.50344827586207"/>
      <point x="184.816091954023" y="522.0103448275862"/>
      <point x="140.683908045977" y="623.2172413793103" type="curve"/>
      <point x="95.95632183908046" y="603.2413793103449" type="line"/>
      <point x="143.24137931034483" y="488.8942528735632"/>
      <point x="199.21149425287356" y="404.8137931034483"/>
      <point x="314.5931034482759" y="404.8137931034483" type="curve" smooth="yes"/>
      <point x="408.51264367816094" y="404.8137931034483"/>
      <point x="443.8885057471264" y="464.29770114942534"/>
      <point x="444.1287356321839" y="518.8965517241379" type="curve" smooth="yes"/>
      <point x="444.36896551724135" y="583.3793103448276"/>
      <point x="406.4793103448276" y="633.2413793103449"/>
      <point x="331.21494252873566" y="633.2413793103449" type="curve" smooth="yes"/>
      <point x="251.20459770114942" y="633.2413793103449"/>
      <point x="204.57586206896553" y="573.2758620689655"/>
      <point x="204.57586206896553" y="476.9310344827586" type="curve" smooth="yes"/>
      <point x="204.57586206896553" y="340.3436781609196" type="line" smooth="yes"/>
      <point x="204.57586206896553" y="298.8448275862069"/>
      <point x="221.5781609195402" y="270.0195402298851"/>
      <point x="241.94827586206893" y="250.916091954023" type="curve" smooth="yes"/>
      <point x="263.8379310344827" y="229.82528735632184"/>
      <point x="292.17011494252876" y="219.55862068965519"/>
      <point x="324.8091954022989" y="219.55862068965519" type="curve" smooth="yes"/>
      <point x="385.8551724137931" y="219.55862068965519"/>
      <point x="459.5" y="271.2701149425287"/>
      <point x="498.148275862069" y="333.15517241379314" type="curve"/>
      <point x="456.31724137931036" y="352.41379310344826" type="line"/>
      <point x="473.4839080459771" y="327.7793103448276"/>
      <point x="485.62528735632185" y="298.0183908045977"/>
      <point x="485.62528735632185" y="263.0459770114942" type="curve" smooth="yes"/>
      <point x="485.62528735632185" y="180.89425287356323"/>
      <point x="432.1034482758621" y="127.27011494252874"/>
      <point x="336.70804597701147" y="127.27011494252874" type="curve" smooth="yes"/>
      <point x="196.89770114942527" y="127.27011494252874"/>
      <point x="123.58505747126436" y="231.7103448275862"/>
      <point x="57.852873563218395" y="493.2413793103448" type="curve"/>
      <point x="9.02183908045977" y="480.52988505747123" type="line"/>
      <point x="71.13333333333333" y="166.5390804597701"/>
      <point x="170.43793103448277" y="16.365517241379308"/>
    </contour>
  </outline>
</glyph>
<glyph name="ca-beng" format="2">
  <advance width="473.3735632183908"/>
  <unicode hex="099A"/>
  <anchor x="319.11724137931037" y="15.724137931034482" name="bottom"/>
  <anchor x="381.69885057471265" y="0.0" name="bottom.rakaar"/>
  <anchor x="327.3137931034483" y="7.399999999999998" name="bottom.rvocalic"/>
  <anchor x="255.60114942528736" y="30.413793103448278" name="bottom.virama"/>
  <anchor x="131.7287356321839" y="578.0689655172414" name="top"/>
  <anchor x="133.60229885057473" y="570.6206896551724" name="topright"/>
  <anchor x="236.50344827586207" y="0.0" name="vedic"/>
  <outline>
    <contour>
      <point x="209.85402298850576" y="15.482758620689655" type="curve" smooth="yes"/>
      <point x="352.7862068965517" y="15.482758620689655"/>
      <point x="438.34137931034485" y="201.96666666666667"/>
      <point x="438.34137931034485" y="311.44827586206895" type="curve" smooth="yes"/>
      <point x="438.34137931034485" y="362.3931034482759"/>
      <point x="395.8896551724138" y="397.2068965517241"/>
      <point x="371.45632183908043" y="410.44827586206895" type="curve"/>
      <point x="295.1172413793103" y="416.9655172413793"/>
      <point x="195.41034482758621" y="452.73448275862074"/>
      <point x="141.632183908046" y="557.4137931034483" type="curve"/>
      <point x="140.88505747126436" y="480.3724137931035" type="line"/>
      <point x="177.26896551724138" y="387.7632183908046"/>
      <point x="253.9758620689655" y="322.01149425287355"/>
      <point x="367.43103448275866" y="311.38045977011495" type="curve"/>
      <point x="333.1908045977012" y="346.5425287356322" type="line"/>
      <point x="325.4689655172414" y="207.40459770114944"/>
      <point x="253.7264367816092" y="101.5873563218391"/>
      <point x="194.9655172413793" y="101.5873563218391" type="curve" smooth="yes"/>
      <point x="165.79885057471265" y="101.5873563218391"/>
      <point x="147.1264367816092" y="117.3471264367816"/>
      <point x="147.1264367816092" y="149.64827586206897" type="curve" smooth="yes"/>
      <point x="147.1264367816092" y="557.5862068965517" type="line"/>
      <point x="504.6310344827587" y="557.5862068965517" type="line"/>
      <point x="468.03103448275857" y="622.0" type="line"/>
      <point x="-31.25747126436782" y="622.0" type="line"/>
      <point x="7.824137931034483" y="557.5862068965517" type="line"/>
      <point x="72.50229885057472" y="557.5862068965517" type="line"/>
      <point x="72.50229885057472" y="148.28275862068966" type="line" smooth="yes"/>
      <point x="72.50229885057472" y="69.34137931034483"/>
      <point x="136.76896551724138" y="15.482758620689655"/>
    </contour>
  </outline>
</glyph>
<glyph name="cha-beng" format="2">
  <advance width="511.9"/>
  <unicode hex="099B"/>
  <anchor x="311.13103448275865" y="26.278160919540227" name="bottom"/>
  <anchor x="430.7528735632184" y="-119.37241379310345" name="bottom.rakaar"/>
  <anchor x="382.1551724137931" y="18.4551724137931" name="bottom.rvocalic"/>
  <anchor x="302.28275862068966" y="22.799999999999997" name="bottom.virama"/>
  <anchor x="110.24022988505747" y="578.0689655172414" name="top"/>
  <anchor x="112.11379310344827" y="570.6206896551724" name="topright"/>
  <anchor x="255.63333333333333" y="0.0" name="vedic"/>
  <outline>
    <contour>
      <point x="496.264367816092" y="-119.0896551724138" type="curve"/>
      <point x="530.0919540229886" y="-81.1241379310345" type="line"/>
      <point x="447.50344827586207" y="8.045977011494251"/>
      <point x="334.0988505747126" y="99.04597701149426"/>
      <point x="224.74137931034485" y="125.51379310344828" type="curve"/>
      <point x="203.98045977011498" y="93.8344827586207" type="line"/>
      <point x="216.07816091954024" y="87.91264367816092"/>
      <point x="240.70459770114945" y="85.27816091954023"/>
      <point x="264.5540229885058" y="85.27816091954023" type="curve" smooth="yes"/>
      <point x="381.87126436781614" y="85.27816091954023"/>
      <point x="474.67931034482757" y="158.95517241379312"/>
      <point x="474.67931034482757" y="295.0988505747127" type="curve" smooth="yes"/>
      <point x="474.67931034482757" y="417.6080459770115"/>
      <point x="386.14597701149427" y="491.251724137931"/>
      <point x="280.2701149425288" y="491.251724137931" type="curve" smooth="yes"/>
      <point x="206.1896551724138" y="491.251724137931"/>
      <point x="152.87931034482756" y="507.8965517241379"/>
      <point x="120.33333333333334" y="558.2068965517242" type="curve"/>
      <point x="116.71264367816092" y="511.7241379310345" type="line"/>
      <point x="145.2344827586207" y="452.48275862068965"/>
      <point x="204.68045977011494" y="417.0689655172414"/>
      <point x="260.0770114942528" y="412.09195402298855" type="curve"/>
      <point x="233.12183908045978" y="453.7931034482759" type="line"/>
      <point x="229.23793103448276" y="366.0"/>
      <point x="198.5655172413793" y="305.8724137931034"/>
      <point x="158.39770114942527" y="305.8724137931034" type="curve" smooth="yes"/>
      <point x="137.63908045977013" y="305.8724137931034"/>
      <point x="125.96666666666667" y="319.7701149425287"/>
      <point x="125.96666666666667" y="339.76781609195405" type="curve" smooth="yes"/>
      <point x="125.96666666666667" y="557.5862068965517" type="line"/>
      <point x="543.1574712643678" y="557.5862068965517" type="line"/>
      <point x="504.9494252873563" y="622.0" type="line"/>
      <point x="-31.25747126436782" y="622.0" type="line"/>
      <point x="5.963218390804597" y="557.5862068965517" type="line"/>
      <point x="52.02528735632183" y="557.5862068965517" type="line"/>
      <point x="52.02528735632183" y="340.4655172413793" type="line" smooth="yes"/>
      <point x="52.02528735632183" y="282.6264367816092"/>
      <point x="106.2919540229885" y="227.86206896551724"/>
      <point x="175.18390804597703" y="227.86206896551724" type="curve" smooth="yes"/>
      <point x="258.75517241379316" y="227.86206896551724"/>
      <point x="322.2310344827586" y="288.4367816091954"/>
      <point x="340.851724137931" y="452.7241379310345" type="curve"/>
      <point x="298.09770114942523" y="426.5103448275862" type="line"/>
      <point x="344.56091954022986" y="426.3712643678161"/>
      <point x="397.33563218390805" y="399.29655172413794"/>
      <point x="397.33563218390805" y="317.6425287356322" type="curve" smooth="yes"/>
      <point x="397.33563218390805" y="230.7126436781609"/>
      <point x="332.85977011494253" y="179.4229885057471"/>
      <point x="226.0367816091954" y="179.4229885057471" type="curve" smooth="yes"/>
      <point x="173.26206896551724" y="179.4229885057471"/>
      <point x="123.74482758620688" y="187.99195402298852"/>
      <point x="79.43448275862069" y="209.8310344827586" type="curve"/>
      <point x="106.42758620689655" y="79.1448275862069" type="line"/>
      <point x="245.1103448275862" y="53.842528735632186"/>
      <point x="355.148275862069" y="7.722988505747128"/>
    </contour>
  </outline>
</glyph>
<glyph name="ja-beng" format="2">
  <advance width="751.844827586207"/>
  <unicode hex="099C"/>
  <anchor x="665.0850574712643" y="63.682758620689654" name="bottom"/>
  <anchor x="677.5919540229885" y="60.58620689655173" name="bottom.rakaar"/>
  <anchor x="676.5666666666666" y="-12.689655172413794" name="bottom.rvocalic"/>
  <anchor x="660.464367816092" y="-18.49655172413793" name="bottom.virama"/>
  <anchor x="411.82068965517243" y="577.8413793103448" name="top"/>
  <anchor x="413.3011494252874" y="570.6206896551724" name="topright"/>
  <anchor x="375.68850574712644" y="0.0" name="vedic"/>
  <outline>
    <contour>
      <point x="328.280459770115" y="15.703448275862064" type="curve" smooth="yes"/>
      <point x="459.55057471264365" y="15.703448275862064"/>
      <point x="516.7103448275861" y="106.03793103448277"/>
      <point x="516.7103448275861" y="227.41494252873562" type="curve" smooth="yes"/>
      <point x="516.7103448275861" y="309.57586206896553"/>
      <point x="484.00459770114946" y="376.7586206896552"/>
      <point x="436.3068965517241" y="423.6413793103448" type="curve"/>
      <point x="392.764367816092" y="360.5390804597701"/>
      <point x="350.2172413793104" y="324.148275862069"/>
      <point x="310.57011494252873" y="324.148275862069" type="curve" smooth="yes"/>
      <point x="278.73333333333335" y="324.148275862069"/>
      <point x="256.6689655172414" y="343.4252873563218"/>
      <point x="256.6689655172414" y="378.68735632183905" type="curve" smooth="yes"/>
      <point x="256.6689655172414" y="441.3287356321839"/>
      <point x="339.2758620689655" y="508.45977011494256"/>
      <point x="443.64022988505747" y="557.5862068965517" type="curve"/>
      <point x="783.1022988505747" y="557.5862068965517" type="line"/>
      <point x="746.2747126436782" y="622.0" type="line"/>
      <point x="-31.25747126436782" y="622.0" type="line"/>
      <point x="5.963218390804597" y="557.5862068965517" type="line"/>
      <point x="319.32068965517243" y="557.5862068965517" type="line"/>
      <point x="297.4275862068966" y="581.7586206896551" type="line"/>
      <point x="239.33908045977012" y="544.2574712643678"/>
      <point x="176.27241379310345" y="474.98850574712645"/>
      <point x="176.27241379310345" y="392.57126436781607" type="curve" smooth="yes"/>
      <point x="176.27241379310345" y="295.7172413793104"/>
      <point x="243.0551724137931" y="224.53563218390804"/>
      <point x="321.8494252873563" y="224.53563218390804" type="curve" smooth="yes"/>
      <point x="382.5367816091954" y="224.53563218390804"/>
      <point x="438.70919540229886" y="265.63448275862066"/>
      <point x="479.15977011494255" y="325.6275862068965" type="curve"/>
      <point x="434.36896551724135" y="333.032183908046" type="line"/>
      <point x="449.89080459770116" y="310.3977011494253"/>
      <point x="461.79195402298853" y="282.9425287356322"/>
      <point x="461.79195402298853" y="246.62528735632185" type="curve" smooth="yes"/>
      <point x="461.79195402298853" y="178.61034482758623"/>
      <point x="414.5149425287356" y="128.20689655172413"/>
      <point x="327.95402298850576" y="128.20689655172413" type="curve" smooth="yes"/>
      <point x="194.51609195402298" y="128.20689655172413"/>
      <point x="115.483908045977" y="239.9505747126437"/>
      <point x="64.97931034482758" y="485.2896551724138" type="curve"/>
      <point x="15.745977011494254" y="473.7931034482759" type="line"/>
      <point x="66.70344827586206" y="159.50689655172414"/>
      <point x="164.78620689655173" y="15.703448275862064"/>
    </contour>
    <contour>
      <point x="630.319540229885" y="-43.62068965517241" type="curve"/>
      <point x="676.5666666666666" y="-25.66896551724138" type="line"/>
      <point x="655.0310344827586" y="41.93218390804598"/>
      <point x="648.1333333333333" y="99.1103448275862"/>
      <point x="648.1333333333333" y="161.12528735632185" type="curve" smooth="yes"/>
      <point x="648.1333333333333" y="240.19540229885058"/>
      <point x="673.6942528735632" y="319.5034482758621"/>
      <point x="723.0034482758621" y="386.0689655172414" type="curve"/>
      <point x="667.0689655172414" y="467.1034482758621" type="line"/>
      <point x="553.0172413793105" y="462.6413793103448"/>
      <point x="482.2459770114942" y="498.6344827586207"/>
      <point x="443.0540229885058" y="593.5770114942528" type="curve"/>
      <point x="401.64367816091954" y="553.9310344827586" type="line"/>
      <point x="446.32068965517243" y="430.9862068965517"/>
      <point x="543.016091954023" y="378.9816091954023"/>
      <point x="633.5850574712643" y="363.25747126436784" type="curve"/>
      <point x="615.9724137931034" y="406.9850574712643" type="line"/>
      <point x="589.6022988505747" y="343.5103448275862"/>
      <point x="577.0954022988506" y="273.66321839080456"/>
      <point x="577.0954022988506" y="201.30919540229885" type="curve" smooth="yes"/>
      <point x="577.0954022988506" y="108.27126436781609"/>
      <point x="598.5034482758621" y="31.548275862068966"/>
    </contour>
  </outline>
</glyph>
<glyph name="jha-beng" format="2">
  <advance width="646.9977011494253"/>
  <unicode hex="099D"/>
  <anchor x="414.29080459770114" y="32.48275862068966" name="bottom"/>
  <anchor x="418.58620689655174" y="80.15862068965517" name="bottom.rakaar"/>
  <anchor x="420.1034482758621" y="9.519540229885058" name="bottom.rvocalic"/>
  <anchor x="404.116091954023" y="12.33103448275862" name="bottom.virama"/>
  <anchor x="391.81149425287356" y="578.0689655172414" name="top"/>
  <anchor x="452.0597701149425" y="578.0689655172414" name="topleft"/>
  <anchor x="393.4310344827586" y="570.6206896551724" name="topright"/>
  <anchor x="323.3850574712644" y="0.0" name="vedic"/>
  <outline>
    <contour>
      <point x="412.4816091954023" y="-19.82758620689655" type="line"/>
      <point x="420.1034482758621" y="-18.20689655172414" type="line"/>
      <point x="420.1034482758621" y="622.0" type="line"/>
      <point x="-31.25747126436782" y="622.0" type="line"/>
      <point x="5.963218390804597" y="557.5862068965517" type="line"/>
      <point x="345.0862068965517" y="557.5862068965517" type="line"/>
      <point x="345.0862068965517" y="482.1126436781609" type="line"/>
      <point x="353.5689655172414" y="519.4919540229885" type="line"/>
      <point x="230.37816091954022" y="478.18160919540236"/>
      <point x="119.03448275862067" y="421.86436781609194"/>
      <point x="13.264367816091953" y="348.11724137931037" type="curve"/>
      <point x="67.2655172413793" y="215.30344827586208" type="line"/>
      <point x="191.432183908046" y="195.17011494252876"/>
      <point x="291.08160919540234" y="130.29885057471265"/>
      <point x="355.49310344827586" y="18.78505747126437" type="curve"/>
    </contour>
    <contour>
      <point x="345.0862068965517" y="81.36666666666667" type="line"/>
      <point x="358.17586206896556" y="92.6816091954023" type="line"/>
      <point x="301.95172413793097" y="216.8551724137931"/>
      <point x="202.2735632183908" y="277.7712643678161"/>
      <point x="119.88620689655174" y="301.70344827586206" type="curve"/>
      <point x="127.65862068965518" y="279.8528735632184" type="line"/>
      <point x="195.4735632183908" y="332.1770114942529"/>
      <point x="283.667816091954" y="374.2655172413793"/>
      <point x="359.17816091954023" y="402.15977011494255" type="curve"/>
      <point x="345.0862068965517" y="431.632183908046" type="line"/>
    </contour>
    <contour>
      <point x="568.3678160919541" y="68.11379310344827" type="line"/>
      <point x="575.1160919540231" y="69.73448275862069" type="line"/>
      <point x="575.1160919540231" y="557.5862068965517" type="line"/>
      <point x="678.2551724137932" y="557.5862068965517" type="line"/>
      <point x="640.7942528735632" y="622.0" type="line"/>
      <point x="569.8988505747126" y="622.0" type="line"/>
      <point x="563.2770114942529" y="672.448275862069" type="line"/>
      <point x="506.41609195402305" y="707.3103448275862" type="line"/>
      <point x="500.5540229885057" y="705.0689655172414" type="line"/>
      <point x="500.5540229885057" y="169.53563218390804" type="line"/>
      <point x="513.6436781609195" y="179.05057471264368" type="line"/>
      <point x="481.9275862068966" y="255.0356321839081"/>
      <point x="439.5850574712644" y="302.2310344827587"/>
      <point x="388.67931034482757" y="337.77356321839085" type="curve"/>
      <point x="380.76666666666665" y="247.84137931034482" type="line"/>
      <point x="435.6758620689655" y="216.4873563218391"/>
      <point x="476.46321839080457" y="170.7448275862069"/>
      <point x="510.567816091954" y="106.72643678160918" type="curve"/>
    </contour>
  </outline>
</glyph>
<glyph name="nya-beng" format="2">
  <advance width="881.5931034482759"/>
  <unicode hex="099E"/>
  <anchor x="544.0770114942529" y="29.379310344827587" name="bottom"/>
  <anchor x="621.9574712643678" y="77.44827586206897" name="bottom.rakaar"/>
  <anchor x="549.8896551724139" y="5.455172413793103" name="bottom.rvocalic"/>
  <anchor x="532.3298850574713" y="7.862068965517242" name="bottom.virama"/>
  <anchor x="460.9517241379311" y="577.8413793103448" name="top"/>
  <anchor x="462.7367816091954" y="570.6206896551724" name="topright"/>
  <anchor x="440.79655172413794" y="0.0" name="vedic"/>
  <outline>
    <contour>
      <point x="697.2321839080461" y="40.38620689655172" type="curve" smooth="yes"/>
      <point x="780.8517241379311" y="40.38620689655172"/>
      <point x="825.628735632184" y="109.24827586206897"/>
      <point x="825.628735632184" y="194.38620689655173" type="curve" smooth="yes"/>
      <point x="825.628735632184" y="248.28850574712646"/>
      <point x="806.8528735632185" y="302.60689655172416"/>
      <point x="762.1252873563219" y="341.848275862069" type="curve"/>
      <point x="776.2298850574713" y="297.1241379310345" type="line"/>
      <point x="803.751724137931" y="327.41494252873565"/>
      <point x="823.7551724137932" y="380.79425287356327"/>
      <point x="823.7551724137932" y="441.4689655172414" type="curve" smooth="yes"/>
      <point x="823.7551724137932" y="529.0678160919539"/>
      <point x="778.3827586206896" y="599.3103448275862"/>
      <point x="704.3471264367817" y="599.3103448275862" type="curve" smooth="yes"/>
      <point x="598.6988505747127" y="599.3103448275862"/>
      <point x="530.1114942528736" y="455.43448275862073"/>
      <point x="522.2241379310344" y="374.4689655172414" type="curve"/>
      <point x="522.2241379310344" y="269.9862068965517" type="line"/>
      <point x="538.2264367816092" y="149.7793103448276"/>
      <point x="606.9655172413793" y="40.38620689655172"/>
    </contour>
    <contour>
      <point x="691.6229885057472" y="139.7793103448276" type="curve" smooth="yes"/>
      <point x="620.9068965517241" y="139.7793103448276"/>
      <point x="556.228735632184" y="219.69770114942528"/>
      <point x="556.228735632184" y="316.62068965517244" type="curve" smooth="yes"/>
      <point x="556.228735632184" y="401.48275862068965"/>
      <point x="613.9068965517242" y="507.24827586206897"/>
      <point x="698.4850574712644" y="507.24827586206897" type="curve" smooth="yes"/>
      <point x="734.4494252873562" y="507.24827586206897"/>
      <point x="758.2229885057473" y="489.65517241379314"/>
      <point x="758.2229885057473" y="452.9862068965517" type="curve" smooth="yes"/>
      <point x="758.2229885057473" y="410.8011494252874"/>
      <point x="729.0793103448276" y="377.43448275862073"/>
      <point x="693.164367816092" y="361.0551724137931" type="curve"/>
      <point x="745.019540229885" y="351.29655172413794" type="line"/>
      <point x="726.764367816092" y="378.33103448275864"/>
      <point x="702.4724137931034" y="391.29655172413794"/>
      <point x="673.8850574712644" y="391.29655172413794" type="curve" smooth="yes"/>
      <point x="633.6264367816092" y="391.29655172413794"/>
      <point x="606.4965517241379" y="362.2057471264368"/>
      <point x="606.4965517241379" y="318.22758620689655" type="curve" smooth="yes"/>
      <point x="606.4965517241379" y="270.50344827586207"/>
      <point x="637.0068965517241" y="243.00689655172414"/>
      <point x="678.3666666666667" y="243.00689655172414" type="curve" smooth="yes"/>
      <point x="715.6241379310344" y="243.00689655172414"/>
      <point x="742.3620689655172" y="260.00689655172414"/>
      <point x="764.9988505747126" y="289.0206896551724" type="curve"/>
      <point x="725.3965517241379" y="308.848275862069" type="line"/>
      <point x="744.6770114942528" y="291.22758620689655"/>
      <point x="767.4528735632184" y="262.7241379310345"/>
      <point x="767.4528735632184" y="221.95172413793105" type="curve" smooth="yes"/>
      <point x="767.4528735632184" y="170.05517241379312"/>
      <point x="739.9310344827586" y="139.7793103448276"/>
    </contour>
    <component base="e-beng"/>
  </outline>
</glyph>
<glyph name="tta-beng" format="2">
  <advance width="490.0287356321839"/>
  <unicode hex="099F"/>
  <anchor x="322.20459770114945" y="15.724137931034482" name="bottom"/>
  <anchor x="384.0" y="1.9873563218390804" name="bottom.rakaar"/>
  <anchor x="326.01149425287355" y="19.804597701149426" name="bottom.rvocalic"/>
  <anchor x="257.90229885057465" y="32.40114942528736" name="bottom.virama"/>
  <anchor x="264.52183908045976" y="668.5356321839081" name="top"/>
  <anchor x="189.34022988505745" y="639.0471264367816" name="topright"/>
  <anchor x="244.89425287356323" y="0.0" name="vedic"/>
  <anchor x="215.9528735632184" y="-89.37931034482759" name="nukta"/>
  <outline>
    <contour>
      <point x="365.3770114942529" y="603.3103448275862" type="curve"/>
      <point x="417.38620689655176" y="603.3103448275862" type="line"/>
      <point x="413.04482758620685" y="741.6298850574713"/>
      <point x="368.4172413793104" y="811.8827586206895"/>
      <point x="277.2931034482759" y="811.8827586206895" type="curve" smooth="yes"/>
      <point x="230.8287356321839" y="811.8827586206895"/>
      <point x="195.8528735632184" y="802.655172413793"/>
      <point x="148.95977011494253" y="802.655172413793" type="curve" smooth="yes"/>
      <point x="85.24252873563218" y="802.655172413793"/>
      <point x="55.34137931034483" y="823.96091954023"/>
      <point x="55.34137931034483" y="884.6908045977012" type="curve" smooth="yes"/>
      <point x="55.34137931034483" y="897.196551724138"/>
      <point x="56.34137931034482" y="910.9816091954023"/>
      <point x="58.10114942528736" y="921.7160919540229" type="curve"/>
      <point x="12.72758620689655" y="926.5643678160919" type="line"/>
      <point x="8.726436781609195" y="906.4620689655172"/>
      <point x="6.4724137931034464" y="881.5988505747126"/>
      <point x="6.4724137931034464" y="860.7597701149425" type="curve" smooth="yes"/>
      <point x="6.4724137931034464" y="764.7206896551725"/>
      <point x="52.40459770114943" y="700.8022988505747"/>
      <point x="153.39425287356323" y="700.8022988505747" type="curve" smooth="yes"/>
      <point x="210.03333333333333" y="700.8022988505747"/>
      <point x="248.09080459770118" y="711.1954022988506"/>
      <point x="288.2586206896552" y="711.1954022988506" type="curve" smooth="yes"/>
      <point x="336.4022988505747" y="711.1954022988506"/>
      <point x="363.60689655172416" y="684.7563218390804"/>
    </contour>
    <component base="ddha-beng"/>
  </outline>
</glyph>
<glyph name="ttha-beng" format="2">
  <advance width="510.583908045977"/>
  <unicode hex="09A0"/>
  <anchor x="309.39310344827584" y="-18.0" name="bottom"/>
  <anchor x="437.7298850574713" y="-32.03448275862069" name="bottom.rakaar"/>
  <anchor x="357.6735632183908" y="-20.482758620689655" name="bottom.rvocalic"/>
  <anchor x="300.53333333333336" y="-7.448275862068966" name="bottom.virama"/>
  <anchor x="413.2666666666667" y="560.1701149425288" name="top"/>
  <anchor x="404.6183908045977" y="610.9965517241379" name="topleft"/>
  <anchor x="305.7724137931034" y="570.6206896551724" name="topright"/>
  <anchor x="255.10229885057473" y="0.0" name="vedic"/>
  <outline>
    <contour>
      <point x="263.0425287356322" y="-16.10344827586207" type="curve" smooth="yes"/>
      <point x="385.6896551724138" y="-16.10344827586207"/>
      <point x="461.7505747126437" y="67.3287356321839"/>
      <point x="461.7505747126437" y="205.73218390804598" type="curve" smooth="yes"/>
      <point x="461.7505747126437" y="335.80229885057474"/>
      <point x="384.31724137931036" y="446.39310344827584"/>
      <point x="287.9816091954023" y="557.5862068965517" type="curve"/>
      <point x="541.8413793103448" y="557.5862068965517" type="line"/>
      <point x="505.00000000000006" y="622.0" type="line"/>
      <point x="230.4528735632184" y="622.0" type="line"/>
      <point x="196.19540229885055" y="658.7586206896551"/>
      <point x="174.8793103448276" y="695.6275862068966"/>
      <point x="174.8793103448276" y="732.1436781609195" type="curve" smooth="yes"/>
      <point x="174.8793103448276" y="769.6758620689656"/>
      <point x="200.79540229885058" y="802.0344827586207"/>
      <point x="244.87701149425288" y="829.3103448275862" type="curve"/>
      <point x="168.49655172413793" y="899.1379310344828" type="line"/>
      <point x="109.8183908045977" y="860.8620689655172"/>
      <point x="83.75977011494253" y="815.1367816091954"/>
      <point x="83.75977011494253" y="769.7931034482758" type="curve" smooth="yes"/>
      <point x="83.75977011494253" y="708.6666666666667"/>
      <point x="121.68735632183908" y="665.3793103448276"/>
      <point x="161.30114942528735" y="622.0" type="curve"/>
      <point x="-31.25747126436782" y="622.0" type="line"/>
      <point x="5.963218390804597" y="557.5862068965517" type="line"/>
      <point x="195.43563218390804" y="557.5862068965517" type="line"/>
      <point x="207.2206896551724" y="528.3379310344827"/>
      <point x="214.10689655172413" y="495.0988505747126"/>
      <point x="214.10689655172413" y="456.62068965517244" type="curve" smooth="yes"/>
      <point x="214.10689655172413" y="353.93793103448274"/>
      <point x="153.85632183908046" y="274.67241379310343"/>
      <point x="23.83218390804598" y="246.1689655172414" type="curve"/>
      <point x="42.02183908045977" y="80.4448275862069"/>
      <point x="126.9551724137931" y="-16.10344827586207"/>
    </contour>
    <contour>
      <point x="244.12528735632188" y="63.69540229885059" type="curve" smooth="yes"/>
      <point x="178.94252873563215" y="63.69540229885059"/>
      <point x="134.5471264367816" y="117.36896551724139"/>
      <point x="133.8137931034483" y="187.9816091954023" type="curve"/>
      <point x="120.0264367816092" y="155.80229885057472" type="line"/>
      <point x="231.55632183908045" y="188.1816091954023"/>
      <point x="283.75402298850577" y="268.4425287356322"/>
      <point x="283.75402298850577" y="374.66436781609195" type="curve" smooth="yes"/>
      <point x="283.75402298850577" y="449.7586206896552"/>
      <point x="262.52183908045976" y="510.0"/>
      <point x="231.8954022988506" y="567.6206896551724" type="curve"/>
      <point x="221.0448275862069" y="567.6206896551724" type="line"/>
      <point x="318.1655172413793" y="446.032183908046"/>
      <point x="360.2977011494253" y="347.0689655172414"/>
      <point x="360.2977011494253" y="227.848275862069" type="curve" smooth="yes"/>
      <point x="360.2977011494253" y="123.02413793103449"/>
      <point x="315.68850574712644" y="63.69540229885059"/>
    </contour>
  </outline>
</glyph>
<glyph name="dda-beng" format="2">
  <advance width="575.4770114942529"/>
  <unicode hex="09A1"/>
  <anchor x="408.116091954023" y="12.275862068965516" name="bottom"/>
  <anchor x="496.1540229885057" y="-7.862068965517242" name="bottom.rakaar"/>
  <anchor x="412.7632183908046" y="19.689655172413794" name="bottom.rvocalic"/>
  <anchor x="369.9735632183908" y="4.689655172413794" name="bottom.virama"/>
  <anchor x="309.7471264367816" y="-90.55172413793103" name="nukta"/>
  <anchor x="272.2" y="578.0689655172414" name="top"/>
  <anchor x="273.81954022988504" y="570.6206896551724" name="topright"/>
  <anchor x="287.66896551724136" y="0.0" name="vedic"/>
  <outline>
    <contour>
      <point x="338.232183908046" y="22.068965517241377" type="curve" smooth="yes"/>
      <point x="476.948275862069" y="22.068965517241377"/>
      <point x="547.5390804597702" y="118.73218390804598"/>
      <point x="547.5390804597702" y="251.15862068965515" type="curve" smooth="yes"/>
      <point x="547.5390804597702" y="353.8333333333333"/>
      <point x="508.6356321839081" y="426.61149425287357"/>
      <point x="454.0988505747126" y="476.71494252873566" type="curve"/>
      <point x="411.8471264367816" y="405.96551724137936"/>
      <point x="360.09540229885056" y="356.48850574712645"/>
      <point x="317.6275862068966" y="356.48850574712645" type="curve" smooth="yes"/>
      <point x="300.34712643678165" y="356.48850574712645"/>
      <point x="287.5977011494253" y="364.85402298850573"/>
      <point x="287.5977011494253" y="385.7298850574713" type="curve" smooth="yes"/>
      <point x="287.5977011494253" y="557.5862068965517" type="line"/>
      <point x="606.7344827586207" y="557.5862068965517" type="line"/>
      <point x="568.5264367816093" y="622.0" type="line"/>
      <point x="-31.25747126436782" y="622.0" type="line"/>
      <point x="6.583908045977012" y="557.5862068965517" type="line"/>
      <point x="212.58045977011497" y="557.5862068965517" type="line"/>
      <point x="212.58045977011497" y="378.5793103448276" type="line" smooth="yes"/>
      <point x="212.58045977011497" y="337.77586206896547"/>
      <point x="224.52183908045976" y="309.116091954023"/>
      <point x="248.13218390804596" y="286.151724137931" type="curve" smooth="yes"/>
      <point x="270.11034482758623" y="264.5793103448276"/>
      <point x="298.4954022988506" y="251.716091954023"/>
      <point x="333.2862068965517" y="251.716091954023" type="curve" smooth="yes"/>
      <point x="391.632183908046" y="251.716091954023"/>
      <point x="457.7310344827587" y="299.3632183908046"/>
      <point x="499.1310344827586" y="370.0873563218391" type="curve"/>
      <point x="450.7275862068966" y="360.348275862069" type="line"/>
      <point x="473.0206896551725" y="341.33448275862065"/>
      <point x="486.57931034482755" y="313.72643678160915"/>
      <point x="486.57931034482755" y="271.0712643678161" type="curve" smooth="yes"/>
      <point x="486.57931034482755" y="190.76091954022988"/>
      <point x="431.5873563218391" y="135.07586206896553"/>
      <point x="338.30689655172415" y="135.07586206896553" type="curve" smooth="yes"/>
      <point x="187.5137931034483" y="135.07586206896553"/>
      <point x="116.24137931034484" y="251.5632183908046"/>
      <point x="67.71954022988507" y="484.2632183908046" type="curve"/>
      <point x="16.8" y="473.7931034482759" type="line"/>
      <point x="65.17011494252873" y="170.78045977011493"/>
      <point x="164.62413793103448" y="22.068965517241377"/>
    </contour>
  </outline>
</glyph>
<glyph name="ddha-beng" format="2">
  <advance width="490.0287356321839"/>
  <unicode hex="09A2"/>
  <anchor x="322.9908045977011" y="15.724137931034482" name="bottom"/>
  <anchor x="384.0" y="1.9873563218390804" name="bottom.rakaar"/>
  <anchor x="325.53103448275857" y="18.93103448275862" name="bottom.rvocalic"/>
  <anchor x="257.90229885057465" y="32.40114942528736" name="bottom.virama"/>
  <anchor x="215.9528735632184" y="-89.37931034482759" name="nukta"/>
  <anchor x="134.02988505747126" y="578.0689655172414" name="top"/>
  <anchor x="135.90344827586205" y="570.6206896551724" name="topright"/>
  <anchor x="244.89425287356323" y="0.0" name="vedic"/>
  <outline>
    <contour>
      <point x="210.3597701149425" y="17.470114942528735" type="curve" smooth="yes"/>
      <point x="345.1379310344828" y="17.470114942528735"/>
      <point x="452.5448275862069" y="189.13793103448276"/>
      <point x="452.5448275862069" y="323.3103448275862" type="curve" smooth="yes"/>
      <point x="452.5448275862069" y="419.3908045977011"/>
      <point x="401.10804597701144" y="458.86206896551727"/>
      <point x="342.99885057471266" y="458.86206896551727" type="curve" smooth="yes"/>
      <point x="281.4850574712643" y="458.86206896551727"/>
      <point x="245.51724137931035" y="415.58045977011494"/>
      <point x="245.51724137931035" y="364.6908045977012" type="curve" smooth="yes"/>
      <point x="245.51724137931035" y="311.63563218390806"/>
      <point x="277.432183908046" y="274.01264367816094"/>
      <point x="331.66551724137935" y="274.01264367816094" type="curve" smooth="yes"/>
      <point x="356.8068965517241" y="274.01264367816094"/>
      <point x="373.68275862068964" y="286.8735632183908"/>
      <point x="388.280459770115" y="305.7367816091954" type="curve"/>
      <point x="347.36781609195407" y="337.3103448275862" type="line"/>
      <point x="342.0517241379311" y="214.55977011494255"/>
      <point x="261.27126436781606" y="103.33448275862068"/>
      <point x="194.3183908045977" y="103.33448275862068" type="curve" smooth="yes"/>
      <point x="165.54712643678158" y="103.33448275862068"/>
      <point x="147.1264367816092" y="120.71379310344827"/>
      <point x="147.1264367816092" y="153.15402298850574" type="curve" smooth="yes"/>
      <point x="147.1264367816092" y="557.5862068965517" type="line"/>
      <point x="521.2862068965518" y="557.5862068965517" type="line"/>
      <point x="484.91379310344826" y="622.0" type="line"/>
      <point x="-31.25747126436782" y="622.0" type="line"/>
      <point x="7.824137931034483" y="557.5862068965517" type="line"/>
      <point x="72.50229885057472" y="557.5862068965517" type="line"/>
      <point x="72.50229885057472" y="151.02988505747126" type="line" smooth="yes"/>
      <point x="72.50229885057472" y="70.65747126436783"/>
      <point x="137.13563218390806" y="17.470114942528735"/>
    </contour>
  </outline>
</glyph>
<glyph name="nna-beng" format="2">
  <advance width="557.7356321839081"/>
  <unicode hex="09A3"/>
  <anchor x="471.3931034482759" y="58.54252873563218" name="bottom"/>
  <anchor x="485.2333333333333" y="-10.448275862068966" name="bottom.rakaar"/>
  <anchor x="485.2333333333333" y="-2.6206896551724137" name="bottom.rvocalic"/>
  <anchor x="456.5586206896552" y="7.241379310344827" name="bottom.virama"/>
  <anchor x="467.151724137931" y="568.0689655172414" name="top"/>
  <anchor x="447.6586206896552" y="559.448275862069" name="topright"/>
  <anchor x="278.36781609195407" y="0.0" name="vedic"/>
  <outline>
    <contour>
      <point x="478.9908045977011" y="-31.20689655172414" type="line"/>
      <point x="485.2333333333333" y="-29.586206896551722" type="line"/>
      <point x="485.2333333333333" y="557.5862068965517" type="line"/>
      <point x="588.993103448276" y="557.5862068965517" type="line"/>
      <point x="550.9114942528736" y="622.0" type="line"/>
      <point x="480.016091954023" y="622.0" type="line"/>
      <point x="473.78735632183907" y="672.448275862069" type="line"/>
      <point x="417.1540229885058" y="707.3103448275862" type="line"/>
      <point x="411.29195402298853" y="705.0689655172414" type="line"/>
      <point x="411.29195402298853" y="566.6034482758621" type="line" smooth="yes"/>
      <point x="411.29195402298853" y="507.45632183908043"/>
      <point x="414.54597701149424" y="442.9022988505747"/>
      <point x="418.5977011494253" y="395.1678160919541" type="curve"/>
      <point x="425.4850574712644" y="403.2850574712644" type="line"/>
      <point x="353.05632183908045" y="562.1264367816092"/>
      <point x="284.2528735632184" y="628.2413793103449"/>
      <point x="193.05862068965516" y="628.2413793103449" type="curve" smooth="yes"/>
      <point x="103.05057471264368" y="628.2413793103449"/>
      <point x="32.9632183908046" y="557.7586206896552"/>
      <point x="32.9632183908046" y="442.82528735632184" type="curve" smooth="yes"/>
      <point x="32.9632183908046" y="310.00344827586207"/>
      <point x="119.01149425287355" y="245.4206896551724"/>
      <point x="202.79540229885058" y="245.4206896551724" type="curve" smooth="yes"/>
      <point x="267.67816091954023" y="245.4206896551724"/>
      <point x="304.1896551724138" y="284.15862068965515"/>
      <point x="304.1896551724138" y="340.83448275862065" type="curve" smooth="yes"/>
      <point x="304.1896551724138" y="393.2068965517241"/>
      <point x="271.5655172413793" y="432.80689655172415"/>
      <point x="218.1896551724138" y="432.80689655172415" type="curve" smooth="yes"/>
      <point x="173.2977011494253" y="432.80689655172415"/>
      <point x="141.16666666666669" y="399.6770114942529"/>
      <point x="141.16666666666669" y="352.7114942528736" type="curve" smooth="yes"/>
      <point x="141.16666666666669" y="335.62068965517244"/>
      <point x="145.39425287356323" y="316.9862068965517"/>
      <point x="152.72413793103448" y="306.73218390804595" type="curve"/>
      <point x="197.02528735632185" y="340.3448275862069" type="line"/>
      <point x="186.37816091954022" y="337.49655172413793"/>
      <point x="174.7816091954023" y="336.04137931034484"/>
      <point x="164.04597701149427" y="336.04137931034484" type="curve" smooth="yes"/>
      <point x="130.74022988505746" y="336.04137931034484"/>
      <point x="105.1816091954023" y="366.0379310344828"/>
      <point x="105.1816091954023" y="416.3390804597701" type="curve" smooth="yes"/>
      <point x="105.1816091954023" y="480.3908045977011"/>
      <point x="149.51724137931035" y="519.0344827586207"/>
      <point x="213.30574712643678" y="519.0344827586207" type="curve" smooth="yes"/>
      <point x="290.74022988505743" y="519.0344827586207"/>
      <point x="351.69310344827585" y="470.68850574712644"/>
      <point x="420.5988505747126" y="313.77241379310345" type="curve"/>
      <point x="410.60919540229884" y="374.53218390804597" type="line"/>
      <point x="410.60919540229884" y="1.7586206896551724" type="line"/>
    </contour>
  </outline>
</glyph>
<glyph name="ta-beng" format="2">
  <advance width="584.3954022988506"/>
  <unicode hex="09A4"/>
  <anchor x="424.45862068965516" y="21.137931034482758" name="bottom"/>
  <anchor x="504.09540229885056" y="0.3793103448275862" name="bottom.rakaar"/>
  <anchor x="434.2057471264368" y="28.310344827586206" name="bottom.rvocalic"/>
  <anchor x="371.5425287356322" y="13.551724137931034" name="bottom.virama"/>
  <anchor x="351.75172413793103" y="578.0689655172414" name="top"/>
  <anchor x="353.3712643678161" y="570.6206896551724" name="topright"/>
  <anchor x="292.1977011494253" y="0.0" name="vedic"/>
  <outline>
    <contour>
      <point x="350.11724137931037" y="30.93103448275862" type="curve" smooth="yes"/>
      <point x="464.0528735632184" y="30.93103448275862"/>
      <point x="554.1425287356321" y="99.94252873563218"/>
      <point x="554.1425287356321" y="255.86321839080458" type="curve" smooth="yes"/>
      <point x="554.1425287356321" y="396.23333333333335"/>
      <point x="473.47241379310344" y="506.13793103448273"/>
      <point x="330.9850574712643" y="506.13793103448273" type="curve" smooth="yes"/>
      <point x="245.50459770114944" y="506.13793103448273"/>
      <point x="197.4" y="454.81724137931036"/>
      <point x="197.4" y="380.9655172413793" type="curve" smooth="yes"/>
      <point x="197.4" y="317.5425287356322"/>
      <point x="236.02528735632185" y="265.7149425287356"/>
      <point x="307.08505747126435" y="265.7149425287356" type="curve" smooth="yes"/>
      <point x="370.1701149425287" y="265.7149425287356"/>
      <point x="404.81954022988504" y="309.6666666666667"/>
      <point x="404.81954022988504" y="366.2413793103448" type="curve" smooth="yes"/>
      <point x="404.81954022988504" y="405.5988505747126"/>
      <point x="385.85402298850573" y="437.44827586206895"/>
      <point x="370.71264367816093" y="453.0689655172414" type="curve"/>
      <point x="337.2011494252874" y="391.44827586206895" type="line"/>
      <point x="348.3287356321839" y="396.6896551724138"/>
      <point x="367.18045977011496" y="402.41379310344826"/>
      <point x="386.93103448275866" y="402.41379310344826" type="curve" smooth="yes"/>
      <point x="439.6712643678161" y="402.41379310344826"/>
      <point x="487.4850574712643" y="366.03678160919543"/>
      <point x="487.4850574712643" y="281.3229885057471" type="curve" smooth="yes"/>
      <point x="487.4850574712643" y="190.1034482758621"/>
      <point x="430.8218390804598" y="145.1919540229885"/>
      <point x="347.10344827586204" y="145.1919540229885" type="curve" smooth="yes"/>
      <point x="217.20459770114942" y="145.1919540229885"/>
      <point x="125.46436781609195" y="234.87586206896552"/>
      <point x="56.98735632183908" y="496.4011494252874" type="curve"/>
      <point x="7.321839080459769" y="483.3103448275862" type="line"/>
      <point x="75.81264367816092" y="166.29885057471265"/>
      <point x="177.37011494252877" y="30.93103448275862"/>
    </contour>
    <contour>
      <point x="5.190804597701149" y="557.5862068965517" type="line"/>
      <point x="615.6528735632183" y="557.5862068965517" type="line"/>
      <point x="577.8114942528734" y="622.0" type="line"/>
      <point x="-31.25747126436782" y="622.0" type="line"/>
    </contour>
  </outline>
</glyph>
<glyph name="tha-beng" format="2">
  <advance width="541.0149425287357"/>
  <unicode hex="09A5"/>
  <anchor x="462.95402298850576" y="32.48275862068966" name="bottom"/>
  <anchor x="468.9057471264368" y="80.55172413793103" name="bottom.rakaar"/>
  <anchor x="468.9057471264368" y="10.924137931034481" name="bottom.rvocalic"/>
  <anchor x="450.1954022988506" y="10.96551724137931" name="bottom.virama"/>
  <anchor x="449.74827586206897" y="568.0689655172414" name="top"/>
  <anchor x="430.87586206896555" y="559.448275862069" name="topright"/>
  <anchor x="270.2413793103448" y="0.0" name="vedic"/>
  <outline>
    <contour>
      <point x="461.6505747126437" y="-19.82758620689655" type="line"/>
      <point x="468.9057471264368" y="-18.20689655172414" type="line"/>
      <point x="468.9057471264368" y="557.5862068965517" type="line"/>
      <point x="572.2724137931034" y="557.5862068965517" type="line"/>
      <point x="534.8114942528737" y="622.0" type="line"/>
      <point x="463.916091954023" y="622.0" type="line"/>
      <point x="457.2942528735632" y="672.448275862069" type="line"/>
      <point x="399.75057471264364" y="707.3103448275862" type="line"/>
      <point x="394.116091954023" y="705.0689655172414" type="line"/>
      <point x="394.116091954023" y="80.2735632183908" type="line"/>
      <point x="406.3333333333333" y="92.08965517241379" type="line"/>
      <point x="356.12873563218386" y="206.59310344827585"/>
      <point x="256.1459770114942" y="266.57816091954027"/>
      <point x="159.75402298850574" y="298.03103448275857" type="curve"/>
      <point x="178.34367816091955" y="263.38045977011495" type="line"/>
      <point x="284.09540229885056" y="280.67816091954023"/>
      <point x="339.0137931034482" y="338.2172413793104"/>
      <point x="339.0137931034482" y="440.04137931034484" type="curve" smooth="yes"/>
      <point x="339.0137931034482" y="555.8149425287355"/>
      <point x="260.92413793103447" y="625.4551724137931"/>
      <point x="162.4310344827586" y="625.4551724137931" type="curve" smooth="yes"/>
      <point x="77.52988505747128" y="625.4551724137931"/>
      <point x="21.47586206896552" y="574.2298850574712"/>
      <point x="21.47586206896552" y="506.7712643678161" type="curve" smooth="yes"/>
      <point x="21.47586206896552" y="444.0298850574713"/>
      <point x="59.631034482758615" y="412.6229885057472"/>
      <point x="105.87931034482759" y="412.6229885057472" type="curve" smooth="yes"/>
      <point x="152.84712643678162" y="412.6229885057472"/>
      <point x="179.9390804597701" y="440.9793103448276"/>
      <point x="179.9390804597701" y="483.3632183908046" type="curve" smooth="yes"/>
      <point x="179.9390804597701" y="514.6942528735632"/>
      <point x="167.15287356321838" y="535.7333333333333"/>
      <point x="142.60574712643677" y="547.3942528735632" type="curve"/>
      <point x="142.99885057471266" y="513.7241379310345" type="line"/>
      <point x="154.68620689655174" y="534.3448275862069"/>
      <point x="172.87586206896552" y="546.2666666666667"/>
      <point x="197.45977011494253" y="546.2666666666667" type="curve" smooth="yes"/>
      <point x="238.0448275862069" y="546.2666666666667"/>
      <point x="264.7022988505747" y="513.951724137931"/>
      <point x="264.7022988505747" y="464.65517241379314" type="curve" smooth="yes"/>
      <point x="264.7022988505747" y="371.9954022988506"/>
      <point x="162.0689655172414" y="343.66896551724136"/>
      <point x="60.022988505747136" y="345.1390804597701" type="curve"/>
      <point x="105.13218390804597" y="214.09655172413792" type="line"/>
      <point x="234.85172413793103" y="198.44137931034484"/>
      <point x="339.38045977011495" y="132.6264367816092"/>
      <point x="404.0172413793104" y="20.048275862068966" type="curve"/>
    </contour>
  </outline>
</glyph>
<glyph name="da-beng" format="2">
  <advance width="498.035632183908"/>
  <unicode hex="09A6"/>
  <anchor x="417.1919540229885" y="76.26206896551724" name="bottom"/>
  <anchor x="430.6379310344828" y="62.55172413793103" name="bottom.rakaar"/>
  <anchor x="429.7781609195402" y="-10.724137931034484" name="bottom.rvocalic"/>
  <anchor x="413.5103448275862" y="-16.137931034482758" name="bottom.virama"/>
  <anchor x="121.68620689655171" y="578.0689655172414" name="top"/>
  <anchor x="123.69885057471264" y="570.6206896551724" name="topright"/>
  <anchor x="248.70114942528733" y="0.0" name="vedic"/>
  <outline>
    <contour>
      <point x="383.5310344827587" y="-41.655172413793096" type="curve"/>
      <point x="429.7781609195402" y="-23.310344827586206" type="line"/>
      <point x="408.53563218390804" y="44.92413793103449"/>
      <point x="399.0298850574713" y="99.17586206896551"/>
      <point x="399.0298850574713" y="161.03793103448277" type="curve" smooth="yes"/>
      <point x="399.0298850574713" y="244.71954022988504"/>
      <point x="421.44942528735635" y="330.9655172413793"/>
      <point x="464.0103448275862" y="405.58620689655174" type="curve"/>
      <point x="362.48735632183906" y="494.36896551724135" type="line"/>
      <point x="268.52988505747123" y="437.4862068965517"/>
      <point x="174.88505747126436" y="356.1206896551724"/>
      <point x="114.95517241379311" y="285.20919540229886" type="curve"/>
      <point x="137.24942528735633" y="255.41379310344828" type="line"/>
      <point x="137.24942528735633" y="557.5862068965517" type="line"/>
      <point x="529.2931034482759" y="557.5862068965517" type="line"/>
      <point x="492.46551724137936" y="622.0" type="line"/>
      <point x="-31.25747126436782" y="622.0" type="line"/>
      <point x="6.190804597701149" y="557.5862068965517" type="line"/>
      <point x="62.23218390804598" y="557.5862068965517" type="line"/>
      <point x="62.23218390804598" y="200.7793103448276" type="line"/>
      <point x="134.75632183908044" y="148.7896551724138" type="line"/>
      <point x="218.84137931034482" y="243.39770114942527"/>
      <point x="302.0045977011494" y="324.86896551724135"/>
      <point x="392.8" y="387.36436781609194" type="curve"/>
      <point x="365.2183908045977" y="405.82758620689657" type="line"/>
      <point x="339.2942528735632" y="340.49655172413793"/>
      <point x="326.5597701149425" y="273.05172413793105"/>
      <point x="326.5597701149425" y="202.5103448275862" type="curve" smooth="yes"/>
      <point x="326.5597701149425" y="113.73103448275862"/>
      <point x="351.0597701149425" y="31.635632183908047"/>
    </contour>
  </outline>
</glyph>
<glyph name="dha-beng" format="2">
  <advance width="498.9586206896552"/>
  <unicode hex="09A7"/>
  <anchor x="420.416091954023" y="32.48275862068966" name="bottom"/>
  <anchor x="424.9390804597701" y="80.55172413793103" name="bottom.rakaar"/>
  <anchor x="426.2287356321839" y="9.912643678160919" name="bottom.rvocalic"/>
  <anchor x="408.66896551724136" y="10.96551724137931" name="bottom.virama"/>
  <anchor x="410.6034482758621" y="578.0689655172414" name="top"/>
  <anchor x="412.22298850574714" y="570.6206896551724" name="topright"/>
  <anchor x="249.28275862068966" y="0.0" name="vedic"/>
  <outline>
    <contour>
      <point x="418.60689655172416" y="-19.82758620689655" type="line"/>
      <point x="426.2287356321839" y="-18.20689655172414" type="line"/>
      <point x="426.2287356321839" y="557.5862068965517" type="line"/>
      <point x="529.9885057471264" y="557.5862068965517" type="line"/>
      <point x="492.1471264367816" y="622.0" type="line"/>
      <point x="351.21149425287354" y="622.0" type="line"/>
      <point x="351.21149425287354" y="469.4264367816092" type="line"/>
      <point x="360.0873563218391" y="505.33678160919544" type="line"/>
      <point x="237.12413793103448" y="461.21264367816093"/>
      <point x="124.3735632183908" y="407.0471264367816"/>
      <point x="19.948275862068964" y="334.99655172413793" type="curve"/>
      <point x="75.35632183908045" y="202.57586206896553" type="line"/>
      <point x="193.32988505747127" y="181.4816091954023"/>
      <point x="296.02758620689656" y="125.47241379310346"/>
      <point x="361.6183908045977" y="18.391954022988504" type="curve"/>
    </contour>
    <contour>
      <point x="351.21149425287354" y="82.15287356321839" type="line"/>
      <point x="364.30114942528735" y="91.50229885057472" type="line"/>
      <point x="314.5413793103449" y="201.37126436781608"/>
      <point x="211.783908045977" y="263.3494252873563"/>
      <point x="123.65287356321838" y="290.548275862069" type="curve"/>
      <point x="132.21149425287354" y="267.18735632183905" type="line"/>
      <point x="199.63333333333333" y="318.1459770114942"/>
      <point x="288.6137931034483" y="361.24827586206897"/>
      <point x="365.53103448275857" y="389.1425287356322" type="curve"/>
      <point x="351.21149425287354" y="417.37356321839076" type="line"/>
    </contour>
    <contour>
      <point x="191.4103448275862" y="400.5402298850575" type="curve"/>
      <point x="214.94022988505745" y="434.4022988505747" type="line"/>
      <point x="163.63563218390803" y="439.66896551724136"/>
      <point x="132.2919540229885" y="470.9459770114942"/>
      <point x="132.2919540229885" y="504.1862068965517" type="curve" smooth="yes"/>
      <point x="132.2919540229885" y="537.9586206896552"/>
      <point x="152.21724137931034" y="556.416091954023"/>
      <point x="180.98045977011495" y="556.416091954023" type="curve" smooth="yes"/>
      <point x="188.2471264367816" y="556.416091954023"/>
      <point x="196.37471264367815" y="555.416091954023"/>
      <point x="204.86896551724135" y="552.416091954023" type="curve"/>
      <point x="168.76321839080458" y="590.0" type="line"/>
      <point x="160.87586206896552" y="577.7586206896551"/>
      <point x="158.2425287356322" y="562.9988505747127"/>
      <point x="158.2425287356322" y="548.0344827586207" type="curve" smooth="yes"/>
      <point x="158.2425287356322" y="510.17241379310343"/>
      <point x="185.98045977011492" y="489.44942528735635"/>
      <point x="217.1494252873563" y="489.44942528735635" type="curve" smooth="yes"/>
      <point x="251.74827586206897" y="489.44942528735635"/>
      <point x="278.99195402298847" y="514.7931034482758"/>
      <point x="278.99195402298847" y="553.8965517241379" type="curve" smooth="yes"/>
      <point x="278.99195402298847" y="599.2413793103449"/>
      <point x="247.88735632183906" y="636.5862068965517"/>
      <point x="181.76321839080458" y="636.5862068965517" type="curve" smooth="yes"/>
      <point x="107.27241379310345" y="636.5862068965517"/>
      <point x="57.57011494252873" y="590.1034482758621"/>
      <point x="57.57011494252873" y="522.3793103448276" type="curve" smooth="yes"/>
      <point x="57.57011494252873" y="436.5747126436782"/>
      <point x="140.32988505747124" y="400.5402298850575"/>
    </contour>
  </outline>
</glyph>
